<svg width="0" height="0" class="hidden">
    <symbol width="20" height="20" viewBox="0 0 20 20" fill="none" xmlns="http://www.w3.org/2000/svg" id="apple">
        <g clip-path="url(#clip0_1534_12351)">
        <path d="M17.1568 7.19884C16.4243 6.21951 15.4338 5.52811 14.3676 5.25198C13.6585 5.06846 12.8013 5.08389 11.8193 5.29799L11.8193 5.29776C11.8149 5.29881 11.8057 5.30092 11.7908 5.30424C11.7652 5.3094 11.7398 5.3153 11.7151 5.32108C11.6534 5.33549 11.5585 5.35823 11.4567 5.38471C11.3232 5.41928 11.1876 5.4494 11.0523 5.47455C11.0502 5.37342 11.0464 5.26948 11.0405 5.16319C11.1561 3.87534 11.6789 2.76844 12.5989 1.86661C13.3951 1.0861 14.2075 0.757275 14.2148 0.754346C14.4156 0.67544 14.5144 0.448684 14.4355 0.247903C14.3566 0.0470843 14.1299 -0.0516651 13.9291 0.0272016C13.891 0.0422406 12.9841 0.404582 12.0767 1.28462C11.596 1.75082 11.0625 2.41871 10.6939 3.31511C10.4971 2.75726 10.2007 2.22332 9.76149 1.78454C7.99092 0.0159126 4.67266 0.566613 4.47715 0.600948C4.47699 0.600987 4.47684 0.600987 4.47668 0.601026C4.33356 0.623917 4.21332 0.723916 4.17094 0.862509C4.16469 0.882939 4.15969 0.902001 4.15684 0.917899C4.13438 1.04407 3.67954 3.70597 4.82547 5.5485C3.23966 6.30896 1.56369 8.19044 1.56369 11.3174C1.56369 12.4265 1.90166 13.7822 2.5154 15.1347C3.11669 16.4598 3.92879 17.6706 4.80203 18.544C5.75347 19.4966 6.73108 20.0001 7.62908 20.0001C8.15498 20.0001 8.69677 19.9205 9.19615 19.7698C9.68802 19.6211 10.2104 19.6117 10.7072 19.7424C10.7089 19.7429 10.7106 19.7434 10.7123 19.7438C10.743 19.7519 10.7736 19.7606 10.8044 19.7699C11.3035 19.9204 11.8453 20.0001 12.3712 20.0001C13.2304 20.0001 14.1669 19.5368 15.0793 18.6605C16.9619 16.8547 18.4366 13.6292 18.4366 11.3174C18.4364 9.74222 17.9939 8.31805 17.1568 7.19884ZM9.20923 2.33731C9.95602 3.08332 10.1997 4.22151 10.2557 5.17834C10.2418 5.35401 10.2346 6.12142 10.2346 6.12142L7.2717 3.16171C7.11905 3.00925 6.87171 3.00933 6.71929 3.16203C6.56682 3.31464 6.56694 3.56199 6.71956 3.71448L9.70302 6.69474C8.68271 6.74939 6.91733 6.67189 5.89308 5.64873C4.66285 4.41983 4.79809 2.12672 4.88808 1.33325C5.68226 1.24333 7.97865 1.10802 9.20923 2.33731ZM14.5381 18.0968C13.7739 18.8308 13.0245 19.2188 12.371 19.2188C11.9269 19.2188 11.4507 19.1489 11.03 19.022C10.991 19.0102 10.9519 18.9992 10.9126 18.9888C10.912 18.9886 10.9114 18.9884 10.9108 18.9883C10.2729 18.8194 9.60173 18.831 8.97013 19.0219C8.54927 19.1489 8.07295 19.2188 7.62889 19.2188C6.94276 19.2188 6.15632 18.7946 5.35445 17.9918C3.66676 16.3037 2.34478 13.3719 2.34478 11.3174C2.34478 8.44641 3.9095 6.78087 5.32101 6.18138C5.32761 6.1881 5.33429 6.19482 5.34097 6.2015C6.41171 7.27107 8.05643 7.49091 9.22806 7.49087C9.97122 7.49087 10.525 7.40673 10.619 7.38618C10.931 7.3179 10.9234 7.17247 10.9428 7.08271C10.943 7.08157 10.9433 7.08044 10.9435 7.07931C10.9438 7.07806 10.944 7.07677 10.9443 7.07552C10.9446 7.07392 10.9449 7.07232 10.9452 7.07068C10.9454 7.06997 10.9455 7.06931 10.9456 7.06861C10.9529 7.02782 11.0056 6.72205 11.0348 6.26459C11.0577 6.26474 11.0809 6.26291 11.1043 6.25892C11.2873 6.22752 11.4717 6.18787 11.6529 6.14095C11.7226 6.12279 11.79 6.10627 11.846 6.09295C13.4574 6.6549 15.0511 8.46731 15.0511 11.3174C15.0511 12.1523 14.8357 13.1479 14.4283 14.1966C14.3501 14.3977 14.4498 14.624 14.6509 14.7022C14.6974 14.7202 14.7453 14.7288 14.7923 14.7288C14.9487 14.7288 15.0964 14.6341 15.1565 14.4795C15.5986 13.3415 15.8323 12.2481 15.8323 11.3174C15.8323 8.72125 14.6384 6.87369 13.1972 5.90682C13.5558 5.89936 13.8815 5.93318 14.1718 6.0083C15.8495 6.44279 17.6552 8.2895 17.6552 11.3174C17.6552 13.407 16.257 16.4482 14.5381 18.0968Z" fill="#121212"/>
        </g>
        <defs>
        <clipPath id="clip0_1534_12351">
        <rect width="20" height="20" fill="white"/>
        </clipPath>
        </defs>
    </symbol>
    <symbol width="20" height="20" viewBox="0 0 20 20" fill="none" xmlns="http://www.w3.org/2000/svg" id="Caret-down-black">
        <g clip-path="url(#clip0_1535_9258)">
        <path d="M16.25 7.5L10 13.75L3.75 7.5" stroke="#121212" stroke-width="1.5" stroke-linecap="round" stroke-linejoin="round"/>
        </g>
        <defs>
        <clipPath id="clip0_1535_9258">
        <rect width="20" height="20" fill="white"/>
        </clipPath>
        </defs>
    </symbol>
</svg>