<svg width="137" height="44" viewBox="0 0 137 44" fill="none" xmlns="http://www.w3.org/2000/svg">
<path d="M8.71106 44.0404C8.35906 44.0404 8.01506 44.0354 7.66606 44.0274C6.94241 44.018 6.22045 43.9551 5.50606 43.8394C4.83996 43.7252 4.19456 43.5126 3.59106 43.2084C2.99376 42.9067 2.44882 42.511 1.97706 42.0364C1.49843 41.5678 1.09982 41.0239 0.79706 40.4264C0.491575 39.8259 0.280111 39.1821 0.17006 38.5174C0.0513547 37.8033 -0.0128306 37.0812 -0.0219404 36.3574C-0.0289404 36.1134 -0.0389404 35.3044 -0.0389404 35.3044V8.6844C-0.0389404 8.6844 -0.0289404 7.8874 -0.0219404 7.6534C-0.0129404 6.9304 0.0510596 6.2094 0.16906 5.4954C0.279432 4.82876 0.491219 4.18294 0.79706 3.5804C1.41273 2.38039 2.39017 1.40436 3.59106 0.790402C4.19261 0.487912 4.83609 0.277241 5.50006 0.165402C6.21706 0.0484024 6.94206 -0.0145977 7.66806 -0.0245977L8.71106 -0.0375977H127.472L128.527 -0.0235977C129.246 -0.0145977 129.964 0.0474024 130.674 0.164402C131.345 0.277794 131.996 0.490456 132.605 0.795402C133.804 1.41065 134.78 2.38598 135.396 3.5844C135.697 4.1824 135.906 4.8234 136.015 5.4844C136.135 6.2034 136.202 6.9304 136.215 7.6594C136.219 7.9854 136.219 8.3364 136.219 8.6844C136.228 9.1174 136.228 9.5284 136.228 9.9434V34.0604C136.228 34.4804 136.228 34.8884 136.219 35.3004C136.219 35.6744 136.219 36.0184 136.214 36.3704C136.201 37.0874 136.135 37.8004 136.017 38.5074C135.909 39.177 135.699 39.826 135.393 40.4314C135.088 41.0221 134.692 41.561 134.219 42.0284C133.747 42.5053 133.201 42.9031 132.602 43.2064C131.995 43.5131 131.345 43.7269 130.674 43.8404C129.96 43.9564 129.238 44.0204 128.514 44.0284C128.176 44.0364 127.821 44.0404 127.477 44.0404L126.225 44.0434L8.71006 44.0404H8.71106Z" fill="black"/>
<path d="M27.8381 21.8724C27.8525 20.8715 28.1196 19.8905 28.6148 19.0205C29.1099 18.1505 29.8169 17.4198 30.6701 16.8964C30.1267 16.1223 29.4103 15.4855 28.5778 15.0368C27.7452 14.5881 26.8195 14.3397 25.8741 14.3114C23.8561 14.1004 21.9001 15.5154 20.8711 15.5154C19.8231 15.5154 18.2401 14.3324 16.5351 14.3674C15.4325 14.4026 14.3577 14.7223 13.4151 15.2954C12.4738 15.8678 11.6969 16.6743 11.1601 17.6364C8.83611 21.6484 10.5701 27.5464 12.7961 30.7894C13.9091 32.3774 15.2111 34.1524 16.9151 34.0894C18.5811 34.0194 19.2041 33.0294 21.2161 33.0294C23.2091 33.0294 23.7941 34.0894 25.5311 34.0494C27.3211 34.0194 28.4471 32.4534 29.5211 30.8504C30.3213 29.7191 30.9372 28.4683 31.3461 27.1444C30.3075 26.7065 29.4206 25.9727 28.7961 25.0344C28.1727 24.0975 27.8395 22.9976 27.8381 21.8724ZM24.5561 12.1784C25.5312 11.0122 26.0121 9.51109 25.8961 7.99536C24.407 8.15088 23.0308 8.8609 22.0411 9.98436C21.5582 10.5323 21.1882 11.1701 20.9522 11.8613C20.7163 12.5525 20.619 13.2835 20.6661 14.0124C21.4109 14.02 22.1477 13.8589 22.8213 13.5413C23.495 13.2237 24.0881 12.7577 24.5561 12.1784ZM47.8361 30.2274H42.3661L41.0531 34.0954H38.7361L43.9161 19.7854H46.3241L51.5051 34.0954H49.1501L47.8371 30.2274H47.8361ZM42.9331 28.4424H47.2691L45.1311 22.1654H45.0711L42.9331 28.4424ZM62.6951 28.8804C62.6951 32.1214 60.9551 34.2044 58.3291 34.2044C57.6646 34.2387 57.0037 34.0859 56.4218 33.7633C55.8398 33.4407 55.36 32.9612 55.0371 32.3794H54.9871V37.5474H52.8391V23.6624H54.9191V25.3974H54.9581C55.2947 24.8175 55.7822 24.3398 56.3688 24.015C56.9554 23.6903 57.619 23.5308 58.2891 23.5534C60.9441 23.5534 62.6951 25.6464 62.6951 28.8794V28.8804ZM60.4871 28.8804C60.4871 26.7674 59.3931 25.3784 57.7221 25.3784C56.0821 25.3784 54.9781 26.7964 54.9781 28.8794C54.9781 30.9814 56.0821 32.3894 57.7221 32.3894C59.3921 32.3894 60.4871 31.0114 60.4871 28.8794V28.8804ZM74.2101 28.8804C74.2101 32.1214 72.4701 34.2044 69.8441 34.2044C69.1796 34.2387 68.5187 34.0859 67.9368 33.7633C67.3548 33.4407 66.875 32.9612 66.5521 32.3794H66.5021V37.5474H64.3551V23.6624H66.4331V25.3974H66.4731C66.8097 24.8175 67.2972 24.3398 67.8838 24.015C68.4704 23.6903 69.134 23.5308 69.8041 23.5534C72.4601 23.5534 74.2101 25.6464 74.2101 28.8794V28.8804ZM72.0031 28.8804C72.0031 26.7674 70.9081 25.3784 69.2381 25.3784C67.5971 25.3784 66.4931 26.7964 66.4931 28.8794C66.4931 30.9814 67.5971 32.3894 69.2381 32.3894C70.9081 32.3894 72.0031 31.0114 72.0031 28.8794V28.8804ZM81.8201 30.1084C81.9801 31.5284 83.3621 32.4584 85.2511 32.4584C87.0611 32.4584 88.3641 31.5284 88.3641 30.2484C88.3641 29.1374 87.5781 28.4724 85.7191 28.0164L83.8591 27.5694C81.2241 26.9354 80.0001 25.7064 80.0001 23.7114C80.0001 21.2424 82.1581 19.5464 85.2201 19.5464C88.2541 19.5464 90.3331 21.2424 90.4031 23.7114H88.2351C88.1051 22.2834 86.9211 21.4214 85.1911 21.4214C83.4611 21.4214 82.2781 22.2934 82.2781 23.5634C82.2781 24.5754 83.0341 25.1704 84.8831 25.6264L86.4641 26.0134C89.4091 26.7074 90.6311 27.8864 90.6311 29.9804C90.6311 32.6574 88.4931 34.3344 85.0921 34.3344C81.9101 34.3344 79.7611 32.6964 79.6221 30.1084H81.8201ZM95.2681 21.1934V23.6624H97.2581V25.3584H95.2681V31.1104C95.2681 32.0034 95.6661 32.4204 96.5411 32.4204C96.7771 32.4154 97.0131 32.3994 97.2471 32.3704V34.0564C96.8541 34.1296 96.4548 34.1627 96.0551 34.1554C93.9361 34.1554 93.1101 33.3614 93.1101 31.3384V25.3584H91.5901V23.6624H93.1111V21.1924H95.2691L95.2681 21.1934ZM98.4091 28.8804C98.4091 25.5964 100.347 23.5344 103.371 23.5344C106.404 23.5344 108.334 25.5974 108.334 28.8794C108.334 32.1714 106.414 34.2254 103.371 34.2254C100.328 34.2254 98.4091 32.1714 98.4091 28.8794V28.8804ZM106.146 28.8804C106.146 26.6274 105.111 25.2984 103.371 25.2984C101.631 25.2984 100.596 26.6384 100.596 28.8794C100.596 31.1404 101.631 32.4594 103.371 32.4594C105.111 32.4594 106.146 31.1404 106.146 28.8794V28.8804ZM110.105 23.6624H112.153V25.4384H112.202C112.341 24.8828 112.667 24.392 113.126 24.0487C113.584 23.7054 114.147 23.5305 114.719 23.5534C114.967 23.5524 115.213 23.5794 115.455 23.6334V25.6364C115.143 25.541 114.817 25.4971 114.49 25.5064C114.178 25.4939 113.867 25.5488 113.579 25.6674C113.29 25.7859 113.03 25.9653 112.817 26.1934C112.605 26.4212 112.444 26.6925 112.347 26.9884C112.249 27.2843 112.217 27.5978 112.252 27.9074V34.0954H110.104L110.105 23.6624ZM125.357 31.0304C125.068 32.9254 123.218 34.2254 120.852 34.2254C117.808 34.2254 115.919 32.1914 115.919 28.9294C115.919 25.6564 117.818 23.5344 120.761 23.5344C123.656 23.5344 125.476 25.5174 125.476 28.6804V29.4144H118.087V29.5444C118.053 29.9289 118.101 30.3162 118.229 30.6806C118.356 31.045 118.56 31.378 118.826 31.6575C119.093 31.937 119.415 32.1566 119.773 32.3016C120.131 32.4466 120.515 32.5136 120.901 32.4984C121.408 32.5466 121.917 32.4299 122.353 32.1656C122.788 31.9013 123.127 31.5035 123.318 31.0314H125.357V31.0304ZM118.097 27.9174H123.328C123.357 27.3965 123.223 26.8796 122.944 26.4386C122.665 25.9977 122.256 25.6547 121.773 25.4574C121.452 25.3258 121.108 25.2618 120.761 25.2694C120.412 25.2675 120.065 25.3345 119.742 25.4666C119.418 25.5988 119.124 25.7934 118.876 26.0394C118.629 26.2854 118.432 26.5781 118.299 26.9004C118.165 27.2228 118.096 27.5684 118.097 27.9174ZM41.4081 11.9204H42.3301C42.4885 11.94 42.6493 11.9266 42.8023 11.8812C42.9554 11.8357 43.0974 11.7591 43.2194 11.6562C43.3415 11.5533 43.441 11.4263 43.5116 11.2832C43.5823 11.14 43.6226 10.9838 43.6301 10.8244C43.6301 10.1904 43.1511 9.78136 42.3401 9.78136C42.0954 9.74751 41.8462 9.78794 41.6247 9.89742C41.4033 10.0069 41.2198 10.1804 41.0981 10.3954C41.0181 10.5384 40.9671 10.6954 40.9481 10.8584H39.9361C39.9535 10.5627 40.0317 10.2739 40.1659 10.0099C40.3002 9.74595 40.4875 9.51255 40.7161 9.32436C40.9449 9.13559 41.21 8.99584 41.4951 8.91378C41.7801 8.83173 42.079 8.80912 42.3731 8.84736C43.7301 8.84736 44.6861 9.60536 44.6861 10.6964C44.6893 11.0624 44.5666 11.4184 44.3384 11.7046C44.1103 11.9908 43.7906 12.1899 43.4331 12.2684V12.3494C43.8581 12.3694 44.2571 12.5534 44.5441 12.8654C44.8321 13.1774 44.9841 13.5894 44.9671 14.0124C44.9201 14.4711 44.7358 14.9051 44.4385 15.2575C44.1411 15.61 43.7444 15.8647 43.3001 15.9884C43.0049 16.071 42.6963 16.0942 42.3921 16.0564C41.9333 16.1183 41.4665 16.0403 41.0528 15.8326C40.639 15.6249 40.2976 15.2972 40.0731 14.8924C39.9252 14.6236 39.833 14.3276 39.8021 14.0224H40.8301C40.8921 14.6794 41.4981 15.1044 42.3921 15.1044C43.2851 15.1044 43.8691 14.6274 43.8691 13.9554C43.8691 13.2744 43.3191 12.8554 42.3591 12.8554H41.4081V11.9214V11.9204ZM46.1351 14.4224C46.1351 13.4884 46.8331 12.9504 48.0701 12.8734L49.4801 12.7934V12.3444C49.4801 11.7964 49.1181 11.4874 48.4141 11.4874C47.8411 11.4874 47.4451 11.6974 47.3301 12.0644H46.3361C46.4411 11.1724 47.2831 10.6014 48.4631 10.6014C49.7671 10.6014 50.5031 11.2484 50.5031 12.3444V15.8904H49.5131V15.1604H49.4331C49.2679 15.4225 49.0361 15.6361 48.7613 15.7793C48.4865 15.9225 48.1786 15.9901 47.8691 15.9754C47.5404 16.0092 47.2093 15.9389 46.9227 15.7744C46.6362 15.6098 46.4086 15.3593 46.2721 15.0584C46.1821 14.8584 46.1361 14.6414 46.1351 14.4224ZM49.4801 13.9794V13.5454L48.2091 13.6264C47.4921 13.6744 47.1671 13.9174 47.1671 14.3744C47.1671 14.8414 47.5741 15.1144 48.1321 15.1144C48.3785 15.139 48.6265 15.0887 48.8438 14.97C49.0612 14.8514 49.2376 14.6699 49.3501 14.4494C49.4246 14.303 49.4688 14.1432 49.4801 13.9794ZM53.2301 11.5634V15.8904H52.2021V10.7004H55.6281V11.5634H53.2301ZM61.8521 13.2934C61.8521 14.9424 61.0161 15.9754 59.7021 15.9754C59.3801 15.9971 59.0585 15.9268 58.775 15.7725C58.4915 15.6183 58.2578 15.3865 58.1011 15.1044H58.0201V17.6144H56.9931V10.7014H57.9811V11.5584H58.0581C58.217 11.2658 58.4537 11.0228 58.7421 10.8564C59.0305 10.69 59.3593 10.6065 59.6921 10.6154C61.0161 10.6154 61.8521 11.6444 61.8521 13.2934ZM60.7961 13.2934C60.7961 12.1974 60.2761 11.5354 59.4061 11.5354C58.5411 11.5354 58.0011 12.2114 58.0011 13.2974C58.0011 14.3794 58.5411 15.0564 59.4011 15.0564C60.2761 15.0564 60.7961 14.3944 60.7961 13.2934ZM63.2201 17.7484V16.8674C63.3311 16.8814 63.4431 16.8874 63.5551 16.8864C63.7735 16.9022 63.99 16.8372 64.1636 16.7037C64.3371 16.5702 64.4554 16.3775 64.4961 16.1624L64.5731 15.9094L62.6901 10.7004H63.8081L65.1121 14.8214H65.1941L66.4941 10.7004H67.5831L65.6431 16.1034C65.1981 17.3664 64.7061 17.7714 63.6451 17.7714C63.5601 17.7714 63.3151 17.7614 63.2201 17.7474V17.7484ZM68.3831 14.4174H69.4051C69.5051 14.8754 69.9351 15.1134 70.5371 15.1134C71.2211 15.1134 71.6411 14.8134 71.6411 14.3464C71.6411 13.8464 71.2641 13.6064 70.5371 13.6064H69.7581V12.8114H70.5241C71.1441 12.8114 71.4601 12.5734 71.4601 12.1404C71.4601 11.7584 71.1551 11.4684 70.5241 11.4684C69.9491 11.4684 69.5291 11.7114 69.4631 12.1204H68.4731C68.5491 11.6497 68.806 11.2274 69.189 10.9434C69.5719 10.6595 70.0507 10.5364 70.5231 10.6004C71.7601 10.6004 72.4681 11.1584 72.4681 12.0354C72.474 12.2799 72.3955 12.519 72.2458 12.7124C72.0961 12.9059 71.8843 13.0418 71.6461 13.0974V13.1784C71.9294 13.2148 72.1895 13.3538 72.3773 13.569C72.565 13.7842 72.6674 14.0608 72.6651 14.3464C72.6651 15.3324 71.8231 15.9854 70.5371 15.9854C69.4011 15.9854 68.4771 15.4654 68.3831 14.4174ZM74.1441 15.8904V10.7004H75.1611V14.2704H75.2431L77.6411 10.7004H78.6591V15.8904H77.6401V12.3024H77.5631L75.1611 15.8904H74.1431H74.1441ZM84.2661 11.5634H82.6281V15.8904H81.6001V11.5634H79.9601V10.7004H84.2661V11.5624V11.5634ZM89.7991 14.4894C89.6589 14.9644 89.3561 15.375 88.9436 15.6492C88.5312 15.9235 88.0354 16.0439 87.5431 15.9894C87.0271 16.0028 86.5208 15.8472 86.1015 15.5462C85.6821 15.2453 85.3726 14.8155 85.2201 14.3224C85.12 13.9956 85.0923 13.6509 85.1391 13.3124C85.0933 12.9723 85.1214 12.6263 85.2215 12.2981C85.3216 11.9698 85.4913 11.667 85.7191 11.4104C85.9468 11.1529 86.2271 10.9474 86.5411 10.8076C86.8551 10.6679 87.1954 10.5972 87.5391 10.6004C88.9861 10.6004 89.8611 11.5874 89.8611 13.2164V13.5744H86.1861V13.6314C86.1611 13.9188 86.2278 14.2067 86.3765 14.4539C86.5253 14.7011 86.7485 14.8948 87.0141 15.0074C87.1901 15.0824 87.3801 15.1204 87.5721 15.1174C87.8173 15.1465 88.0656 15.1025 88.2857 14.9907C88.5059 14.879 88.688 14.7045 88.8091 14.4894H89.7991ZM86.1861 12.8164H88.8131C88.8263 12.6419 88.8028 12.4667 88.744 12.3019C88.6852 12.1371 88.5925 11.9865 88.4719 11.8598C88.3512 11.7332 88.2053 11.6332 88.0436 11.5665C87.8819 11.4997 87.708 11.4677 87.5331 11.4724C87.2659 11.469 87.0038 11.5461 86.7809 11.6935C86.558 11.841 86.3845 12.0521 86.2831 12.2994C86.2171 12.4634 86.1831 12.6394 86.1861 12.8164ZM94.1521 10.7004H96.5001C97.5171 10.7004 98.1151 11.2154 98.1151 12.0204C98.1169 12.2764 98.0303 12.5252 97.87 12.7248C97.7097 12.9245 97.4855 13.0628 97.2351 13.1164V13.1974C97.5385 13.2168 97.8229 13.3517 98.0299 13.5743C98.2369 13.7969 98.3508 14.0904 98.3481 14.3944C98.3481 15.2994 97.6651 15.8904 96.5231 15.8904H94.1531V10.7004H94.1521ZM95.1701 11.4874V12.8304H96.1881C96.8081 12.8304 97.1061 12.5924 97.1061 12.1534C97.1061 11.7494 96.8471 11.4874 96.3021 11.4874H95.1701ZM95.1701 13.5834V15.1034H96.3881C96.9951 15.1034 97.3201 14.8364 97.3201 14.3464C97.3201 13.8264 96.9521 13.5834 96.2601 13.5834H95.1701Z" fill="white"/>
</svg>
