<svg width="20" height="20" viewBox="0 0 20 20" fill="none" xmlns="http://www.w3.org/2000/svg">
<g clip-path="url(#clip0_1534_12344)">
<path d="M16.5777 5.88131C16.8049 6.04187 17.1197 5.98699 17.2802 5.75897C17.9208 4.84762 18.2744 3.92474 18.3026 3.09033C18.3364 2.07783 17.8968 1.22083 17.0308 0.612274C15.3679 -0.556903 13.251 -0.0166607 11.881 1.93231L2.55316 15.5265C2.53332 15.5553 2.51687 15.5859 2.50409 15.6171C2.00785 16.0797 1.69562 16.7366 1.69562 17.467C1.69562 18.8636 2.83191 20 4.22834 20C5.62493 20 6.76122 18.8637 6.76122 17.467C6.76122 16.0704 5.62493 14.9341 4.22834 14.9341C4.21259 14.9341 4.1975 14.9361 4.18175 14.9364L4.78842 14.0523C5.84685 14.7345 7.15961 15.1 8.5403 15.1C8.94807 15.1 9.36123 15.0681 9.77504 15.0045C11.6974 14.7073 13.3563 13.7444 14.3275 12.3632C15.2969 10.9841 15.5379 9.25535 15.0057 7.49584C14.5287 5.91916 13.4581 4.44967 12.0651 3.44752L12.7102 2.5076C13.5766 1.2748 15.0695 0.466215 16.4517 1.43747C17.0419 1.85224 17.3174 2.38187 17.2953 3.05647C17.274 3.69419 16.9835 4.4281 16.4555 5.17846C16.295 5.40679 16.3499 5.72145 16.5777 5.88131ZM4.22801 15.9428C5.06846 15.9428 5.75234 16.6266 5.75234 17.467C5.75234 18.3074 5.06846 18.9914 4.22801 18.9914C3.38757 18.9914 2.70385 18.3078 2.70385 17.467C2.70385 16.6269 3.38757 15.9428 4.22801 15.9428ZM14.0396 7.78796C14.4805 9.24435 14.2891 10.6633 13.5015 11.7834C12.6873 12.9417 11.273 13.752 9.62013 14.008C8.05791 14.2499 6.52194 13.9588 5.35972 13.2191L11.4936 4.27956C12.7011 5.1543 13.6276 6.42597 14.0396 7.78796Z" fill="#121212"/>
<path d="M13.032 14.9342C11.6354 14.9342 10.4988 16.0705 10.4988 17.4671C10.4988 18.8638 11.6354 20.0001 13.032 20.0001C14.4286 20.0001 15.5649 18.8638 15.5649 17.4671C15.5649 16.0705 14.4286 14.9342 13.032 14.9342ZM13.032 18.9914C12.1912 18.9914 11.5073 18.3079 11.5073 17.4671C11.5073 16.6267 12.1912 15.9429 13.032 15.9429C13.8724 15.9429 14.5563 16.6267 14.5563 17.4671C14.5563 18.3079 13.8724 18.9914 13.032 18.9914Z" fill="#121212"/>
</g>
<defs>
<clipPath id="clip0_1534_12344">
<rect width="20" height="20" fill="white"/>
</clipPath>
</defs>
</svg>
