<svg width="20" height="20" viewBox="0 0 20 20" fill="none" xmlns="http://www.w3.org/2000/svg">
<g clip-path="url(#clip0_1535_7987)">
<path d="M10 0C4.48602 0 0 4.48602 0 10C0 15.514 4.48602 20 10 20C15.514 20 20 15.514 20 10C20 4.48602 15.514 0 10 0ZM10 19.3333C4.85367 19.3333 0.66668 15.1463 0.66668 10C0.66668 4.85367 4.85367 0.66668 10 0.66668C15.1463 0.66668 19.3333 4.85367 19.3333 10C19.3333 15.1463 15.1463 19.3333 10 19.3333Z" fill="#121212"/>
<path d="M19.2687 13.006C17.7367 12.0477 16.6667 9.16671 16.6667 6.00003C16.6667 4.98105 16.7717 3.99304 16.979 3.06371C17.019 2.88406 16.9057 2.7057 16.726 2.6657C16.5457 2.62636 16.368 2.73902 16.328 2.91871C16.1104 3.8957 16 4.93238 16 6.00003C16 9.43804 17.1717 12.4807 18.9154 13.571C18.9704 13.6054 19.0314 13.6217 19.0917 13.6217C19.2027 13.6217 19.3113 13.5664 19.3747 13.4654C19.472 13.3094 19.4247 13.1034 19.2687 13.006Z" fill="#121212"/>
<path d="M7.51734 0.382637C7.44902 0.355645 7.37402 0.350958 7.30301 0.370958C3.00332 1.57299 0 5.53264 0 10C0 15.514 4.48602 20 10 20C11.6446 20 13.2767 19.591 14.7196 18.817C14.8073 18.77 14.8693 18.686 14.889 18.5887L14.996 18.0524L15.003 18.0087C15.1653 16.9887 15.3333 15.9343 15.3333 14.8333C15.3333 8.07132 12.1923 2.26397 7.51734 0.382637ZM14.3447 17.9037L14.2664 18.3024C12.9544 18.9774 11.4827 19.3334 10 19.3334C4.85367 19.3333 0.66668 15.1463 0.66668 10C0.66668 5.86831 3.41867 2.20198 7.37336 1.04397C11.7404 2.86998 14.6667 8.39198 14.6667 14.8333C14.6667 15.8817 14.503 16.9097 14.3447 17.9037Z" fill="#121212"/>
<path d="M19.3333 7.13805C9.575 7.06039 3.81965 10.3311 0.708317 13.1C0.570974 13.2224 0.558669 13.433 0.680974 13.5707C0.746638 13.6447 0.838317 13.6824 0.929958 13.6824C1.00863 13.6824 1.08797 13.6544 1.15129 13.598C4.17496 10.907 9.7873 7.7257 19.327 7.80472C19.3283 7.80472 19.3293 7.80472 19.3303 7.80472C19.5129 7.80472 19.662 7.65738 19.6636 7.47437C19.6653 7.29039 19.5173 7.13972 19.3333 7.13805Z" fill="#121212"/>
<path d="M3.03367 3.33328C2.93199 3.33328 2.83101 3.32894 2.73 3.32394C2.545 3.32062 2.39 3.45726 2.38132 3.64129C2.37234 3.82496 2.51433 3.98129 2.69832 3.98996C2.80964 3.99531 2.92132 3.99996 3.03367 3.99996C7.445 3.99996 11.0337 8.26164 11.0337 13.5C11.0337 15.8326 10.4673 17.8973 9.39601 19.4706C9.29234 19.623 9.33168 19.8303 9.48402 19.9339C9.54136 19.9729 9.60668 19.9916 9.67136 19.9916C9.77804 19.9916 9.88269 19.9406 9.94738 19.8459C11.0941 18.1613 11.7004 15.9669 11.7004 13.4999C11.7003 7.89394 7.81234 3.33328 3.03367 3.33328Z" fill="#121212"/>
</g>
<defs>
<clipPath id="clip0_1535_7987">
<rect width="20" height="20" fill="white"/>
</clipPath>
</defs>
</svg>
