<svg width="20" height="20" viewBox="0 0 20 20" fill="none" xmlns="http://www.w3.org/2000/svg">
<g clip-path="url(#clip0_5472_6355)">
<path d="M4.39083 8.125C4.38979 7.38376 4.53548 6.64964 4.81948 5.96496C5.10349 5.28028 5.52021 4.65859 6.0456 4.13571C6.571 3.61284 7.19469 3.19912 7.88073 2.91841C8.56677 2.6377 9.30158 2.49555 10.0428 2.50015C13.1357 2.52315 15.6097 5.09401 15.6097 8.19561V8.75C15.6097 11.5481 16.1951 13.1718 16.7107 14.0592C16.7663 14.1541 16.7958 14.2618 16.7964 14.3717C16.797 14.4816 16.7686 14.5897 16.7141 14.6851C16.6596 14.7806 16.5808 14.8599 16.4859 14.9152C16.3909 14.9705 16.283 14.9997 16.1731 15H3.82681C3.71691 14.9997 3.60902 14.9705 3.51403 14.9152C3.41905 14.8599 3.34032 14.7805 3.2858 14.6851C3.23128 14.5896 3.20289 14.4815 3.2035 14.3716C3.20411 14.2617 3.23369 14.1539 3.28926 14.0591C3.80514 13.1716 4.39082 11.548 4.39082 8.75L4.39083 8.125Z" stroke="#121212" stroke-width="1.5" stroke-linecap="round" stroke-linejoin="round"/>
<path d="M7.5 15V15.625C7.5 16.288 7.76339 16.9239 8.23223 17.3928C8.70107 17.8616 9.33696 18.125 10 18.125C10.663 18.125 11.2989 17.8616 11.7678 17.3928C12.2366 16.9239 12.5 16.288 12.5 15.625V15" stroke="#121212" stroke-width="1.5" stroke-linecap="round" stroke-linejoin="round"/>
</g>
<defs>
<clipPath id="clip0_5472_6355">
<rect width="20" height="20" fill="white"/>
</clipPath>
</defs>
</svg>
