<svg width="60" height="60" viewBox="0 0 60 60" fill="none" xmlns="http://www.w3.org/2000/svg">
<circle cx="30" cy="30" r="30" fill="#FFE7BA"/>
<path d="M22 27.3334C24.9555 27.3334 31.7451 30.1047 33.0667 31.8667C33.5432 32.5022 33.6422 33.2452 33.4379 33.9737L35.9041 33.5067L38.1746 33.0994L38.8403 32.9866L39.9598 32.8107L40.6115 32.7235L40.9553 32.6873C41.1089 32.6737 41.2351 32.6667 41.3333 32.6667C44.2873 32.6667 44.2873 35.5984 42.2761 37.6096C39.2922 40.5935 34.9866 43.3334 31.3333 43.3334C29.6082 43.3334 28.1926 43.0518 26.2438 42.4281L24.6378 41.8995L24.1977 41.7587L23.6521 41.5935L23.3504 41.5106L22.9665 41.4214L22.7419 41.3819L22.5312 41.3557L22.3243 41.3406L22.1116 41.3341L15.3333 41.3334C14.597 41.3334 14 40.7365 14 40.0001C14 39.3163 14.5147 38.7527 15.1778 38.6757L15.3333 38.6667L22.1644 38.6676L22.4592 38.6746L22.7372 38.6907L23.0092 38.7182L23.2857 38.7594L23.5776 38.8166L23.8956 38.892L24.2502 38.9879L24.6524 39.1067L25.368 39.3326L26.5883 39.7352C28.5531 40.3901 29.8134 40.6667 31.3333 40.6667C34.061 40.6667 37.8745 38.24 40.3905 35.7239C40.4829 35.6316 40.5643 35.5418 40.6351 35.4568L40.6787 35.4001L39.8217 35.5293L38.2875 35.7875L35.4124 36.3106L34.2347 36.5333L30.2615 37.3075L30.2329 37.3133C30.1951 37.3199 30.1572 37.325 30.1192 37.3283L30.2615 37.3075C30.1959 37.3206 30.1296 37.3288 30.0632 37.3319C30.031 37.3336 29.999 37.3339 29.967 37.3331C29.9453 37.3325 29.9232 37.3314 29.901 37.3297C29.8528 37.3262 29.8053 37.32 29.7583 37.3113C29.7539 37.3105 29.75 37.3098 29.746 37.309C29.6899 37.2981 29.6355 37.2839 29.582 37.2663L25.5784 35.9317C24.8798 35.6988 24.5022 34.9437 24.7351 34.2451C24.9513 33.5964 25.6178 33.2245 26.2713 33.3612L26.4216 33.4018L29.7594 34.5161C29.895 34.4048 30.0395 34.2787 30.1825 34.1424C30.4892 33.8503 30.7126 33.576 30.8181 33.3757L30.828 33.3507L30.7384 33.2661C30.2947 32.8828 29.3583 32.3743 28.2382 31.873L27.5466 31.5741C27.1923 31.4261 26.827 31.2812 26.4591 31.1429L25.7222 30.876C24.3741 30.4068 23.0656 30.0583 22.2082 30.0067L22 30.0001C20.1789 30.0001 17.939 31.28 16.2761 32.9429C15.7554 33.4636 14.9112 33.4636 14.3905 32.9429C13.8698 32.4222 13.8698 31.578 14.3905 31.0573C16.5054 28.9424 19.3211 27.3334 22 27.3334ZM40.6667 16.6667C42.0725 16.6667 43.2242 17.7546 43.326 19.1344L43.3333 19.3334V30.0001C43.3333 30.7365 42.7364 31.3334 42 31.3334C41.3162 31.3334 40.7527 30.8187 40.6756 30.1556L40.6667 30.0001V19.3334H37.3333V24.0001C37.3333 24.6839 36.8186 25.2474 36.1555 25.3244L36 25.3334H29.3333C28.597 25.3334 28 24.7365 28 24.0001V19.3334H24.6667V24.6667C24.6667 25.4031 24.0697 26.0001 23.3333 26.0001C22.6496 26.0001 22.086 25.4854 22.009 24.8222L22 24.6667V19.3334C22 17.9276 23.0878 16.7759 24.4676 16.6741L24.6667 16.6667H40.6667ZM34.6667 19.3334H30.6667V22.6667H34.6667V19.3334Z" fill="#873800"/>
<path d="M34.6666 19.3333H30.6666V22.6666H34.6666V19.3333Z" fill="#FA8C16"/>
</svg>
