<svg width="20" height="20" viewBox="0 0 20 20" fill="none" xmlns="http://www.w3.org/2000/svg">
<path d="M19.6123 4.01935C19.611 4.01935 19.6097 4.01935 19.6085 4.01935H18.2942V3.56965C18.3013 3.39166 18.1862 3.2317 18.0151 3.18198C17.1027 2.94288 16.1632 2.82299 15.22 2.82532C13.6693 2.82532 11.5565 3.17422 9.99419 4.76368C8.4435 3.15872 6.31518 2.82532 4.76837 2.82532C3.82516 2.82299 2.88564 2.94288 1.97325 3.18198C1.80219 3.2317 1.68705 3.39166 1.69413 3.56965V4.01547H0.387672C0.17358 4.01547 0 4.18905 0 4.40314V16.7854C0 16.9995 0.17358 17.1731 0.387672 17.1731C0.454255 17.1729 0.519674 17.1555 0.577631 17.1227C0.616399 17.1033 4.49312 14.9827 9.90502 16.3473H9.96317H9.99806C10.029 16.351 10.0602 16.351 10.0911 16.3473C15.5185 14.9711 19.3952 17.0878 19.4185 17.1227C19.5384 17.1919 19.6862 17.1919 19.8062 17.1227C19.9254 17.0538 19.9992 16.9269 20 16.7893V4.40702C20 4.19293 19.8265 4.01935 19.6123 4.01935ZM0.775344 16.169V4.79469H1.70188V14.5175C1.69946 14.7316 1.87105 14.9071 2.08514 14.9095C2.10608 14.9098 2.12701 14.9083 2.1477 14.9052C2.9497 14.7827 3.7594 14.7179 4.57065 14.7113C5.69442 14.6919 6.81348 14.8609 7.88137 15.2114C5.46981 14.9198 3.0237 15.2494 0.775344 16.169ZM4.57065 13.9399C3.86553 13.9415 3.16122 13.9868 2.46172 14.0756V3.87591C3.21651 3.70776 3.9873 3.62194 4.76061 3.62005C6.21051 3.62005 8.21089 3.95345 9.59876 5.51964L9.61039 15.1765C8.80403 14.6493 7.23008 13.9399 4.57065 13.9399ZM10.3857 5.51964C11.7736 3.96895 13.774 3.62005 15.2239 3.62005C15.9971 3.62233 16.7679 3.7081 17.5228 3.87591V14.0756C16.8272 13.986 16.1268 13.9393 15.4255 13.936C12.7815 13.936 11.2037 14.6454 10.3857 15.1727V5.51964ZM19.2208 16.169C16.9676 15.2469 14.5159 14.9172 12.0992 15.2114C13.1722 14.8596 14.2966 14.6906 15.4255 14.7113C16.2418 14.7159 17.0567 14.7794 17.8639 14.9013C18.0756 14.9334 18.2733 14.7879 18.3054 14.5762C18.3085 14.5555 18.31 14.5346 18.3097 14.5136V4.79469H19.2363L19.2208 16.169Z" fill="#121212"/>
</svg>
