<svg width="60" height="60" viewBox="0 0 60 60" fill="none" xmlns="http://www.w3.org/2000/svg">
<circle cx="30" cy="30" r="30" fill="#FFE7BA"/>
<path fill-rule="evenodd" clip-rule="evenodd" d="M15.4865 22.7127C15.623 22.4529 15.8338 22.2563 16.0796 22.136L29.4037 15.474C29.779 15.2863 30.2209 15.2863 30.5962 15.474L43.9194 22.1356C44.1656 22.2558 44.3768 22.4526 44.5134 22.7127C44.5241 22.7329 44.5342 22.7534 44.5438 22.7742C44.6314 22.9636 44.6707 23.1636 44.6666 23.36V36.6666C44.6666 37.1716 44.3813 37.6333 43.9296 37.8592L30.6196 44.5142C30.445 44.6059 30.2477 44.6601 30.0383 44.666C30.0255 44.6664 30.0127 44.6666 30 44.6666C29.9756 44.6666 29.9513 44.6659 29.927 44.6646C29.7304 44.654 29.5452 44.6009 29.3804 44.5142L16.0703 37.8592C15.6186 37.6333 15.3333 37.1716 15.3333 36.6666V23.3601C15.3292 23.1637 15.3685 22.9636 15.4561 22.7742C15.4657 22.7534 15.4759 22.7329 15.4865 22.7127ZM36.6669 21.4908L40.3519 23.3333L30 28.5092L26.315 26.6667L36.6669 21.4908ZM33.6855 20.0001L30 18.1573L19.6481 23.3333L23.3336 25.176L33.6855 20.0001ZM22.7087 27.845L18 25.4906V35.8425L28.6666 41.1758V30.824L22.7637 27.8725C22.7451 27.8637 22.7268 27.8546 22.7087 27.845ZM31.3333 41.1758V30.824L42 25.4906V35.8425L31.3333 41.1758Z" fill="#873800"/>
</svg>
