<svg width="60" height="60" viewBox="0 0 60 60" fill="none" xmlns="http://www.w3.org/2000/svg">
<circle cx="30" cy="30" r="30" fill="#FFE7BA"/>
<path fill-rule="evenodd" clip-rule="evenodd" d="M14.6666 18.0001C14.6666 17.2637 15.2636 16.6667 16 16.6667H18.3333C18.9451 16.6667 19.4784 17.0831 19.6268 17.6767L20.3743 20.6667H43.3333C43.7439 20.6667 44.1316 20.8559 44.3842 21.1795C44.6369 21.5032 44.7264 21.9251 44.6268 22.3235L41.2935 35.6568C41.1451 36.2504 40.6118 36.6667 40 36.6667H22.6666C22.0548 36.6667 21.5215 36.2504 21.3731 35.6568L17.2923 19.3334H16C15.2636 19.3334 14.6666 18.7365 14.6666 18.0001ZM22.6666 36.6667C20.8257 36.6667 19.3333 38.1591 19.3333 40.0001C19.3333 41.841 20.8257 43.3334 22.6666 43.3334C24.5076 43.3334 26 41.841 26 40.0001C26 38.1591 24.5076 36.6667 22.6666 36.6667ZM40 36.6667C38.159 36.6667 36.6666 38.1591 36.6666 40.0001C36.6666 41.841 38.159 43.3334 40 43.3334C41.8409 43.3334 43.3333 41.841 43.3333 40.0001C43.3333 38.1591 41.8409 36.6667 40 36.6667ZM21.041 23.3334L23.7077 34.0001H38.9589L41.6256 23.3334H21.041ZM31.3333 24.6667C32.0697 24.6667 32.6666 25.2637 32.6666 26.0001V27.3334H34C34.7363 27.3334 35.3333 27.9304 35.3333 28.6667C35.3333 29.4031 34.7363 30.0001 34 30.0001H32.6666V31.3334C32.6666 32.0698 32.0697 32.6667 31.3333 32.6667C30.5969 32.6667 30 32.0698 30 31.3334V30.0001H28.6666C27.9302 30.0001 27.3333 29.4031 27.3333 28.6667C27.3333 27.9304 27.9302 27.3334 28.6666 27.3334H30V26.0001C30 25.2637 30.5969 24.6667 31.3333 24.6667ZM22.6666 39.3334C22.2984 39.3334 22 39.6319 22 40.0001C22 40.3683 22.2984 40.6667 22.6666 40.6667C23.0348 40.6667 23.3333 40.3683 23.3333 40.0001C23.3333 39.6319 23.0348 39.3334 22.6666 39.3334ZM40 39.3334C39.6318 39.3334 39.3333 39.6319 39.3333 40.0001C39.3333 40.3683 39.6318 40.6667 40 40.6667C40.3681 40.6667 40.6666 40.3683 40.6666 40.0001C40.6666 39.6319 40.3681 39.3334 40 39.3334Z" fill="#873800"/>
<path fill-rule="evenodd" clip-rule="evenodd" d="M23.7077 33.9999L21.041 23.3333H41.6256L38.9589 33.9999H23.7077ZM31.3333 24.6666C32.0697 24.6666 32.6666 25.2635 32.6666 25.9999V27.3333H34C34.7364 27.3333 35.3333 27.9302 35.3333 28.6666C35.3333 29.403 34.7364 29.9999 34 29.9999H32.6666V31.3333C32.6666 32.0696 32.0697 32.6666 31.3333 32.6666C30.5969 32.6666 30 32.0696 30 31.3333V29.9999H28.6666C27.9303 29.9999 27.3333 29.403 27.3333 28.6666C27.3333 27.9302 27.9303 27.3333 28.6666 27.3333H30V25.9999C30 25.2635 30.5969 24.6666 31.3333 24.6666Z" fill="#FA8C16"/>
</svg>
