<svg width="20" height="20" viewBox="0 0 20 20" fill="none" xmlns="http://www.w3.org/2000/svg">
<mask id="mask0_1536_7351" style="mask-type:alpha" maskUnits="userSpaceOnUse" x="0" y="0" width="20" height="20">
<circle cx="10" cy="10" r="10" fill="#C4C4C4"/>
</mask>
<g mask="url(#mask0_1536_7351)">
<path d="M0 0H20V20H0V0Z" fill="#DE2910"/>
<path d="M5.4264 12.0005L7.31588 6.33203L9.20536 12.0005L4.16675 8.53645H10.465L5.4264 12.0005Z" fill="#FFDE00"/>
<path d="M13.6218 6.44073L11.6773 6.87165L12.9743 5.36019L12.8471 7.39441L11.768 5.59351L13.6218 6.44073Z" fill="#FFDE00"/>
<path d="M15.5843 8.92786L13.6249 8.57088L15.4066 7.68079L14.5004 9.50645L14.2042 7.428L15.5843 8.92786Z" fill="#FFDE00"/>
<path d="M15.2981 12.4171L13.6546 11.292L15.6444 11.206L14.0724 12.5033L14.6497 10.4848L15.2981 12.4171Z" fill="#FFDE00"/>
<path d="M12.8263 14.6966L11.7449 13.024L13.6135 13.7132L11.6625 14.3027L12.9746 12.6638L12.8263 14.6966Z" fill="#FFDE00"/>
</g>
</svg>
