<svg width="21" height="21" viewBox="0 0 21 21" fill="none" xmlns="http://www.w3.org/2000/svg">
<g clip-path="url(#clip0_1477_1419)">
<path d="M3.88787 14.1756C2.95604 12.6048 2.62971 10.7478 2.97015 8.95343C3.31058 7.15901 4.29437 5.5506 5.73678 4.43021C7.17918 3.30982 8.98098 2.75452 10.8038 2.86859C12.6267 2.98266 14.3452 3.75825 15.6367 5.04972C16.9282 6.34119 17.7038 8.0597 17.8178 9.88256C17.9319 11.7054 17.3766 13.5072 16.2562 14.9496C15.1359 16.392 13.5274 17.3758 11.733 17.7163C9.93863 18.0567 8.08165 17.7304 6.51082 16.7986L6.51084 16.7985L3.92048 17.5386C3.81331 17.5692 3.6999 17.5706 3.592 17.5427C3.4841 17.5147 3.38565 17.4584 3.30683 17.3796C3.22802 17.3008 3.17171 17.2023 3.14375 17.0944C3.1158 16.9865 3.1172 16.8731 3.14782 16.7659L3.88792 14.1756L3.88787 14.1756Z" stroke="#8C8C8C" stroke-linecap="round" stroke-linejoin="round"/>
<path d="M7.83875 9.09766H12.8387" stroke="#8C8C8C" stroke-linecap="round" stroke-linejoin="round"/>
<path d="M7.83875 11.5977H12.8387" stroke="#8C8C8C" stroke-linecap="round" stroke-linejoin="round"/>
</g>
<defs>
<clipPath id="clip0_1477_1419">
<rect width="20" height="20" fill="white" transform="translate(0.338745 0.347656)"/>
</clipPath>
</defs>
</svg>
