<svg width="20" height="20" viewBox="0 0 20 20" fill="none" xmlns="http://www.w3.org/2000/svg">
<g clip-path="url(#clip0_1535_8003)">
<path d="M5.38483 9.70309C4.8672 9.70309 4.36119 9.85659 3.9308 10.1442C3.5004 10.4318 3.16495 10.8405 2.96686 11.3187C2.76877 11.797 2.71694 12.3232 2.81793 12.8309C2.91891 13.3386 3.16818 13.8049 3.5342 14.1709C3.90022 14.5369 4.36656 14.7862 4.87424 14.8872C5.38192 14.9882 5.90815 14.9363 6.38638 14.7382C6.86461 14.5402 7.27336 14.2047 7.56094 13.7743C7.84852 13.3439 8.00202 12.8379 8.00202 12.3203C8.00123 11.6264 7.72524 10.9612 7.23459 10.4705C6.74394 9.97987 6.07871 9.70388 5.38483 9.70309ZM5.38483 14.3906C4.97536 14.3906 4.57508 14.2692 4.23462 14.0417C3.89416 13.8142 3.62881 13.4909 3.47211 13.1126C3.31541 12.7343 3.27441 12.318 3.3543 11.9164C3.43418 11.5148 3.63136 11.1459 3.9209 10.8564C4.21043 10.5668 4.57933 10.3696 4.98093 10.2897C5.38253 10.2099 5.7988 10.2509 6.1771 10.4076C6.5554 10.5643 6.87874 10.8296 7.10623 11.1701C7.33372 11.5105 7.45514 11.9108 7.45514 12.3203C7.45452 12.8692 7.2362 13.3954 6.84807 13.7835C6.45995 14.1717 5.93372 14.39 5.38483 14.3906Z" fill="#121212"/>
<path d="M18.0469 13.8672H14.3844L14.4134 13.5847V13.5811L14.7884 9.94046C14.7884 9.93957 14.7884 9.93868 14.7884 9.9378L15.0938 6.98108C15.0976 6.94303 15.0935 6.90459 15.0816 6.86823C15.0697 6.83188 15.0503 6.79842 15.0247 6.77002C14.9991 6.74161 14.9678 6.7189 14.9329 6.70334C14.8979 6.68778 14.8601 6.67972 14.8219 6.67967H9.85219C9.7143 6.35832 9.49979 6.07563 9.22741 5.85634C8.95503 5.63704 8.63307 5.48782 8.28969 5.42171V4.02342C8.28967 3.98747 8.28256 3.95187 8.26877 3.91866C8.25498 3.88546 8.23479 3.85529 8.20933 3.8299C8.18388 3.8045 8.15367 3.78438 8.12043 3.77066C8.08719 3.75695 8.05158 3.74992 8.01562 3.74999H6.12656V2.58796H7.67641C7.74893 2.58796 7.81848 2.55915 7.86976 2.50787C7.92104 2.45659 7.94984 2.38704 7.94984 2.31452C7.9504 1.98946 7.83044 1.67573 7.61317 1.43395C7.39589 1.19217 7.09671 1.03951 6.77344 1.00546L4.32406 0.743736C4.28592 0.739659 4.24735 0.743653 4.21085 0.755458C4.17435 0.767262 4.14075 0.786614 4.11222 0.812255C4.08369 0.837896 4.06087 0.869253 4.04526 0.904288C4.02964 0.939323 4.02156 0.977253 4.02156 1.01561V2.31452C4.0216 2.38703 4.05043 2.45655 4.1017 2.50782C4.15297 2.55909 4.22249 2.58791 4.295 2.58796H4.64219V3.74999H2.75469C2.68218 3.75003 2.61265 3.77885 2.56138 3.83012C2.51011 3.88139 2.48129 3.95092 2.48125 4.02342V5.42186C1.9921 5.51738 1.55128 5.77977 1.2341 6.16421C0.916917 6.54865 0.743047 7.03128 0.742188 7.52967V18.0469C0.74256 18.3679 0.87026 18.6757 1.09727 18.9027C1.32429 19.1297 1.63208 19.2574 1.95312 19.2578H8.81719C9.05721 19.258 9.29183 19.1865 9.49094 19.0525C9.50588 19.1111 9.53991 19.1631 9.58766 19.2003C9.63541 19.2375 9.69417 19.2577 9.75469 19.2578H18.9844C19.0569 19.2578 19.1264 19.2289 19.1777 19.1777C19.2289 19.1264 19.2578 19.0569 19.2578 18.9844V15.0781C19.2574 14.7571 19.1297 14.4493 18.9027 14.2223C18.6757 13.9952 18.3679 13.8675 18.0469 13.8672ZM18.7109 15.0781V15.1172H13.1641V15.0781C13.1643 14.9021 13.2343 14.7333 13.3588 14.6088C13.4833 14.4843 13.6521 14.4143 13.8281 14.4141H18.0469C18.2229 14.4143 18.3917 14.4843 18.5162 14.6088C18.6407 14.7333 18.7107 14.9021 18.7109 15.0781ZM13.8281 13.8672C13.5071 13.8675 13.1993 13.9952 12.9723 14.2223C12.7453 14.4493 12.6176 14.7571 12.6172 15.0781V16.6687H10.0014L9.70797 13.8266H13.8387L13.8345 13.8672H13.8281ZM9.33266 10.1859H14.2139L13.8952 13.2797H9.65156L9.60375 12.8169L9.33266 10.1859ZM14.2702 9.63905H9.27563L9.02672 7.22655H14.5187L14.2702 9.63905ZM4.56844 1.31983L6.71531 1.54921C6.85675 1.56414 6.99127 1.61803 7.1039 1.70487C7.21653 1.79171 7.30286 1.90809 7.35328 2.04108H5.85688H5.85312H5.84938H4.91937H4.91562H4.91188H4.56813L4.56844 1.31983ZM5.18906 2.58796H5.57969V3.74999H5.18906V2.58796ZM7.74219 4.29686V5.38124H3.02812V4.29686H7.74219ZM8.81719 18.7109H1.95312C1.77707 18.7107 1.60828 18.6407 1.48379 18.5162C1.3593 18.3917 1.28927 18.2229 1.28906 18.0469V7.52967C1.28952 7.10505 1.4584 6.69795 1.75865 6.3977C2.0589 6.09745 2.466 5.92857 2.89062 5.92811H7.87969C8.15119 5.92764 8.41834 5.9964 8.65587 6.12791C8.8934 6.25942 9.09348 6.44932 9.23719 6.67967H8.72344C8.68515 6.67967 8.64729 6.6877 8.61231 6.70325C8.57733 6.71881 8.546 6.74153 8.52036 6.76996C8.49471 6.79839 8.47533 6.83188 8.46345 6.86828C8.45157 6.90467 8.44747 6.94316 8.45141 6.98124L9.07156 12.988L9.13266 13.5817V13.5833L9.48125 16.9562V18.0469C9.48104 18.2229 9.41101 18.3917 9.28652 18.5162C9.16203 18.6407 8.99324 18.7107 8.81719 18.7109ZM10.0281 18.0469V17.2156H12.6172V18.7109H10.0281V18.0469ZM18.7109 18.7109H13.1641V15.6641H18.7109V18.7109Z" fill="#121212"/>
<path d="M15.9375 16.0286C15.4062 16.0286 14.9739 16.5486 14.9739 17.1875C14.9739 17.8264 15.4062 18.3464 15.9375 18.3464C16.4687 18.3464 16.9011 17.8264 16.9011 17.1875C16.9011 16.5486 16.4687 16.0286 15.9375 16.0286ZM15.9375 17.7995C15.7117 17.7995 15.5208 17.5192 15.5208 17.1875C15.5208 16.8558 15.7117 16.5755 15.9375 16.5755C16.1633 16.5755 16.3542 16.8558 16.3542 17.1875C16.3542 17.5192 16.1633 17.7995 15.9375 17.7995Z" fill="#121212"/>
</g>
<defs>
<clipPath id="clip0_1535_8003">
<rect width="20" height="20" fill="white"/>
</clipPath>
</defs>
</svg>
