<svg width="149" height="44" viewBox="0 0 149 44" fill="none" xmlns="http://www.w3.org/2000/svg">
<path d="M143 0.000488281H5.5C4.04131 0.000488281 2.64236 0.579951 1.61091 1.6114C0.579463 2.64285 0 4.0418 0 5.50049L0 38.5005C0 39.9592 0.579463 41.3581 1.61091 42.3896C2.64236 43.421 4.04131 44.0005 5.5 44.0005H143C144.459 44.0005 145.858 43.421 146.889 42.3896C147.921 41.3581 148.5 39.9592 148.5 38.5005V5.50049C148.5 4.0418 147.921 2.64285 146.889 1.6114C145.858 0.579951 144.459 0.000488281 143 0.000488281V0.000488281Z" fill="black"/>
<path d="M74.954 23.9255C74.0274 23.9277 73.1223 24.2046 72.3531 24.7211C71.5839 25.2377 70.9851 25.9707 70.6325 26.8276C70.2799 27.6844 70.1893 28.6266 70.3721 29.5349C70.5549 30.4433 71.003 31.277 71.6596 31.9307C72.3163 32.5844 73.152 33.0288 74.0612 33.2075C74.9703 33.3863 75.9121 33.2914 76.7673 32.935C77.6226 32.5785 78.3529 31.9765 78.866 31.2049C79.3791 30.4334 79.6519 29.5271 79.65 28.6005C79.6592 27.9822 79.5439 27.3683 79.3108 26.7955C79.0778 26.2227 78.7318 25.7026 78.2935 25.2664C77.8552 24.8301 77.3335 24.4866 76.7596 24.2562C76.1857 24.0258 75.5713 23.9134 74.953 23.9255H74.954ZM74.954 31.4385C74.3859 31.4783 73.819 31.3462 73.327 31.0595C72.835 30.7727 72.4407 30.3446 72.1952 29.8308C71.9497 29.317 71.8645 28.7412 71.9506 28.1783C72.0367 27.6154 72.2902 27.0914 72.678 26.6745C73.0659 26.2575 73.5702 25.9669 74.1254 25.8404C74.6806 25.7139 75.2611 25.7573 75.7913 25.965C76.3215 26.1727 76.7769 26.5352 77.0984 27.0052C77.4199 27.4752 77.5926 28.0311 77.594 28.6005C77.6116 28.9613 77.5568 29.322 77.4328 29.6612C77.3088 30.0005 77.1182 30.3116 76.8722 30.576C76.6262 30.8405 76.3297 31.0531 76.0003 31.2012C75.6708 31.3493 75.3151 31.43 74.954 31.4385ZM64.702 23.9255C63.7755 23.9279 62.8704 24.2049 62.1014 24.7216C61.3323 25.2383 60.7337 25.9714 60.3812 26.8283C60.0288 27.6851 59.9383 28.6273 60.1212 29.5355C60.3041 30.4438 60.7523 31.2775 61.409 31.9311C62.0657 32.5847 62.9014 33.0289 63.8105 33.2076C64.7197 33.3862 65.6613 33.2913 66.5165 32.9349C67.3717 32.5784 68.102 31.9763 68.6151 31.2048C69.1282 30.4333 69.4009 29.527 69.399 28.6005C69.4082 27.9822 69.2929 27.3683 69.0598 26.7955C68.8268 26.2227 68.4808 25.7026 68.0425 25.2664C67.6042 24.8301 67.0825 24.4866 66.5086 24.2562C65.9347 24.0258 65.3203 23.9134 64.702 23.9255ZM64.702 31.4385C64.1339 31.4783 63.567 31.3462 63.075 31.0595C62.583 30.7727 62.1887 30.3446 61.9432 29.8308C61.6977 29.317 61.6125 28.7412 61.6986 28.1783C61.7847 27.6154 62.0382 27.0914 62.426 26.6745C62.8139 26.2575 63.3182 25.9669 63.8734 25.8404C64.4286 25.7139 65.0091 25.7573 65.5393 25.965C66.0695 26.1727 66.5249 26.5352 66.8464 27.0052C67.1679 27.4752 67.3406 28.0311 67.342 28.6005C67.3596 28.9613 67.3048 29.322 67.1808 29.6612C67.0568 30.0005 66.8662 30.3116 66.6202 30.576C66.3742 30.8405 66.0777 31.0531 65.7483 31.2012C65.4188 31.3493 65.0631 31.43 64.702 31.4385ZM52.514 25.3665V27.3465H57.266C57.1915 28.2791 56.8038 29.1591 56.166 29.8435C55.6893 30.3292 55.116 30.7095 54.4831 30.9596C53.8502 31.2097 53.1719 31.3242 52.492 31.2955C51.0916 31.2955 49.7486 30.7392 48.7584 29.749C47.7683 28.7589 47.212 27.4159 47.212 26.0155C47.212 24.6152 47.7683 23.2722 48.7584 22.282C49.7486 21.2918 51.0916 20.7355 52.492 20.7355C53.8345 20.7156 55.1308 21.2254 56.1 22.1545L57.497 20.7575C56.8414 20.1091 56.0629 19.598 55.2073 19.2542C54.3516 18.9105 53.436 18.7409 52.514 18.7555C51.534 18.7141 50.5558 18.8713 49.6381 19.2177C48.7205 19.5641 47.8824 20.0926 47.1743 20.7714C46.4663 21.4501 45.9028 22.2651 45.5179 23.1673C45.133 24.0695 44.9346 25.0402 44.9346 26.021C44.9346 27.0019 45.133 27.9726 45.5179 28.8748C45.9028 29.7769 46.4663 30.5919 47.1743 31.2707C47.8824 31.9494 48.7205 32.4779 49.6381 32.8243C50.5558 33.1708 51.534 33.328 52.514 33.2865C53.4548 33.324 54.3928 33.162 55.2666 32.8113C56.1404 32.4606 56.9301 31.929 57.584 31.2515C58.7395 29.9827 59.3553 28.3138 59.301 26.5985C59.3046 26.1857 59.2711 25.7734 59.201 25.3665H52.514ZM102.355 26.9065C102.068 26.0627 101.531 25.3259 100.816 24.7936C100.101 24.2613 99.2417 23.9586 98.351 23.9255C97.7493 23.9243 97.1537 24.0466 96.6011 24.2847C96.0485 24.5228 95.5507 24.8718 95.1383 25.3099C94.7259 25.7481 94.4078 26.2662 94.2035 26.8321C93.9993 27.3981 93.9134 28 93.951 28.6005C93.9416 29.6047 94.2573 30.5849 94.8509 31.3948C95.4445 32.2047 96.2843 32.8009 97.2447 33.0942C98.205 33.3875 99.2346 33.3622 100.179 33.0222C101.124 32.6822 101.934 32.0456 102.487 31.2075L100.892 30.1075C100.654 30.504 100.317 30.8315 99.9133 31.0572C99.5098 31.283 99.0543 31.3993 98.592 31.3945C98.1153 31.4141 97.6439 31.2891 97.2397 31.0359C96.8354 30.7826 96.5173 30.413 96.327 29.9755L102.586 27.3905L102.355 26.9065ZM95.975 28.4685C95.9527 28.1268 95.9988 27.7841 96.1106 27.4605C96.2224 27.1369 96.3976 26.8388 96.6261 26.5837C96.8545 26.3286 97.1315 26.1217 97.4409 25.975C97.7503 25.8284 98.0859 25.7449 98.428 25.7295C98.7824 25.7079 99.1353 25.7913 99.4425 25.9694C99.7497 26.1475 99.9976 26.4122 100.155 26.7305L95.975 28.4685ZM90.893 33.0005H92.95V19.2505H90.893V33.0005ZM87.527 24.9705H87.45C87.1376 24.6306 86.7562 24.3614 86.3311 24.1812C85.9061 24.0009 85.4475 23.9137 84.986 23.9255C83.7839 23.9838 82.6503 24.5024 81.8201 25.3738C80.99 26.2451 80.5269 27.4025 80.5269 28.606C80.5269 29.8095 80.99 30.9669 81.8201 31.8383C82.6503 32.7097 83.7839 33.2282 84.986 33.2865C85.4523 33.2959 85.915 33.2021 86.3409 33.012C86.7669 32.8218 87.1456 32.54 87.45 32.1865H87.527V32.8575C87.527 34.6505 86.57 35.6075 85.03 35.6075C84.5155 35.5962 84.0161 35.4323 83.595 35.1366C83.1739 34.8408 82.8502 34.4266 82.665 33.9465L80.883 34.6835C81.2124 35.511 81.7853 36.219 82.5257 36.714C83.2662 37.2089 84.1394 37.4675 85.03 37.4555C87.439 37.4555 89.43 36.0365 89.43 32.5825V24.2005H87.527V24.9705ZM85.162 31.4385C84.4384 31.3977 83.7578 31.0815 83.2599 30.5548C82.7621 30.0281 82.4847 29.3308 82.4847 28.606C82.4847 27.8813 82.7621 27.184 83.2599 26.6573C83.7578 26.1305 84.4384 25.8143 85.162 25.7735C85.5142 25.7887 85.8598 25.8746 86.1782 26.0261C86.4966 26.1776 86.7813 26.3916 87.0153 26.6554C87.2492 26.9191 87.4278 27.2272 87.5403 27.5614C87.6527 27.8956 87.6968 28.249 87.67 28.6005C87.7 28.9533 87.6581 29.3085 87.547 29.6446C87.4358 29.9807 87.2576 30.2908 87.0231 30.5561C86.7887 30.8214 86.5029 31.0364 86.183 31.188C85.8631 31.3397 85.5157 31.4249 85.162 31.4385ZM111.99 19.2505H107.062V33.0005H109.119V27.7865H111.99C112.575 27.8266 113.162 27.746 113.715 27.5496C114.267 27.3533 114.774 27.0454 115.202 26.6452C115.631 26.2449 115.972 25.7608 116.206 25.223C116.44 24.6851 116.56 24.1049 116.56 23.5185C116.56 22.9321 116.44 22.3519 116.206 21.8141C115.972 21.2762 115.631 20.7921 115.202 20.3919C114.774 19.9916 114.267 19.6838 113.715 19.4874C113.162 19.2911 112.575 19.2105 111.99 19.2505ZM111.99 25.8505H109.119V21.1645H112.034C112.5 21.1638 112.955 21.3014 113.343 21.5599C113.73 21.8184 114.033 22.1862 114.211 22.6166C114.389 23.047 114.435 23.5206 114.344 23.9775C114.253 24.4343 114.028 24.8537 113.698 25.1825C113.257 25.6245 112.658 25.8725 112.034 25.8725L111.99 25.8505ZM124.684 23.8815C123.935 23.8356 123.189 24.0101 122.538 24.3835C121.887 24.7569 121.36 25.3128 121.021 25.9825L122.836 26.7415C123.019 26.4105 123.294 26.1398 123.628 25.9621C123.962 25.7844 124.34 25.7074 124.717 25.7405C124.978 25.7097 125.243 25.7314 125.496 25.8041C125.748 25.8768 125.984 25.9992 126.189 26.1641C126.394 26.329 126.564 26.5331 126.689 26.7645C126.814 26.9958 126.891 27.2498 126.917 27.5115V27.6435C126.255 27.2959 125.519 27.1147 124.772 27.1155C122.814 27.1155 120.812 28.2155 120.812 30.2175C120.831 30.6432 120.935 31.0606 121.119 31.445C121.303 31.8293 121.562 32.1727 121.882 32.4545C122.201 32.7369 122.573 32.9521 122.977 33.0875C123.381 33.2229 123.808 33.2756 124.233 33.2425C124.749 33.2714 125.264 33.1623 125.724 32.9264C126.184 32.6906 126.573 32.3365 126.851 31.9005H126.917V33.0005H128.897V27.7095C128.897 25.3005 127.071 23.9035 124.728 23.9035L124.684 23.8815ZM124.431 31.4165C123.76 31.4165 122.825 31.0755 122.825 30.2505C122.825 29.1505 123.991 28.7765 125.025 28.7765C125.678 28.7605 126.324 28.92 126.895 29.2385C126.826 29.8359 126.543 30.388 126.098 30.7925C125.653 31.197 125.076 31.4265 124.475 31.4385L124.431 31.4165ZM136.113 24.2005L133.759 30.1625H133.693L131.251 24.2005H129.051L132.714 32.5385L130.624 37.1695H132.824L138.401 24.2005H136.113ZM117.633 33.0005H119.679V19.2505H117.633V33.0005Z" fill="white"/>
<path d="M11.484 8.29453C11.1333 8.72799 10.9603 9.27841 11 9.83453V34.1665C10.9625 34.7279 11.1483 35.2814 11.517 35.7065L11.594 35.7945L25.19 22.1655V21.8355L11.561 8.21753L11.484 8.29453Z" fill="url(#paint0_linear_1477_609)"/>
<path d="M29.6999 26.7085L25.1899 22.1655V21.8355L29.6999 17.2925L29.7989 17.3585L35.1989 20.4165C36.7389 21.2855 36.7389 22.7155 35.1989 23.5955L29.8209 26.6535L29.6999 26.7085Z" fill="url(#paint1_linear_1477_609)"/>
<path d="M29.832 26.6425L25.19 22.0005L11.484 35.7065C11.7948 35.9832 12.1927 36.1423 12.6086 36.1564C13.0245 36.1705 13.4322 36.0385 13.761 35.7835L29.831 26.6425" fill="url(#paint2_linear_1477_609)"/>
<path d="M29.832 17.3586L13.76 8.2286C13.4334 7.97001 13.026 7.83486 12.6095 7.84694C12.1931 7.85901 11.7942 8.01752 11.483 8.2946L25.19 22.0006L29.832 17.3586Z" fill="url(#paint3_linear_1477_609)"/>
<path opacity="0.2" d="M29.7 26.5435L13.76 35.6185C13.4431 35.8576 13.057 35.987 12.66 35.987C12.263 35.987 11.8769 35.8576 11.56 35.6185L11.484 35.6955L11.561 35.7835C11.8779 36.0226 12.264 36.152 12.661 36.152C13.058 36.152 13.4441 36.0226 13.761 35.7835L29.831 26.6425L29.7 26.5435Z" fill="black"/>
<path opacity="0.12" d="M11.484 35.5525C11.1306 35.1162 10.9575 34.5613 11 34.0015V34.1665C10.9624 34.7279 11.1482 35.2814 11.517 35.7065L11.594 35.6295L11.484 35.5525ZM35.2 23.4305L29.7 26.5435L29.8 26.6425L35.2 23.5845C35.5188 23.4497 35.7953 23.2314 36.0005 22.9526C36.2057 22.6739 36.332 22.345 36.366 22.0005C36.2972 22.3135 36.1558 22.606 35.9533 22.8544C35.7508 23.1028 35.4927 23.3001 35.2 23.4305Z" fill="black"/>
<path opacity="0.25" d="M13.761 8.38237L35.2 20.5704C35.4927 20.7008 35.7507 20.8982 35.9533 21.1465C36.1558 21.3949 36.2972 21.6874 36.366 22.0004C36.332 21.6559 36.2058 21.327 36.0006 21.0482C35.7954 20.7694 35.5188 20.5512 35.2 20.4164L13.761 8.22837C12.232 7.34837 11 8.07437 11 9.83437V10.0004C11 8.24037 12.232 7.51437 13.761 8.38337V8.38237Z" fill="white"/>
<path d="M46.3199 15.6976H45.5179V13.4976H46.1999C46.5068 13.1644 46.7375 12.7686 46.8762 12.3374C47.0149 11.9063 47.0581 11.4501 47.0029 11.0006V7.70057H51.4029V13.4866H52.1399V15.6866H51.3259V14.3006H46.3199V15.6976ZM47.8499 11.0006C47.899 11.8842 47.6805 12.7621 47.2229 13.5196H50.5229V8.51457H47.8499V11.0006ZM58.7509 13.4426C58.4332 13.7604 58.0559 14.0125 57.6407 14.1846C57.2254 14.3566 56.7804 14.4451 56.3309 14.4451C55.8815 14.4451 55.4364 14.3566 55.0212 14.1846C54.606 14.0125 54.2287 13.7604 53.9109 13.4426C53.5951 13.1205 53.3468 12.7386 53.1806 12.3192C53.0143 11.8999 52.9335 11.4516 52.9429 11.0006C52.932 10.5503 53.0111 10.1025 53.1754 9.68314C53.3397 9.26383 53.586 8.88151 53.8999 8.55857C54.2176 8.24048 54.5948 7.98814 55.0101 7.81597C55.4253 7.6438 55.8704 7.55518 56.3199 7.55518C56.7695 7.55518 57.2146 7.6438 57.6298 7.81597C58.0451 7.98814 58.4223 8.24048 58.7399 8.55857C59.0597 8.87885 59.312 9.25995 59.4821 9.67938C59.6521 10.0988 59.7364 10.548 59.7299 11.0006C59.7431 11.453 59.663 11.9033 59.4946 12.3234C59.3261 12.7436 59.073 13.1245 58.7509 13.4426ZM54.5379 12.8926C54.7697 13.1333 55.0484 13.3239 55.3569 13.4525C55.6653 13.5812 55.9968 13.6452 56.3309 13.6406C56.6654 13.6472 56.9975 13.5841 57.3062 13.4553C57.6149 13.3265 57.8934 13.1349 58.1239 12.8926C58.3697 12.6444 58.5619 12.3485 58.6887 12.023C58.8155 11.6976 58.8741 11.3496 58.8609 11.0006C58.8742 10.6515 58.8157 10.3035 58.6889 9.97805C58.5621 9.65259 58.3698 9.35664 58.1239 9.10857C57.8933 8.86629 57.6148 8.67467 57.3062 8.54589C56.9975 8.41711 56.6654 8.354 56.3309 8.36057C55.9968 8.35593 55.6653 8.41992 55.3569 8.54859C55.0484 8.67725 54.7697 8.86784 54.5379 9.10857C54.2957 9.35877 54.1066 9.65534 53.9818 9.98046C53.8571 10.3056 53.7993 10.6526 53.8119 11.0006C53.7993 11.3486 53.8571 11.6956 53.9818 12.0207C54.1066 12.3458 54.2957 12.6424 54.5379 12.8926ZM63.9979 14.4436C63.5438 14.4529 63.0924 14.3701 62.6711 14.2002C62.2498 14.0304 61.8672 13.7769 61.5465 13.4552C61.2258 13.1334 60.9736 12.7501 60.805 12.3282C60.6365 11.9063 60.5552 11.4547 60.5659 11.0006C60.5569 10.5405 60.6442 10.0835 60.8223 9.65919C61.0004 9.23484 61.2653 8.85244 61.5999 8.53657C61.9181 8.21464 62.2991 7.9616 62.7192 7.79318C63.1393 7.62476 63.5895 7.54456 64.0419 7.55757C64.5024 7.54454 64.9598 7.63686 65.3792 7.8275C65.7986 8.01813 66.169 8.30204 66.4619 8.65757L65.8789 9.22957C65.6628 8.95173 65.3832 8.72979 65.0636 8.58241C64.7439 8.43503 64.3936 8.36649 64.0419 8.38257C63.7033 8.37393 63.3666 8.43488 63.0525 8.56165C62.7384 8.68842 62.4537 8.87831 62.2159 9.11957C61.9633 9.3624 61.7636 9.65485 61.6294 9.97855C61.4951 10.3022 61.4293 10.6502 61.4359 11.0006C61.4135 11.5226 61.5525 12.0388 61.834 12.4789C62.1155 12.9191 62.5257 13.2619 63.0089 13.4606C63.3229 13.5886 63.6589 13.6496 63.9989 13.6406C64.3825 13.6388 64.7608 13.5521 65.1068 13.3866C65.4528 13.2212 65.7579 12.981 65.9999 12.6836L66.5939 13.2666C66.2926 13.6277 65.9176 13.9202 65.4939 14.1246C65.0259 14.3436 64.5139 14.4526 63.9979 14.4436ZM70.0489 14.3006H69.1999V8.51457H67.3529V7.70057H71.8839V8.51457H70.0469V14.3006H70.0489ZM77.7149 7.70057L75.2179 13.2666C75.1572 13.4896 75.0488 13.6968 74.9001 13.8739C74.7514 14.0509 74.5661 14.1935 74.3568 14.2919C74.1476 14.3902 73.9195 14.4419 73.6884 14.4434C73.4572 14.4449 73.2284 14.3962 73.0179 14.3006L73.2379 13.5196C73.3726 13.5952 73.5236 13.6367 73.6779 13.6406C73.8407 13.6487 74.0021 13.6065 74.1399 13.5196C74.2739 13.4086 74.3759 13.2646 74.4369 13.1016L74.6789 12.5736L72.4569 7.70057H73.4579L75.0859 11.4846L76.7139 7.70057H77.7149ZM78.6719 14.3006V7.70057H83.4459V14.3006H82.5989V8.51457H79.5189V14.3006H78.6719ZM84.9529 14.3006V7.70057H85.7999V10.5276H89.0999V7.70057H89.9579V14.3006H89.0999V11.3196H85.7999V14.3006H84.9529ZM96.8659 13.4426C96.4676 13.8411 95.9769 14.135 95.4376 14.2982C94.8982 14.4614 94.3269 14.4888 93.7745 14.378C93.222 14.2671 92.7054 14.0215 92.2708 13.6629C91.8361 13.3043 91.4968 12.8439 91.2829 12.3226C91.1145 11.9027 91.0342 11.4528 91.0469 11.0006C91.0341 10.5481 91.1144 10.0978 91.283 9.67766C91.4516 9.25756 91.7048 8.87663 92.0269 8.55857C92.3437 8.24109 92.72 7.98921 93.1342 7.81735C93.5484 7.64549 93.9925 7.55703 94.4409 7.55703C94.8894 7.55703 95.3335 7.64549 95.7477 7.81735C96.1619 7.98921 96.5382 8.24109 96.8549 8.55857C97.1771 8.87663 97.4303 9.25756 97.5989 9.67766C97.7675 10.0978 97.8478 10.5481 97.8349 11.0006C97.8492 11.4523 97.7706 11.9021 97.6039 12.3222C97.4373 12.7422 97.1861 13.1236 96.8659 13.4426ZM92.6529 12.8926C92.8834 13.135 93.1619 13.3267 93.4706 13.4555C93.7793 13.5843 94.1115 13.6473 94.4459 13.6406C94.7801 13.6453 95.1117 13.5814 95.4201 13.4527C95.7285 13.324 96.0072 13.1334 96.2389 12.8926C96.4811 12.6423 96.6702 12.3458 96.795 12.0206C96.9197 11.6955 96.9775 11.3486 96.9649 11.0006C96.9776 10.6526 96.9198 10.3056 96.7951 9.98046C96.6703 9.65534 96.4812 9.35877 96.2389 9.10857C96.0072 8.86784 95.7284 8.67725 95.42 8.54859C95.1116 8.41992 94.7801 8.35593 94.4459 8.36057C94.1115 8.354 93.7794 8.41711 93.4707 8.54589C93.162 8.67467 92.8835 8.86629 92.6529 9.10857C92.4072 9.35671 92.2149 9.65267 92.0882 9.97811C91.9614 10.3036 91.9028 10.6516 91.9159 11.0006C91.9027 11.3496 91.9612 11.6976 92.088 12.0231C92.2148 12.3485 92.4071 12.6445 92.6529 12.8926ZM101.299 14.3006V7.70057H103.686C104.181 7.6956 104.66 7.87612 105.028 8.20657C105.212 8.36604 105.358 8.56399 105.457 8.7864C105.556 9.00881 105.605 9.25023 105.6 9.49357C105.602 9.78957 105.518 10.0806 105.358 10.3296C105.196 10.5659 104.971 10.7528 104.709 10.8696C105.025 10.9746 105.301 11.1736 105.501 11.4406C105.711 11.7066 105.823 12.0366 105.82 12.3756C105.825 12.6291 105.775 12.8807 105.672 13.1126C105.569 13.3445 105.417 13.551 105.226 13.7176C104.844 14.0731 104.339 14.2667 103.818 14.2576L101.299 14.3006ZM102.146 10.5276H103.686C103.83 10.5361 103.974 10.5118 104.108 10.4565C104.241 10.4012 104.36 10.3165 104.456 10.2086C104.642 10.0255 104.749 9.77661 104.753 9.51557C104.763 9.25357 104.673 8.99757 104.5 8.80057C104.407 8.69848 104.293 8.61799 104.166 8.56477C104.038 8.51156 103.901 8.48691 103.763 8.49257H102.146V10.5276ZM102.146 13.4876H103.851C104.002 13.4937 104.152 13.4662 104.291 13.4071C104.43 13.3479 104.554 13.2586 104.654 13.1456C104.844 12.9427 104.95 12.6755 104.951 12.3976C104.946 12.1831 104.878 11.9747 104.757 11.798C104.635 11.6212 104.465 11.4838 104.266 11.4026C104.124 11.3438 103.971 11.3155 103.818 11.3196H102.146V13.4866V13.4876Z" fill="white" stroke="white" stroke-width="0.2" stroke-miterlimit="10"/>
<defs>
<linearGradient id="paint0_linear_1477_609" x1="23.98" y1="9.58153" x2="5.52195" y2="28.0395" gradientUnits="userSpaceOnUse">
<stop stop-color="#00A0FF"/>
<stop offset="0.01" stop-color="#00A1FF"/>
<stop offset="0.26" stop-color="#00BEFF"/>
<stop offset="0.51" stop-color="#00D2FF"/>
<stop offset="0.76" stop-color="#00DFFF"/>
<stop offset="1" stop-color="#00E3FF"/>
</linearGradient>
<linearGradient id="paint1_linear_1477_609" x1="37.2129" y1="22.0005" x2="10.6039" y2="22.0005" gradientUnits="userSpaceOnUse">
<stop stop-color="#FFE000"/>
<stop offset="0.41" stop-color="#FFBD00"/>
<stop offset="0.78" stop-color="#FFA500"/>
<stop offset="1" stop-color="#FF9C00"/>
</linearGradient>
<linearGradient id="paint2_linear_1477_609" x1="27.313" y1="24.5305" x2="2.27701" y2="49.5555" gradientUnits="userSpaceOnUse">
<stop stop-color="#FF3A44"/>
<stop offset="1" stop-color="#C31162"/>
</linearGradient>
<linearGradient id="paint3_linear_1477_609" x1="8.03003" y1="0.198601" x2="19.206" y2="11.3746" gradientUnits="userSpaceOnUse">
<stop stop-color="#32A071"/>
<stop offset="0.07" stop-color="#2DA771"/>
<stop offset="0.48" stop-color="#15CF74"/>
<stop offset="0.8" stop-color="#06E775"/>
<stop offset="1" stop-color="#00F076"/>
</linearGradient>
</defs>
</svg>
