<svg width="34" height="34" viewBox="0 0 34 34" fill="none" xmlns="http://www.w3.org/2000/svg">
<path fill-rule="evenodd" clip-rule="evenodd" d="M0.889038 17C0.889038 8.16344 8.05248 1 16.889 1C25.7256 1 32.889 8.16344 32.889 17C32.889 25.8366 25.7256 33 16.889 33C8.05248 33 0.889038 25.8366 0.889038 17Z" fill="white" stroke="#F9FAFB"/>
<mask id="mask0_3997_13545" style="mask-type:luminance" maskUnits="userSpaceOnUse" x="0" y="0" width="34" height="34">
<path fill-rule="evenodd" clip-rule="evenodd" d="M0.889038 17C0.889038 8.16344 8.05248 1 16.889 1C25.7256 1 32.889 8.16344 32.889 17C32.889 25.8366 25.7256 33 16.889 33C8.05248 33 0.889038 25.8366 0.889038 17Z" fill="white" stroke="white"/>
</mask>
<g mask="url(#mask0_3997_13545)">
<path fill-rule="evenodd" clip-rule="evenodd" d="M16.8897 8.46655C14.5722 8.46655 14.2813 8.47669 13.3711 8.51811C12.4627 8.55971 11.8426 8.70353 11.3 8.91456C10.7387 9.13252 10.2626 9.42407 9.78832 9.89857C9.31365 10.3729 9.02209 10.849 8.80342 11.41C8.59186 11.9528 8.44786 12.5731 8.40697 13.4812C8.36626 14.3914 8.35559 14.6824 8.35559 17C8.35559 19.3175 8.3659 19.6075 8.40715 20.5177C8.44893 21.4262 8.59275 22.0462 8.8036 22.5888C9.02173 23.1501 9.31329 23.6262 9.78778 24.1005C10.2619 24.5752 10.738 24.8674 11.2989 25.0854C11.8418 25.2964 12.4621 25.4402 13.3704 25.4818C14.2806 25.5233 14.5713 25.5334 16.8887 25.5334C19.2064 25.5334 19.4963 25.5233 20.4066 25.4818C21.315 25.4402 21.9358 25.2964 22.4788 25.0854C23.0398 24.8674 23.5152 24.5752 23.9894 24.1005C24.464 23.6262 24.7556 23.1501 24.9743 22.589C25.184 22.0462 25.328 21.426 25.3707 20.5179C25.4116 19.6076 25.4223 19.3175 25.4223 17C25.4223 14.6824 25.4116 14.3916 25.3707 13.4814C25.328 12.5729 25.184 11.9528 24.9743 11.4102C24.7556 10.849 24.464 10.3729 23.9894 9.89857C23.5147 9.4239 23.04 9.13234 22.4782 8.91456C21.9342 8.70353 21.3138 8.55971 20.4053 8.51811C19.4951 8.47669 19.2053 8.46655 16.8871 8.46655H16.8897ZM16.1241 10.0044C16.3513 10.0041 16.6048 10.0044 16.8896 10.0044C19.1681 10.0044 19.4381 10.0126 20.3378 10.0535C21.1699 10.0915 21.6214 10.2305 21.9222 10.3473C22.3204 10.502 22.6044 10.6869 22.9028 10.9856C23.2015 11.2842 23.3864 11.5687 23.5414 11.9669C23.6582 12.2674 23.7974 12.7189 23.8353 13.5509C23.8762 14.4505 23.8851 14.7207 23.8851 16.9981C23.8851 19.2754 23.8762 19.5457 23.8353 20.4452C23.7973 21.2772 23.6582 21.7288 23.5414 22.0292C23.3868 22.4275 23.2015 22.711 22.9028 23.0095C22.6042 23.3082 22.3206 23.4931 21.9222 23.6478C21.6218 23.7651 21.1699 23.9038 20.3378 23.9418C19.4383 23.9827 19.1681 23.9916 16.8896 23.9916C14.611 23.9916 14.341 23.9827 13.4414 23.9418C12.6094 23.9034 12.1578 23.7644 11.8569 23.6476C11.4586 23.4929 11.1742 23.308 10.8755 23.0093C10.5769 22.7107 10.392 22.4269 10.2369 22.0285C10.1201 21.7281 9.98094 21.2765 9.94307 20.4445C9.90218 19.545 9.894 19.2747 9.894 16.996C9.894 14.7172 9.90218 14.4484 9.94307 13.5488C9.98111 12.7168 10.1201 12.2652 10.2369 11.9644C10.3916 11.5662 10.5769 11.2818 10.8755 10.9831C11.1742 10.6844 11.4586 10.4995 11.8569 10.3445C12.1577 10.2272 12.6094 10.0885 13.4414 10.0503C14.2286 10.0147 14.5337 10.0041 16.1241 10.0023V10.0044ZM21.4447 11.4213C20.8794 11.4213 20.4207 11.8794 20.4207 12.4449C20.4207 13.0102 20.8794 13.4689 21.4447 13.4689C22.01 13.4689 22.4687 13.0102 22.4687 12.4449C22.4687 11.8796 22.01 11.4209 21.4447 11.4209V11.4213ZM16.8899 12.6175C14.4698 12.6175 12.5076 14.5797 12.5076 16.9998C12.5076 19.4199 14.4698 21.3812 16.8899 21.3812C19.31 21.3812 21.2714 19.4199 21.2714 16.9998C21.2714 14.5797 19.3098 12.6175 16.8897 12.6175H16.8899ZM16.8898 14.1553C18.4607 14.1553 19.7343 15.4287 19.7343 16.9997C19.7343 18.5706 18.4607 19.8442 16.8898 19.8442C15.3188 19.8442 14.0454 18.5706 14.0454 16.9997C14.0454 15.4287 15.3188 14.1553 16.8898 14.1553Z" fill="#F759AB"/>
</g>
</svg>
