<svg width="142" height="36" viewBox="0 0 142 36" fill="none" xmlns="http://www.w3.org/2000/svg">
<path d="M20.8088 26.3274C20.6677 26.848 20.5721 27.3799 20.523 27.917C20.4251 28.6152 20.3773 29.3196 20.3801 30.0246C20.3669 30.8447 20.4327 31.6641 20.5766 32.4716C20.7448 33.3238 21.0022 34.1559 21.3446 34.9543L16.1828 35.6508C15.7999 34.929 15.4946 34.1686 15.2719 33.3825C14.3832 34.1111 13.3973 34.7123 12.3427 35.1686C9.83642 36.133 7.06145 36.133 4.55522 35.1686C3.54846 34.7443 2.6553 34.0897 1.94751 33.2575C1.26963 32.4054 0.765922 31.4283 0.465043 30.3818C0.149692 29.2175 -0.00652441 28.0159 0.000654662 26.8096C-0.018928 24.7271 0.40102 22.6639 1.23307 20.7547C2.03839 18.9124 3.21844 17.2579 4.69812 15.8965C6.26064 14.4856 8.07973 13.3881 10.0564 12.6637C12.1906 11.8592 14.4559 11.4595 16.7365 11.4848C17.9927 11.4897 19.2467 11.5913 20.4873 11.7885C21.7911 11.9874 23.0637 12.3536 24.2738 12.878L20.8088 26.3274ZM17.6652 16.2716C16.9883 16.1431 16.3002 16.0832 15.6112 16.093C14.2422 16.0801 12.8875 16.373 11.6461 16.9503C9.2573 18.0804 7.40488 20.0995 6.48422 22.5765C6.00195 23.83 5.7596 25.163 5.76978 26.506C5.76302 27.1475 5.82288 27.788 5.94839 28.4171C6.05892 28.9722 6.27738 29.5001 6.59138 29.971C6.90272 30.422 7.31971 30.7899 7.80594 31.0427C8.42061 31.327 9.09391 31.4617 9.77066 31.4356C10.7037 31.4561 11.6282 31.2541 12.4677 30.8462C13.2727 30.4188 14.0076 29.8707 14.6467 29.2209C14.6802 28.515 14.7518 27.8114 14.8611 27.1133C14.9738 26.4212 15.1229 25.7356 15.3076 25.0592L17.6652 16.2716Z" fill="#121212"/>
<path d="M110.864 26.3273C110.741 26.8518 110.645 27.3824 110.578 27.9169C110.489 28.616 110.441 29.3198 110.435 30.0245C110.436 30.8643 110.52 31.7018 110.685 32.5251C110.855 33.3747 111.107 34.2061 111.435 35.0078L106.309 35.7044C105.911 34.9896 105.605 34.2275 105.398 33.436C104.501 34.1607 103.509 34.7615 102.451 35.2221C99.9527 36.194 97.1805 36.194 94.6818 35.2221C93.6603 34.8305 92.7477 34.1996 92.0205 33.3824C91.3357 32.5348 90.8312 31.5563 90.538 30.5068C90.2077 29.3451 90.0454 28.1422 90.0558 26.9346C90.0396 24.8876 90.4506 22.8598 91.2625 20.9807C92.0744 19.1016 93.2694 17.4126 94.7711 16.0215C96.3323 14.6088 98.1517 13.511 100.129 12.7886C102.264 11.9858 104.529 11.5861 106.809 11.6098C108.066 11.6133 109.32 11.7148 110.56 11.9134C111.87 12.1099 113.149 12.4761 114.365 13.0029L110.864 26.3273ZM107.738 16.2715C107.055 16.143 106.361 16.0832 105.666 16.0929C104.297 16.08 102.943 16.3729 101.701 16.9503C100.519 17.5148 99.4574 18.3033 98.5755 19.2722C97.7013 20.2405 97.0113 21.3603 96.5393 22.5765C96.0571 23.83 95.8147 25.1629 95.8249 26.5059C95.8237 27.1481 95.8896 27.7886 96.0214 28.417C96.1319 28.9721 96.3504 29.5001 96.6644 29.971C96.9711 30.426 97.3892 30.7949 97.8789 31.0426C98.4929 31.3289 99.1667 31.4637 99.8436 31.4356C100.776 31.454 101.701 31.2521 102.541 30.8462C103.34 30.4189 104.069 29.8706 104.702 29.2208C104.735 28.5149 104.807 27.8114 104.916 27.1132C105.035 26.4209 105.19 25.7353 105.381 25.0592L107.738 16.2715Z" fill="#121212"/>
<path d="M62.8537 26.3272C62.7303 26.8517 62.6349 27.3823 62.5679 27.9169C62.4787 28.616 62.431 29.3197 62.425 30.0245C62.4259 30.8642 62.5097 31.7018 62.6751 32.525C62.851 33.3753 63.1082 34.2067 63.4431 35.0077L58.2991 35.7043C57.9012 34.9896 57.5951 34.2274 57.3882 33.436C56.4903 34.1607 55.499 34.7614 54.4411 35.2221C51.9424 36.1939 49.1702 36.1939 46.6715 35.2221C45.6621 34.8025 44.7679 34.1472 44.0638 33.3109C43.379 32.4633 42.8746 31.4848 42.5814 30.4353C42.2511 29.2736 42.0887 28.0707 42.0991 26.8631C42.0829 24.8161 42.4939 22.7883 43.3058 20.9092C44.1178 19.0301 45.3127 17.3411 46.8144 15.95C48.3756 14.5373 50.1951 13.4395 52.1727 12.7171C54.3073 11.9143 56.5724 11.5146 58.8528 11.5383C60.1091 11.5418 61.3631 11.6433 62.6036 11.8419C63.9137 12.0384 65.1926 12.4046 66.408 12.9315L62.8537 26.3272ZM59.728 16.2715C59.045 16.1429 58.3509 16.0831 57.6561 16.0929C56.287 16.08 54.9324 16.3729 53.6909 16.9502C52.5087 17.5147 51.4471 18.3033 50.5653 19.2721C49.6911 20.2404 49.001 21.3602 48.5291 22.5764C48.0468 23.8299 47.8045 25.1628 47.8146 26.5059C47.8135 27.148 47.8794 27.7885 48.0111 28.417C48.1216 28.9721 48.3401 29.5 48.6541 29.9709C48.9655 30.4219 49.3824 30.7898 49.8687 31.0426C50.4827 31.3289 51.1565 31.4636 51.8334 31.4355C52.7602 31.4511 53.6778 31.2493 54.5125 30.8461C55.3123 30.4188 56.0413 29.8706 56.6737 29.2207C56.7131 28.5145 56.7906 27.811 56.9059 27.1131C57.0247 26.4208 57.1797 25.7352 57.3703 25.0591L59.728 16.2715Z" fill="#121212"/>
<path d="M30.2033 6.16202L36.1689 5.30469L34.5971 11.5025H42.8311L41.6701 16.0749H33.4362L31.0249 25.5234C30.8858 26.0704 30.7785 26.6251 30.7034 27.1845C30.6407 27.5862 30.6108 27.9924 30.6141 28.399C30.6143 28.7589 30.6502 29.1179 30.7213 29.4707C30.8012 29.8107 30.9673 30.1244 31.2035 30.3816C31.5029 30.6802 31.8708 30.901 32.2752 31.0246C32.8886 31.21 33.528 31.2945 34.1685 31.2747C35.0124 31.2768 35.853 31.1687 36.669 30.9532C37.4728 30.7388 38.1693 30.5067 38.7945 30.2745L39.2231 34.704C38.3162 35.0564 37.385 35.3429 36.4368 35.5613C35.1428 35.8592 33.8171 35.9971 32.4895 35.9721C30.3584 36.1452 28.2406 35.5073 26.5596 34.186C25.9531 33.5692 25.4812 32.8333 25.1738 32.0247C24.8663 31.2161 24.73 30.3525 24.7735 29.4886C24.7756 28.7356 24.8293 27.9837 24.9343 27.2381C25.0574 26.3951 25.2304 25.5601 25.4523 24.7375L30.2033 6.16202Z" fill="#121212"/>
<path d="M81.858 11.7347C82.9378 11.7068 84.0142 11.87 85.0372 12.2169C86.1325 12.6233 87.096 13.3212 87.8236 14.2353C88.3949 15.0412 88.7848 15.9613 88.9667 16.9323C89.2864 18.1797 89.4129 19.4688 89.3417 20.7545C89.3378 21.9204 89.206 23.0824 88.9488 24.2196C88.7691 25.0088 88.5181 25.78 88.1986 26.5237C87.4644 28.347 86.3642 30.0005 84.9658 31.3819C83.5028 32.8291 81.7663 33.9706 79.8575 34.7398C77.6911 35.59 75.3794 36.0086 73.0524 35.9722C72.6774 35.9722 72.1773 35.9722 71.5343 35.9722C70.8913 35.9722 70.2125 35.865 69.4624 35.7578C68.7122 35.6507 67.9442 35.4721 67.1583 35.2756C66.4092 35.0816 65.6797 34.8185 64.9792 34.4897L72.856 3.89369L78.7858 2.64342L76.1781 13.1814C77.2658 12.4976 78.4812 12.0418 79.7503 11.8419C80.4474 11.7344 81.1536 11.6985 81.858 11.7347ZM73.8026 31.5248C75.158 31.535 76.4992 31.2485 77.732 30.6853C78.909 30.1284 79.965 29.3456 80.8399 28.3812C81.7079 27.4149 82.3866 26.294 82.8403 25.0769C83.3193 23.8412 83.5616 22.5264 83.5548 21.2011C83.551 20.6005 83.4851 20.002 83.3583 19.415C83.2494 18.8783 83.0238 18.3722 82.6974 17.9325C82.3754 17.4882 81.9364 17.1419 81.4293 16.9323C80.8373 16.6206 80.1859 16.438 79.5182 16.3964C78.75 16.4043 77.9866 16.5185 77.2498 16.7358C76.4402 16.9693 75.6783 17.3442 74.9993 17.8432L71.5343 31.2211C71.82 31.2211 72.1415 31.3283 72.4988 31.3819C72.9307 31.4511 73.3659 31.4988 73.8026 31.5248Z" fill="#121212"/>
<path d="M140.138 0C139.62 1.17883 138.924 2.6613 138.066 4.3581C136.905 6.64432 135.691 8.82337 134.494 10.9131C134.494 10.9131 133.262 12.8957 131.458 15.5034C131.083 16.0392 130.6 16.718 129.939 17.5574C129.725 17.8075 129.386 18.2361 128.921 18.7541C128.19 19.5993 127.389 20.3819 126.528 21.0939C126.008 21.5265 125.452 21.9148 124.867 22.2549C123.829 22.7974 122.724 23.1998 121.58 23.4516C120.45 23.7528 119.306 23.9973 118.151 24.1839C118.654 24.366 119.167 24.521 119.687 24.6483C120.556 24.842 121.441 24.9556 122.331 24.9876C123.834 25.0213 125.332 24.7978 126.76 24.3268C128.269 23.8338 129.686 23.0977 130.958 22.1477C132.003 21.3266 132.988 20.4313 133.905 19.4686C134.047 19.3257 134.369 18.9149 134.869 18.4505C135.328 17.9928 135.844 17.5966 136.405 17.2717C137.021 16.9125 137.69 16.6533 138.388 16.5036C138.972 16.3622 139.573 16.3021 140.174 16.325C140.619 16.331 141.062 16.3849 141.496 16.4858C141.374 15.9349 141.219 15.3921 141.031 14.8604C140.71 13.9495 140.531 13.7352 140.406 13.628C140.061 13.3119 139.622 13.1174 139.156 13.0743C138.854 13.0588 138.552 13.1202 138.281 13.2529C138.441 13.0564 138.638 12.8064 138.87 12.4849C139.341 11.8197 139.742 11.1074 140.067 10.3594C140.339 9.6987 140.56 9.01796 140.728 8.32326C140.944 7.45152 141.07 6.55964 141.103 5.66196C141.135 4.78481 141.093 3.90649 140.978 3.03638C140.885 2.35543 140.747 1.68124 140.567 1.01808L140.138 0Z" fill="#121212"/>
<path d="M131.636 13.3242C130.993 14.2887 130.279 15.2889 129.493 16.3248C128.779 17.2536 128.064 18.1109 127.368 18.9147C126.809 18.8325 126.26 18.701 125.724 18.5217C124.669 18.1628 123.665 17.6643 122.742 17.0393C121.879 16.4406 121.088 15.7455 120.384 14.9674C119.524 14.043 118.781 13.0174 118.169 11.9131C117.709 11.1431 117.326 10.3294 117.026 9.48404C116.824 8.90198 116.669 8.30471 116.562 7.69793C116.48 7.16618 116.444 6.62836 116.455 6.09044C116.794 6.34049 117.223 6.66199 117.723 7.00135C117.883 7.10852 118.294 7.41216 118.884 7.76938C119.473 8.1266 120.205 8.60885 121.313 9.21613C121.563 9.35901 122.599 9.93057 124.046 10.6093C125.492 11.288 126.725 11.7881 127.064 11.9131C128.082 12.3061 128.975 12.6276 129.725 12.8598L131.636 13.3242Z" fill="#F7881D"/>
</svg>
