<svg width="126" height="32" viewBox="0 0 126 32" fill="none" xmlns="http://www.w3.org/2000/svg">
<path d="M18.4967 23.4021C18.3713 23.8649 18.2863 24.3377 18.2427 24.8152C18.1556 25.4358 18.1132 26.0619 18.1157 26.6886C18.1039 27.4175 18.1624 28.1459 18.2903 28.8637C18.4398 29.6212 18.6686 30.3609 18.973 31.0705L14.3847 31.6897C14.0444 31.048 13.773 30.3722 13.575 29.6734C12.7851 30.321 11.9087 30.8554 10.9712 31.261C8.74349 32.1183 6.27685 32.1183 4.04909 31.261C3.15419 30.8839 2.36026 30.302 1.73112 29.5622C1.12856 28.8048 0.680819 27.9363 0.413371 27.0061C0.133059 25.9712 -0.00579948 24.903 0.000581922 23.8308C-0.0168249 21.9797 0.356462 20.1457 1.09606 18.4487C1.8119 16.811 2.86084 15.3404 4.1761 14.1303C5.56501 12.8761 7.18198 11.9005 8.93905 11.2566C10.8361 10.5416 12.8497 10.1862 14.8769 10.2088C15.9935 10.2131 17.1081 10.3034 18.2109 10.4787C19.3698 10.6555 20.5011 10.981 21.5767 11.4471L18.4967 23.4021ZM15.7024 14.4637C15.1007 14.3494 14.489 14.2962 13.8766 14.3049C12.6597 14.2935 11.4556 14.5538 10.3521 15.067C8.22871 16.0715 6.58211 17.8663 5.76375 20.0681C5.33507 21.1823 5.11964 22.3671 5.12869 23.5609C5.12269 24.1311 5.1759 24.7005 5.28746 25.2597C5.38571 25.7531 5.5799 26.2224 5.85901 26.641C6.13575 27.0418 6.5064 27.3689 6.93861 27.5935C7.48498 27.8463 8.08347 27.966 8.68503 27.9428C9.51441 27.961 10.3362 27.7814 11.0824 27.4189C11.798 27.039 12.4512 26.5517 13.0193 25.9741C13.0491 25.3467 13.1127 24.7213 13.2098 24.1007C13.3101 23.4856 13.4426 22.8761 13.6067 22.2749L15.7024 14.4637Z" fill="white"/>
<path d="M98.5457 23.402C98.4361 23.8681 98.3513 24.3398 98.2917 24.815C98.2124 25.4364 98.17 26.062 98.1647 26.6884C98.1655 27.4348 98.24 28.1793 98.387 28.9111C98.5382 29.6663 98.7615 30.4053 99.0538 31.1179L94.4972 31.7371C94.1435 31.1018 93.8715 30.4243 93.6875 29.7208C92.8894 30.365 92.0083 30.899 91.0679 31.3085C88.8468 32.1724 86.3827 32.1724 84.1616 31.3085C83.2537 30.9604 82.4425 30.3996 81.796 29.6732C81.1873 28.9198 80.7389 28.0499 80.4783 27.1171C80.1847 26.0845 80.0404 25.0152 80.0496 23.9418C80.0352 22.1223 80.4006 20.3198 81.1223 18.6495C81.844 16.9792 82.9062 15.4778 84.241 14.2412C85.6287 12.9855 87.246 12.0097 89.004 11.3676C90.9014 10.654 92.9147 10.2987 94.9418 10.3197C96.0585 10.3228 97.1732 10.4131 98.2758 10.5896C99.4403 10.7642 100.577 11.0898 101.658 11.5581L98.5457 23.402ZM95.7674 14.4635C95.1603 14.3493 94.5433 14.2961 93.9257 14.3047C92.7087 14.2933 91.5046 14.5536 90.4011 15.0668C89.3502 15.5686 88.4066 16.2695 87.6227 17.1308C86.8456 17.9915 86.2323 18.9869 85.8128 20.0679C85.3841 21.1821 85.1687 22.3669 85.1777 23.5607C85.1767 24.1315 85.2352 24.7009 85.3524 25.2595C85.4506 25.7529 85.6448 26.2222 85.9239 26.6408C86.1966 27.0452 86.5682 27.3732 87.0035 27.5934C87.5493 27.8479 88.1482 27.9677 88.7499 27.9426C89.5791 27.959 90.4005 27.7795 91.1473 27.4187C91.8582 27.0389 92.5062 26.5516 93.0683 25.974C93.0981 25.3465 93.1617 24.7211 93.2589 24.1005C93.3644 23.4851 93.5022 22.8757 93.6717 22.2747L95.7674 14.4635Z" fill="white"/>
<path d="M55.8699 23.402C55.7603 23.8682 55.6755 24.3398 55.6159 24.815C55.5367 25.4364 55.4942 26.062 55.4889 26.6884C55.4897 27.4348 55.5642 28.1793 55.7112 28.9111C55.8675 29.6669 56.0962 30.4059 56.3939 31.118L51.8214 31.7372C51.4677 31.1018 51.1957 30.4244 51.0117 29.7208C50.2136 30.365 49.3325 30.899 48.3921 31.3085C46.1711 32.1724 43.7069 32.1724 41.4858 31.3085C40.5885 30.9356 39.7937 30.353 39.1679 29.6097C38.5591 28.8563 38.1107 27.9865 37.8501 27.0536C37.5565 26.021 37.4122 24.9518 37.4214 23.8783C37.4071 22.0588 37.7724 20.2563 38.4941 18.586C39.2158 16.9157 40.278 15.4143 41.6128 14.1777C43.0006 12.922 44.6178 11.9462 46.3758 11.3041C48.2732 10.5905 50.2865 10.2352 52.3136 10.2563C53.4303 10.2594 54.545 10.3496 55.6477 10.5262C56.8122 10.7008 57.949 11.0263 59.0294 11.4946L55.8699 23.402ZM53.0915 14.4635C52.4845 14.3493 51.8675 14.2961 51.2499 14.3048C50.0329 14.2933 48.8288 14.5537 47.7253 15.0668C46.6744 15.5686 45.7308 16.2696 44.9469 17.1308C44.1699 17.9915 43.5565 18.9869 43.137 20.0679C42.7083 21.1821 42.4929 22.367 42.5019 23.5608C42.5009 24.1316 42.5594 24.7009 42.6766 25.2595C42.7748 25.7529 42.969 26.2222 43.2481 26.6408C43.5249 27.0417 43.8955 27.3687 44.3277 27.5934C44.8735 27.8479 45.4724 27.9677 46.0741 27.9427C46.898 27.9566 47.7136 27.7771 48.4556 27.4188C49.1665 27.0389 49.8145 26.5516 50.3767 25.974C50.4117 25.3463 50.4806 24.7209 50.5831 24.1006C50.6886 23.4852 50.8264 22.8757 50.9958 22.2748L53.0915 14.4635Z" fill="white"/>
<path d="M26.8474 5.4774L32.1502 4.71533L30.753 10.2245H38.0721L37.0401 14.2889H29.7211L27.5777 22.6875C27.4541 23.1738 27.3587 23.6668 27.2919 24.164C27.2362 24.5212 27.2097 24.8822 27.2126 25.2437C27.2128 25.5635 27.2447 25.8826 27.3078 26.1962C27.3789 26.4984 27.5265 26.7773 27.7365 27.0059C28.0026 27.2714 28.3297 27.4676 28.6891 27.5775C29.2343 27.7423 29.8027 27.8174 30.372 27.7998C31.1222 27.8016 31.8694 27.7056 32.5947 27.514C33.3091 27.3235 33.9283 27.1171 34.484 26.9107L34.865 30.8481C34.0589 31.1613 33.2311 31.416 32.3883 31.6101C31.2381 31.8749 30.0597 31.9975 28.8796 31.9753C26.9853 32.1292 25.1028 31.5621 23.6086 30.3876C23.0695 29.8394 22.65 29.1852 22.3767 28.4664C22.1034 27.7477 21.9823 26.9801 22.0209 26.2121C22.0228 25.5428 22.0705 24.8744 22.1638 24.2117C22.2733 23.4623 22.427 22.7201 22.6243 21.989L26.8474 5.4774Z" fill="white"/>
<path d="M72.7626 10.4307C73.7225 10.4059 74.6792 10.5511 75.5886 10.8594C76.5622 11.2206 77.4186 11.841 78.0653 12.6535C78.5732 13.3698 78.9198 14.1877 79.0814 15.0508C79.3656 16.1596 79.4781 17.3055 79.4148 18.4484C79.4113 19.4847 79.2942 20.5176 79.0655 21.5284C78.9059 22.2299 78.6827 22.9154 78.3987 23.5765C77.7461 25.1973 76.7681 26.667 75.5251 27.8949C74.2246 29.1813 72.6811 30.196 70.9844 30.8797C69.0587 31.6354 67.0039 32.0076 64.9355 31.9752C64.602 31.9752 64.1575 31.9752 63.586 31.9752C63.0144 31.9752 62.4111 31.8799 61.7443 31.7846C61.0775 31.6894 60.3948 31.5306 59.6962 31.356C59.0303 31.1836 58.3819 30.9497 57.7593 30.6574L64.7608 3.46097L70.0318 2.34961L67.7138 11.7167C68.6807 11.1089 69.761 10.7037 70.8891 10.526C71.5087 10.4305 72.1365 10.3985 72.7626 10.4307ZM65.6023 28.0219C66.8071 28.031 67.9992 27.7763 69.0951 27.2757C70.1413 26.7807 71.0799 26.0848 71.8576 25.2276C72.6292 24.3687 73.2324 23.3724 73.6358 22.2905C74.0615 21.192 74.2769 20.0233 74.2708 18.8453C74.2675 18.3115 74.209 17.7794 74.0962 17.2576C73.9994 16.7806 73.7989 16.3307 73.5088 15.9399C73.2225 15.5449 72.8323 15.2371 72.3815 15.0508C71.8553 14.7738 71.2763 14.6114 70.6827 14.5745C69.9999 14.5815 69.3214 14.6831 68.6664 14.8762C67.9468 15.0838 67.2695 15.417 66.666 15.8605L63.586 27.752C63.84 27.752 64.1258 27.8473 64.4433 27.8949C64.8273 27.9565 65.2141 27.9989 65.6023 28.0219Z" fill="white"/>
<path d="M124.567 0C124.107 1.04785 123.488 2.3656 122.726 3.87387C121.694 5.90606 120.614 7.84299 119.55 9.70054C119.55 9.70054 118.455 11.4628 116.851 13.7808C116.518 14.2571 116.089 14.8604 115.502 15.6066C115.311 15.8289 115.01 16.2099 114.597 16.6703C113.947 17.4216 113.235 18.1172 112.469 18.7502C112.007 19.1347 111.513 19.4799 110.993 19.7821C110.07 20.2644 109.088 20.6221 108.072 20.8458C107.067 21.1136 106.05 21.3309 105.023 21.4968C105.471 21.6587 105.927 21.7965 106.389 21.9096C107.161 22.0818 107.948 22.1827 108.738 22.2112C110.075 22.2411 111.406 22.0425 112.676 21.6238C114.017 21.1856 115.277 20.5313 116.407 19.6869C117.336 18.957 118.212 18.1611 119.026 17.3054C119.153 17.1784 119.439 16.8132 119.884 16.4004C120.292 15.9936 120.751 15.6414 121.249 15.3526C121.797 15.0334 122.392 14.8029 123.011 14.6699C123.531 14.5442 124.065 14.4908 124.599 14.5111C124.995 14.5164 125.389 14.5643 125.774 14.654C125.666 14.1644 125.528 13.6819 125.361 13.2092C125.075 12.3995 124.917 12.209 124.805 12.1138C124.499 11.8328 124.108 11.6599 123.694 11.6216C123.426 11.6078 123.158 11.6624 122.916 11.7804C123.059 11.6057 123.234 11.3835 123.44 11.0977C123.859 10.5064 124.215 9.87323 124.504 9.20837C124.746 8.62107 124.942 8.01596 125.091 7.39845C125.284 6.62357 125.396 5.83079 125.425 5.03285C125.453 4.25316 125.416 3.47243 125.313 2.69901C125.231 2.09371 125.109 1.49443 124.948 0.90496L124.567 0Z" fill="white"/>
<path d="M117.01 11.8438C116.439 12.7011 115.804 13.5902 115.105 14.5111C114.47 15.3366 113.835 16.0987 113.216 16.8131C112.719 16.7401 112.231 16.6232 111.755 16.4639C110.816 16.1448 109.925 15.7017 109.104 15.1461C108.337 14.614 107.634 13.9961 107.008 13.3044C106.244 12.4828 105.583 11.5711 105.039 10.5896C104.63 9.90507 104.29 9.18182 104.023 8.43035C103.844 7.91297 103.706 7.38206 103.61 6.8427C103.538 6.37003 103.506 5.89197 103.515 5.41382C103.817 5.63609 104.198 5.92187 104.642 6.22352C104.785 6.31878 105.15 6.58868 105.674 6.90621C106.198 7.22374 106.849 7.65241 107.834 8.19221C108.056 8.31922 108.977 8.82727 110.263 9.43057C111.549 10.0339 112.644 10.4784 112.946 10.5896C113.851 10.9388 114.645 11.2246 115.311 11.431L117.01 11.8438Z" fill="#F7881D"/>
</svg>
