<svg width="20" height="20" viewBox="0 0 20 20" fill="none" xmlns="http://www.w3.org/2000/svg">
<path d="M13.3116 14.2565C12.8208 14.2562 12.3757 14.0059 12.1209 13.587C12.0253 13.4298 11.8204 13.3798 11.6631 13.4755C11.5058 13.5711 11.4559 13.7761 11.5515 13.9334C11.7287 14.2247 11.9686 14.46 12.248 14.6284L11.9016 16.1956L11.0696 15.2362C11.2243 15.0585 11.1807 14.856 11.0545 14.7461C10.9157 14.6253 10.7052 14.6397 10.5843 14.7786L9.99789 15.452L8.52305 13.811C8.6486 13.5704 8.72484 13.3063 8.747 13.0309C11.6008 13.8671 14.4566 11.7346 14.464 8.76614C14.464 8.65266 14.4657 6.2189 14.4658 6.0534C14.4668 4.76414 13.4242 3.72012 12.1347 3.7192L7.88576 3.71628C6.59004 3.71628 5.5523 4.76327 5.55143 6.04745L5.54993 8.20848C5.32728 8.09305 5.17527 7.86407 5.17544 7.59793L5.17819 3.53812C5.17848 3.10185 5.53343 2.74719 5.96966 2.74719C6.11037 2.74719 6.23038 2.66109 6.27974 2.53791C6.72792 1.41986 7.81327 0.66651 9.04796 0.66651L13.5289 0.669551L13.1156 1.75936C13.0468 1.94102 13.1475 2.14322 13.3342 2.19754L13.9116 2.36537C14.4635 2.52579 14.8817 3.03137 14.884 3.65055L14.8813 7.60455C14.8812 7.78859 15.0303 7.93789 15.2143 7.93805C15.3991 7.93805 15.5477 7.78847 15.5478 7.60505C15.5478 7.58043 15.5506 3.66001 15.5505 3.63539C15.5474 2.75857 14.95 1.97314 14.0977 1.72537L13.8668 1.65826L14.3231 0.454814C14.4056 0.237077 14.2446 0.00359403 14.0117 0.00342741L9.04838 1.16007e-05C7.61828 -0.000404961 6.33815 0.829969 5.74442 2.09807C5.04747 2.20662 4.51223 2.81068 4.51173 3.5377L4.50898 7.59751C4.50857 8.24489 4.96149 8.77447 5.55259 8.91585C5.61358 10.6333 6.6429 12.089 8.08783 12.7791L8.08779 12.864C8.08729 13.6321 7.46461 14.252 6.69543 14.252C4.89609 14.2198 3.25372 15.7185 3.25238 17.6892L3.25101 19.6578C3.25088 19.8418 3.39997 19.9911 3.58405 19.9912C3.76884 19.9912 3.91738 19.8416 3.91751 19.6582L3.91888 17.6896C3.91992 16.1585 5.15907 14.9185 6.69193 14.9185C6.80761 14.9205 6.97286 14.9058 7.12936 14.8725L7.59291 16.9831C7.65173 17.2508 7.99094 17.3361 8.16989 17.1303L9.36992 15.7504L9.66856 16.0827L9.66718 18.0792C9.66706 18.2633 9.81614 18.4126 10.0002 18.4127C10.185 18.4127 10.3336 18.2631 10.3337 18.0797L10.3351 16.0798L10.6276 15.7438L11.8323 17.1328C12.0116 17.3396 12.3505 17.2531 12.4094 16.9864L12.8758 14.8763C13.017 14.9065 13.1626 14.9229 13.3112 14.923C14.8438 14.924 16.0836 16.1651 16.0824 17.698L16.0811 19.6665C16.081 19.8505 16.2301 19.9998 16.4141 20C16.5989 20 16.7475 19.8504 16.7476 19.6669L16.7489 17.6984C16.7503 15.7974 15.2129 14.2577 13.3116 14.2565ZM6.21605 8.74897L6.21788 6.04795C6.21851 5.12951 6.96582 4.38282 7.88413 4.38282C7.88613 4.38282 12.1322 4.38574 12.1342 4.38574C13.055 4.38636 13.8 5.13188 13.7993 6.05299L13.7974 8.77005C13.7887 10.856 12.0993 12.5444 10.0041 12.5444C7.91542 12.5429 6.21605 10.8554 6.21605 8.74897ZM8.10174 16.193L7.75737 14.6249C7.88446 14.5483 8.00368 14.457 8.11361 14.3526L8.921 15.2509L8.10174 16.193Z" fill="#121212"/>
</svg>
