<svg width="20" height="20" viewBox="0 0 20 20" fill="none" xmlns="http://www.w3.org/2000/svg">
<g clip-path="url(#clip0_1535_7973)">
<path d="M18.8543 6.28215C18.8468 5.92934 18.8355 5.9034 18.8081 5.8407C18.6777 5.54223 18.4991 5.42398 18.2033 5.22805C17.7961 4.95836 17.2651 4.76355 16.703 4.55738C16.4213 4.45406 16.1333 4.34844 15.8492 4.23008L15.9529 4.10855C16.093 3.94445 16.0734 3.69785 15.9093 3.55781C15.7452 3.41785 15.4987 3.4373 15.3586 3.60141L15.1186 3.88273C14.0415 3.28844 13.1723 2.34547 13.1723 0.390625C13.1723 0.174883 12.9964 0 12.7807 0H7.20883C6.99309 0 6.81821 0.174883 6.81821 0.390625C6.81821 2.28383 5.93676 3.22723 4.84637 3.84164L4.64145 3.60148C4.50137 3.43734 4.25489 3.41789 4.09071 3.55789C3.9266 3.69793 3.90707 3.94449 4.04711 4.10863L4.12297 4.19754C3.83489 4.32336 3.54274 4.43688 3.25707 4.54785C2.70621 4.76188 2.18598 4.96398 1.78723 5.22809C1.49137 5.42406 1.31278 5.5423 1.18235 5.84082C1.1511 5.9123 1.14215 5.9482 1.14246 6.29117C1.14266 6.45277 1.14621 6.72082 1.16211 7.08004C1.18844 7.67492 1.25356 8.61367 1.41407 9.70793C1.69446 11.6187 2.32243 14.3455 3.72207 16.4841C5.24903 18.8171 7.35961 20 9.99524 20C12.7275 20 14.8885 18.815 16.418 16.478C17.8191 14.3373 18.4063 11.6094 18.6522 9.69801C18.7928 8.60496 18.8385 7.66594 18.852 7.0707C18.8602 6.7127 18.8578 6.4443 18.8543 6.28215ZM7.58809 0.78125H12.4016C12.5131 2.78672 13.4857 3.83453 14.6027 4.4873L13.3819 5.91797L12.9933 5.52988C12.8407 5.37762 12.5938 5.37754 12.4412 5.52988L10.7869 7.1818C10.7135 7.25508 10.6723 7.35453 10.6723 7.4582C10.6723 7.56187 10.7135 7.66133 10.7869 7.73461L11.351 8.29789L10.7222 9.0348L10.2763 8.58852C10.2031 8.51516 10.1036 8.47395 10 8.47395C9.89637 8.47395 9.79696 8.51516 9.72367 8.58852L9.27778 9.03484L8.64899 8.29793L9.21309 7.73465C9.28649 7.66137 9.32774 7.56191 9.32774 7.45824C9.32774 7.35457 9.28649 7.25512 9.21313 7.18184L7.55879 5.52992C7.40629 5.37766 7.15922 5.37766 7.00672 5.52992L6.61809 5.91801L5.3609 4.44469C6.48766 3.77543 7.47231 2.72922 7.58809 0.78125ZM11.6157 7.45824L12.7172 6.35836L13.8187 7.45824L12.7172 8.55809L11.6157 7.45824ZM10 9.41727L12.201 11.6202C12.3682 11.7877 12.3682 12.0601 12.201 12.2275L10 14.4305L7.79899 12.2275C7.63176 12.0601 7.63176 11.7877 7.79899 11.6203L10 9.41727ZM7.28278 6.35832L8.38426 7.4582L7.28278 8.55805L6.18133 7.4582L7.28278 6.35832ZM17.7715 10.3295C17.4446 12.3596 16.695 15.1768 14.9814 17.0697C13.6904 18.4957 12.0128 19.2188 9.99524 19.2188C8.09782 19.2188 6.49575 18.5269 5.2336 17.1624C1.9568 13.62 1.91821 6.80141 1.92664 6.10008C1.95844 6.05547 2.01969 6.01117 2.21867 5.87941C2.54731 5.66176 3.02953 5.47441 3.54004 5.27605C3.89211 5.13926 4.27094 4.99211 4.65063 4.81586L6.0636 6.47172L5.35246 7.18184C5.2791 7.25512 5.23785 7.35457 5.23785 7.45824C5.23785 7.56191 5.2791 7.66137 5.35246 7.73465L7.00676 9.38652C7.08301 9.46266 7.18285 9.50074 7.28278 9.50074C7.38266 9.50074 7.48254 9.46266 7.55875 9.38652L8.09442 8.85168L8.72383 9.5893L7.24633 11.0681C6.77492 11.54 6.77492 12.3078 7.24633 12.7796L9.72367 15.2592C9.79696 15.3326 9.89637 15.3738 10 15.3738C10.1036 15.3738 10.2031 15.3326 10.2763 15.2592L12.7537 12.7796C13.2251 12.3078 13.2251 11.54 12.7537 11.0681L11.2762 9.5893L11.9056 8.85168L12.4413 9.38652C12.5175 9.46266 12.6174 9.50074 12.7172 9.50074C12.8171 9.50074 12.917 9.46266 12.9932 9.38652L14.6475 7.73465C14.7209 7.66137 14.7622 7.56191 14.7622 7.45824C14.7622 7.35457 14.7209 7.25512 14.6476 7.18184L13.9365 6.47172L15.319 4.85156C15.7001 5.02172 16.0806 5.16129 16.434 5.29094C16.9519 5.4809 17.4411 5.66031 17.7719 5.87945C17.9788 6.01641 18.0367 6.05891 18.0675 6.10539C18.088 6.47859 18.1103 8.22617 17.7715 10.3295Z" fill="#121212"/>
</g>
<defs>
<clipPath id="clip0_1535_7973">
<rect width="20" height="20" fill="white"/>
</clipPath>
</defs>
</svg>
