<svg width="32" height="20" viewBox="0 0 32 20" fill="none" xmlns="http://www.w3.org/2000/svg">
<rect width="32" height="20" rx="8" fill="#CF1322"/>
<path d="M10.3623 5.89062V13H9.13672L5.94824 7.90723V13H4.72266V5.89062H5.94824L9.14648 10.9932V5.89062H10.3623ZM16.4756 12.0283V13H12.7012V12.0283H16.4756ZM13.0479 5.89062V13H11.8223V5.89062H13.0479ZM15.9824 8.85938V9.81641H12.7012V8.85938H15.9824ZM16.4512 5.89062V6.86719H12.7012V5.89062H16.4512ZM19.2588 11.4033L20.6748 5.89062H21.417L21.334 7.31152L19.8203 13H19.0488L19.2588 11.4033ZM18.1992 5.89062L19.3467 11.3594L19.4492 13H18.6289L16.9834 5.89062H18.1992ZM23.0234 11.3447L24.1562 5.89062H25.377L23.7314 13H22.9111L23.0234 11.3447ZM21.7051 5.89062L23.1064 11.418L23.3115 13H22.54L21.0508 7.31152L20.9727 5.89062H21.7051ZM27.5254 5.89062L27.4082 10.9053H26.4023L26.2803 5.89062H27.5254ZM26.2461 12.4434C26.2461 12.2643 26.3047 12.1146 26.4219 11.9941C26.5423 11.8704 26.7083 11.8086 26.9199 11.8086C27.1283 11.8086 27.2926 11.8704 27.4131 11.9941C27.5335 12.1146 27.5938 12.2643 27.5938 12.4434C27.5938 12.6159 27.5335 12.764 27.4131 12.8877C27.2926 13.0081 27.1283 13.0684 26.9199 13.0684C26.7083 13.0684 26.5423 13.0081 26.4219 12.8877C26.3047 12.764 26.2461 12.6159 26.2461 12.4434Z" fill="white"/>
</svg>
