<svg width="20" height="20" viewBox="0 0 20 20" fill="none" xmlns="http://www.w3.org/2000/svg">
<g clip-path="url(#clip0_1535_8008)">
<path d="M19.8624 3.70594L16.28 0.114766C16.2067 0.0412891 16.1072 0 16.0035 0C15.8997 0 15.8002 0.0412891 15.7269 0.114766L9.64267 6.21398L3.79748 0.354375C3.7242 0.280937 3.6247 0.239609 3.52091 0.239609C3.41713 0.239609 3.31763 0.280898 3.24435 0.354375L0.376735 3.2291C0.224625 3.38156 0.224625 3.6284 0.376735 3.78086L6.22326 9.6418L0.137672 15.7423C-0.0144373 15.8948 -0.0144373 16.1416 0.137672 16.2941L3.72002 19.8852C3.7933 19.9587 3.89279 20 3.99658 20C4.10037 20 4.19986 19.9587 4.27314 19.8852L10.3574 13.786L14.3722 17.8108L15.5042 18.9456C15.5612 19.0027 15.6345 19.0408 15.714 19.0546L16.8183 19.2462C16.8183 19.2462 16.8185 19.2462 16.8185 19.2462L19.202 19.6789C19.2253 19.6832 19.2486 19.6852 19.2719 19.6852C19.3744 19.6852 19.474 19.6448 19.5479 19.5709C19.6385 19.4804 19.679 19.3512 19.6562 19.2252L19.2246 16.8359L19.0334 15.7285C19.0197 15.6492 18.9819 15.5761 18.925 15.5191L17.793 14.3843L13.7768 10.3582L19.8624 4.2577C20.0145 4.1052 20.0145 3.8584 19.8624 3.70594ZM3.52091 1.18336L4.85853 2.52426L2.54263 4.84586L1.20505 3.50496L3.52091 1.18336ZM5.41029 3.07738L6.12537 3.79422L3.80947 6.11582L3.09439 5.39898L5.41029 3.07738ZM15.3785 15.9448C15.3821 15.9687 15.3857 15.9922 15.3892 16.0153C15.4658 16.5135 15.4915 16.6813 15.186 16.9875C15.0758 17.0981 14.9179 17.133 14.81 17.1434L10.6342 12.9574C10.6341 12.9573 10.634 12.9572 10.6339 12.9571L7.05154 9.3659C7.05146 9.36582 7.05134 9.3657 7.05127 9.36562L4.36123 6.66898L5.2433 5.78473L15.3785 15.9448ZM3.99662 19.0562L0.966031 16.0182L6.77502 10.1949L9.80564 13.2329L3.99662 19.0562ZM17.6908 18.6106L18.5887 17.7105L18.7873 18.8097L17.6908 18.6106ZM18.4208 16.7725L16.7551 18.4423L15.9698 18.3061L15.4301 17.7651C15.5366 17.7098 15.6422 17.6364 15.7392 17.5393C16.2067 17.0705 16.2499 16.6484 16.2057 16.2201C16.633 16.2643 17.0544 16.2207 17.5221 15.7519C17.6185 15.6552 17.6915 15.55 17.7464 15.4439L18.2845 15.9833L18.4208 16.7725ZM16.969 15.2002C16.6641 15.5058 16.5104 15.4821 16.001 15.4035C15.9781 15.4 15.9549 15.3964 15.9313 15.3928L5.79505 5.2316L6.67713 4.34734L9.36552 7.04234C9.36572 7.04254 9.36588 7.04273 9.36607 7.04293L12.9484 10.6341L12.9489 10.6346L17.1244 14.8204C17.1139 14.9295 17.0788 15.0901 16.969 15.2002ZM13.225 9.80512L10.1944 6.76707L16.0035 0.94375L19.034 3.9818L13.225 9.80512Z" fill="#121212"/>
<path d="M15.1168 3.22219C14.6638 3.67629 14.6638 4.41519 15.1168 4.86933C15.3365 5.0896 15.6288 5.21093 15.9397 5.21093C16.2506 5.21093 16.5428 5.08964 16.7626 4.86933C17.2156 4.41519 17.2156 3.67629 16.7626 3.22222C16.5428 3.00191 16.2506 2.88058 15.9397 2.88058C15.6288 2.88058 15.3365 3.00191 15.1168 3.22219ZM16.2095 3.77394C16.359 3.92382 16.359 4.16769 16.2095 4.31757C16.1374 4.38988 16.0415 4.42968 15.9397 4.42968C15.8378 4.42968 15.742 4.38988 15.6699 4.31757C15.5204 4.16769 15.5204 3.92382 15.6699 3.77394C15.742 3.70164 15.8378 3.66183 15.9397 3.66183C16.0415 3.66183 16.1374 3.70164 16.2095 3.77394Z" fill="#121212"/>
</g>
<defs>
<clipPath id="clip0_1535_8008">
<rect width="20" height="20" fill="white"/>
</clipPath>
</defs>
</svg>
