<svg width="24" height="24" viewBox="0 0 24 24" fill="none" xmlns="http://www.w3.org/2000/svg">
<circle cx="12" cy="12" r="12" fill="#FA8C16"/>
<g clip-path="url(#clip0_1477_1370)">
<path d="M17.9658 13.3678C17.7825 10.9816 16.6715 9.48622 15.6914 8.16665C14.7838 6.94503 14 5.89009 14 4.3339C14 4.2089 13.93 4.09465 13.819 4.03737C13.7077 3.97975 13.5739 3.98919 13.4727 4.06275C12.0007 5.11606 10.7725 6.89134 10.3434 8.58522C10.0456 9.7645 10.0062 11.0902 10.0007 11.9658C8.64128 11.6755 8.33334 9.64212 8.33009 9.61997C8.31478 9.5145 8.25034 9.42272 8.15659 9.37259C8.06188 9.32312 7.95053 9.31953 7.8545 9.36706C7.78322 9.40156 6.10481 10.2544 6.00716 13.6594C6.00031 13.7727 6 13.8863 6 13.9999C6 17.3079 8.69172 19.9995 12 19.9995C12.0046 19.9998 12.0094 20.0005 12.0133 19.9995C12.0147 19.9995 12.0159 19.9995 12.0176 19.9995C15.3177 19.99 18 17.3021 18 13.9999C18 13.8336 17.9658 13.3678 17.9658 13.3678ZM12 19.3329C10.8971 19.3329 10 18.3772 10 17.2025C10 17.1625 9.99969 17.1221 10.0026 17.0726C10.0159 16.5772 10.11 16.239 10.2132 16.0141C10.4066 16.4294 10.7523 16.8112 11.3138 16.8112C11.4981 16.8112 11.6472 16.6622 11.6472 16.4779C11.6472 16.0034 11.6569 15.4559 11.7751 14.9617C11.8802 14.5236 12.1315 14.0575 12.4499 13.6838C12.5915 14.1688 12.8676 14.5614 13.1371 14.9445C13.5228 15.4926 13.9216 16.0593 13.9916 17.0257C13.9958 17.083 14.0001 17.1407 14.0001 17.2025C14 18.3772 13.1029 19.3329 12 19.3329Z" fill="white"/>
</g>
<defs>
<clipPath id="clip0_1477_1370">
<rect width="16" height="16" fill="white" transform="translate(4 4)"/>
</clipPath>
</defs>
</svg>
