<svg width="100" height="100" viewBox="0 0 100 100" fill="none" xmlns="http://www.w3.org/2000/svg">
<path d="M3.54644 0.549561H0.549438V3.54656H3.54644V0.549561Z" fill="black"/>
<path d="M6.54344 0.549561H3.54644V3.54656H6.54344V0.549561Z" fill="black"/>
<path d="M9.54045 0.549561H6.54344V3.54656H9.54045V0.549561Z" fill="black"/>
<path d="M12.5374 0.549561H9.54045V3.54656H12.5374V0.549561Z" fill="black"/>
<path d="M15.5345 0.549561H12.5374V3.54656H15.5345V0.549561Z" fill="black"/>
<path d="M18.5315 0.549561H15.5345V3.54656H18.5315V0.549561Z" fill="black"/>
<path d="M21.5285 0.549561H18.5315V3.54656H21.5285V0.549561Z" fill="black"/>
<path d="M27.5225 0.549561H24.5255V3.54656H27.5225V0.549561Z" fill="black"/>
<path d="M30.5195 0.549561H27.5225V3.54656H30.5195V0.549561Z" fill="black"/>
<path d="M45.5045 0.549561H42.5075V3.54656H45.5045V0.549561Z" fill="black"/>
<path d="M48.5015 0.549561H45.5045V3.54656H48.5015V0.549561Z" fill="black"/>
<path d="M51.4985 0.549561H48.5015V3.54656H51.4985V0.549561Z" fill="black"/>
<path d="M57.4925 0.549561H54.4955V3.54656H57.4925V0.549561Z" fill="black"/>
<path d="M60.4895 0.549561H57.4925V3.54656H60.4895V0.549561Z" fill="black"/>
<path d="M66.4835 0.549561H63.4865V3.54656H66.4835V0.549561Z" fill="black"/>
<path d="M75.4745 0.549561H72.4775V3.54656H75.4745V0.549561Z" fill="black"/>
<path d="M81.4685 0.549561H78.4715V3.54656H81.4685V0.549561Z" fill="black"/>
<path d="M84.4655 0.549561H81.4685V3.54656H84.4655V0.549561Z" fill="black"/>
<path d="M87.4625 0.549561H84.4655V3.54656H87.4625V0.549561Z" fill="black"/>
<path d="M90.4595 0.549561H87.4625V3.54656H90.4595V0.549561Z" fill="black"/>
<path d="M93.4565 0.549561H90.4595V3.54656H93.4565V0.549561Z" fill="black"/>
<path d="M96.4535 0.549561H93.4565V3.54656H96.4535V0.549561Z" fill="black"/>
<path d="M99.4505 0.549561H96.4535V3.54656H99.4505V0.549561Z" fill="black"/>
<path d="M3.54644 3.54656H0.549438V6.54357H3.54644V3.54656Z" fill="black"/>
<path d="M21.5285 3.54656H18.5315V6.54357H21.5285V3.54656Z" fill="black"/>
<path d="M36.5135 3.54656H33.5165V6.54357H36.5135V3.54656Z" fill="black"/>
<path d="M42.5075 3.54656H39.5105V6.54357H42.5075V3.54656Z" fill="black"/>
<path d="M48.5015 3.54656H45.5045V6.54357H48.5015V3.54656Z" fill="black"/>
<path d="M51.4985 3.54656H48.5015V6.54357H51.4985V3.54656Z" fill="black"/>
<path d="M54.4955 3.54656H51.4985V6.54357H54.4955V3.54656Z" fill="black"/>
<path d="M57.4925 3.54656H54.4955V6.54357H57.4925V3.54656Z" fill="black"/>
<path d="M60.4895 3.54656H57.4925V6.54357H60.4895V3.54656Z" fill="black"/>
<path d="M72.4775 3.54656H69.4805V6.54357H72.4775V3.54656Z" fill="black"/>
<path d="M81.4685 3.54656H78.4715V6.54357H81.4685V3.54656Z" fill="black"/>
<path d="M99.4505 3.54656H96.4535V6.54357H99.4505V3.54656Z" fill="black"/>
<path d="M3.54644 6.54357H0.549438V9.54057H3.54644V6.54357Z" fill="black"/>
<path d="M9.54045 6.54357H6.54344V9.54057H9.54045V6.54357Z" fill="black"/>
<path d="M12.5374 6.54357H9.54045V9.54057H12.5374V6.54357Z" fill="black"/>
<path d="M15.5345 6.54357H12.5374V9.54057H15.5345V6.54357Z" fill="black"/>
<path d="M21.5285 6.54357H18.5315V9.54057H21.5285V6.54357Z" fill="black"/>
<path d="M27.5225 6.54357H24.5255V9.54057H27.5225V6.54357Z" fill="black"/>
<path d="M30.5195 6.54357H27.5225V9.54057H30.5195V6.54357Z" fill="black"/>
<path d="M42.5075 6.54357H39.5105V9.54057H42.5075V6.54357Z" fill="black"/>
<path d="M48.5015 6.54357H45.5045V9.54057H48.5015V6.54357Z" fill="black"/>
<path d="M51.4985 6.54357H48.5015V9.54057H51.4985V6.54357Z" fill="black"/>
<path d="M57.4925 6.54357H54.4955V9.54057H57.4925V6.54357Z" fill="black"/>
<path d="M72.4775 6.54357H69.4805V9.54057H72.4775V6.54357Z" fill="black"/>
<path d="M75.4745 6.54357H72.4775V9.54057H75.4745V6.54357Z" fill="black"/>
<path d="M81.4685 6.54357H78.4715V9.54057H81.4685V6.54357Z" fill="black"/>
<path d="M87.4625 6.54357H84.4655V9.54057H87.4625V6.54357Z" fill="black"/>
<path d="M90.4595 6.54357H87.4625V9.54057H90.4595V6.54357Z" fill="black"/>
<path d="M93.4565 6.54357H90.4595V9.54057H93.4565V6.54357Z" fill="black"/>
<path d="M99.4505 6.54357H96.4535V9.54057H99.4505V6.54357Z" fill="black"/>
<path d="M3.54644 9.54057H0.549438V12.5376H3.54644V9.54057Z" fill="black"/>
<path d="M9.54045 9.54057H6.54344V12.5376H9.54045V9.54057Z" fill="black"/>
<path d="M12.5374 9.54057H9.54045V12.5376H12.5374V9.54057Z" fill="black"/>
<path d="M15.5345 9.54057H12.5374V12.5376H15.5345V9.54057Z" fill="black"/>
<path d="M21.5285 9.54057H18.5315V12.5376H21.5285V9.54057Z" fill="black"/>
<path d="M27.5225 9.54057H24.5255V12.5376H27.5225V9.54057Z" fill="black"/>
<path d="M39.5105 9.54057H36.5135V12.5376H39.5105V9.54057Z" fill="black"/>
<path d="M45.5045 9.54057H42.5075V12.5376H45.5045V9.54057Z" fill="black"/>
<path d="M48.5015 9.54057H45.5045V12.5376H48.5015V9.54057Z" fill="black"/>
<path d="M54.4955 9.54057H51.4985V12.5376H54.4955V9.54057Z" fill="black"/>
<path d="M57.4925 9.54057H54.4955V12.5376H57.4925V9.54057Z" fill="black"/>
<path d="M60.4895 9.54057H57.4925V12.5376H60.4895V9.54057Z" fill="black"/>
<path d="M63.4865 9.54057H60.4895V12.5376H63.4865V9.54057Z" fill="black"/>
<path d="M72.4775 9.54057H69.4805V12.5376H72.4775V9.54057Z" fill="black"/>
<path d="M81.4685 9.54057H78.4715V12.5376H81.4685V9.54057Z" fill="black"/>
<path d="M87.4625 9.54057H84.4655V12.5376H87.4625V9.54057Z" fill="black"/>
<path d="M90.4595 9.54057H87.4625V12.5376H90.4595V9.54057Z" fill="black"/>
<path d="M93.4565 9.54057H90.4595V12.5376H93.4565V9.54057Z" fill="black"/>
<path d="M99.4505 9.54057H96.4535V12.5376H99.4505V9.54057Z" fill="black"/>
<path d="M3.54644 12.5376H0.549438V15.5346H3.54644V12.5376Z" fill="black"/>
<path d="M9.54045 12.5376H6.54344V15.5346H9.54045V12.5376Z" fill="black"/>
<path d="M12.5374 12.5376H9.54045V15.5346H12.5374V12.5376Z" fill="black"/>
<path d="M15.5345 12.5376H12.5374V15.5346H15.5345V12.5376Z" fill="black"/>
<path d="M21.5285 12.5376H18.5315V15.5346H21.5285V12.5376Z" fill="black"/>
<path d="M36.5135 12.5376H33.5165V15.5346H36.5135V12.5376Z" fill="black"/>
<path d="M39.5105 12.5376H36.5135V15.5346H39.5105V12.5376Z" fill="black"/>
<path d="M42.5075 12.5376H39.5105V15.5346H42.5075V12.5376Z" fill="black"/>
<path d="M45.5045 12.5376H42.5075V15.5346H45.5045V12.5376Z" fill="black"/>
<path d="M57.4925 12.5376H54.4955V15.5346H57.4925V12.5376Z" fill="black"/>
<path d="M60.4895 12.5376H57.4925V15.5346H60.4895V12.5376Z" fill="black"/>
<path d="M63.4865 12.5376H60.4895V15.5346H63.4865V12.5376Z" fill="black"/>
<path d="M72.4775 12.5376H69.4805V15.5346H72.4775V12.5376Z" fill="black"/>
<path d="M75.4745 12.5376H72.4775V15.5346H75.4745V12.5376Z" fill="black"/>
<path d="M81.4685 12.5376H78.4715V15.5346H81.4685V12.5376Z" fill="black"/>
<path d="M87.4625 12.5376H84.4655V15.5346H87.4625V12.5376Z" fill="black"/>
<path d="M90.4595 12.5376H87.4625V15.5346H90.4595V12.5376Z" fill="black"/>
<path d="M93.4565 12.5376H90.4595V15.5346H93.4565V12.5376Z" fill="black"/>
<path d="M99.4505 12.5376H96.4535V15.5346H99.4505V12.5376Z" fill="black"/>
<path d="M3.54644 15.5346H0.549438V18.5316H3.54644V15.5346Z" fill="black"/>
<path d="M21.5285 15.5346H18.5315V18.5316H21.5285V15.5346Z" fill="black"/>
<path d="M27.5225 15.5346H24.5255V18.5316H27.5225V15.5346Z" fill="black"/>
<path d="M36.5135 15.5346H33.5165V18.5316H36.5135V15.5346Z" fill="black"/>
<path d="M45.5045 15.5346H42.5075V18.5316H45.5045V15.5346Z" fill="black"/>
<path d="M48.5015 15.5346H45.5045V18.5316H48.5015V15.5346Z" fill="black"/>
<path d="M51.4985 15.5346H48.5015V18.5316H51.4985V15.5346Z" fill="black"/>
<path d="M54.4955 15.5346H51.4985V18.5316H54.4955V15.5346Z" fill="black"/>
<path d="M72.4775 15.5346H69.4805V18.5316H72.4775V15.5346Z" fill="black"/>
<path d="M81.4685 15.5346H78.4715V18.5316H81.4685V15.5346Z" fill="black"/>
<path d="M99.4505 15.5346H96.4535V18.5316H99.4505V15.5346Z" fill="black"/>
<path d="M3.54644 18.5316H0.549438V21.5286H3.54644V18.5316Z" fill="black"/>
<path d="M6.54344 18.5316H3.54644V21.5286H6.54344V18.5316Z" fill="black"/>
<path d="M9.54045 18.5316H6.54344V21.5286H9.54045V18.5316Z" fill="black"/>
<path d="M12.5374 18.5316H9.54045V21.5286H12.5374V18.5316Z" fill="black"/>
<path d="M15.5345 18.5316H12.5374V21.5286H15.5345V18.5316Z" fill="black"/>
<path d="M18.5315 18.5316H15.5345V21.5286H18.5315V18.5316Z" fill="black"/>
<path d="M21.5285 18.5316H18.5315V21.5286H21.5285V18.5316Z" fill="black"/>
<path d="M27.5225 18.5316H24.5255V21.5286H27.5225V18.5316Z" fill="black"/>
<path d="M33.5165 18.5316H30.5195V21.5286H33.5165V18.5316Z" fill="black"/>
<path d="M39.5105 18.5316H36.5135V21.5286H39.5105V18.5316Z" fill="black"/>
<path d="M45.5045 18.5316H42.5075V21.5286H45.5045V18.5316Z" fill="black"/>
<path d="M51.4985 18.5316H48.5015V21.5286H51.4985V18.5316Z" fill="black"/>
<path d="M57.4925 18.5316H54.4955V21.5286H57.4925V18.5316Z" fill="black"/>
<path d="M63.4865 18.5316H60.4895V21.5286H63.4865V18.5316Z" fill="black"/>
<path d="M69.4805 18.5316H66.4835V21.5286H69.4805V18.5316Z" fill="black"/>
<path d="M75.4745 18.5316H72.4775V21.5286H75.4745V18.5316Z" fill="black"/>
<path d="M81.4685 18.5316H78.4715V21.5286H81.4685V18.5316Z" fill="black"/>
<path d="M84.4655 18.5316H81.4685V21.5286H84.4655V18.5316Z" fill="black"/>
<path d="M87.4625 18.5316H84.4655V21.5286H87.4625V18.5316Z" fill="black"/>
<path d="M90.4595 18.5316H87.4625V21.5286H90.4595V18.5316Z" fill="black"/>
<path d="M93.4565 18.5316H90.4595V21.5286H93.4565V18.5316Z" fill="black"/>
<path d="M96.4535 18.5316H93.4565V21.5286H96.4535V18.5316Z" fill="black"/>
<path d="M99.4505 18.5316H96.4535V21.5286H99.4505V18.5316Z" fill="black"/>
<path d="M27.5225 21.5286H24.5255V24.5256H27.5225V21.5286Z" fill="black"/>
<path d="M30.5195 21.5286H27.5225V24.5256H30.5195V21.5286Z" fill="black"/>
<path d="M33.5165 21.5286H30.5195V24.5256H33.5165V21.5286Z" fill="black"/>
<path d="M36.5135 21.5286H33.5165V24.5256H36.5135V21.5286Z" fill="black"/>
<path d="M42.5075 21.5286H39.5105V24.5256H42.5075V21.5286Z" fill="black"/>
<path d="M57.4925 21.5286H54.4955V24.5256H57.4925V21.5286Z" fill="black"/>
<path d="M60.4895 21.5286H57.4925V24.5256H60.4895V21.5286Z" fill="black"/>
<path d="M72.4775 21.5286H69.4805V24.5256H72.4775V21.5286Z" fill="black"/>
<path d="M3.54644 24.5256H0.549438V27.5226H3.54644V24.5256Z" fill="black"/>
<path d="M6.54344 24.5256H3.54644V27.5226H6.54344V24.5256Z" fill="black"/>
<path d="M12.5374 24.5256H9.54045V27.5226H12.5374V24.5256Z" fill="black"/>
<path d="M21.5285 24.5256H18.5315V27.5226H21.5285V24.5256Z" fill="black"/>
<path d="M24.5255 24.5256H21.5285V27.5226H24.5255V24.5256Z" fill="black"/>
<path d="M39.5105 24.5256H36.5135V27.5226H39.5105V24.5256Z" fill="black"/>
<path d="M42.5075 24.5256H39.5105V27.5226H42.5075V24.5256Z" fill="black"/>
<path d="M45.5045 24.5256H42.5075V27.5226H45.5045V24.5256Z" fill="black"/>
<path d="M48.5015 24.5256H45.5045V27.5226H48.5015V24.5256Z" fill="black"/>
<path d="M51.4985 24.5256H48.5015V27.5226H51.4985V24.5256Z" fill="black"/>
<path d="M54.4955 24.5256H51.4985V27.5226H54.4955V24.5256Z" fill="black"/>
<path d="M57.4925 24.5256H54.4955V27.5226H57.4925V24.5256Z" fill="black"/>
<path d="M66.4835 24.5256H63.4865V27.5226H66.4835V24.5256Z" fill="black"/>
<path d="M72.4775 24.5256H69.4805V27.5226H72.4775V24.5256Z" fill="black"/>
<path d="M75.4745 24.5256H72.4775V27.5226H75.4745V24.5256Z" fill="black"/>
<path d="M78.4715 24.5256H75.4745V27.5226H78.4715V24.5256Z" fill="black"/>
<path d="M81.4685 24.5256H78.4715V27.5226H81.4685V24.5256Z" fill="black"/>
<path d="M84.4655 24.5256H81.4685V27.5226H84.4655V24.5256Z" fill="black"/>
<path d="M90.4595 24.5256H87.4625V27.5226H90.4595V24.5256Z" fill="black"/>
<path d="M93.4565 24.5256H90.4595V27.5226H93.4565V24.5256Z" fill="black"/>
<path d="M99.4505 24.5256H96.4535V27.5226H99.4505V24.5256Z" fill="black"/>
<path d="M3.54644 27.5226H0.549438V30.5196H3.54644V27.5226Z" fill="black"/>
<path d="M9.54045 27.5226H6.54344V30.5196H9.54045V27.5226Z" fill="black"/>
<path d="M12.5374 27.5226H9.54045V30.5196H12.5374V27.5226Z" fill="black"/>
<path d="M15.5345 27.5226H12.5374V30.5196H15.5345V27.5226Z" fill="black"/>
<path d="M18.5315 27.5226H15.5345V30.5196H18.5315V27.5226Z" fill="black"/>
<path d="M24.5255 27.5226H21.5285V30.5196H24.5255V27.5226Z" fill="black"/>
<path d="M33.5165 27.5226H30.5195V30.5196H33.5165V27.5226Z" fill="black"/>
<path d="M36.5135 27.5226H33.5165V30.5196H36.5135V27.5226Z" fill="black"/>
<path d="M45.5045 27.5226H42.5075V30.5196H45.5045V27.5226Z" fill="black"/>
<path d="M48.5015 27.5226H45.5045V30.5196H48.5015V27.5226Z" fill="black"/>
<path d="M51.4985 27.5226H48.5015V30.5196H51.4985V27.5226Z" fill="black"/>
<path d="M54.4955 27.5226H51.4985V30.5196H54.4955V27.5226Z" fill="black"/>
<path d="M57.4925 27.5226H54.4955V30.5196H57.4925V27.5226Z" fill="black"/>
<path d="M60.4895 27.5226H57.4925V30.5196H60.4895V27.5226Z" fill="black"/>
<path d="M63.4865 27.5226H60.4895V30.5196H63.4865V27.5226Z" fill="black"/>
<path d="M69.4805 27.5226H66.4835V30.5196H69.4805V27.5226Z" fill="black"/>
<path d="M72.4775 27.5226H69.4805V30.5196H72.4775V27.5226Z" fill="black"/>
<path d="M78.4715 27.5226H75.4745V30.5196H78.4715V27.5226Z" fill="black"/>
<path d="M81.4685 27.5226H78.4715V30.5196H81.4685V27.5226Z" fill="black"/>
<path d="M84.4655 27.5226H81.4685V30.5196H84.4655V27.5226Z" fill="black"/>
<path d="M90.4595 27.5226H87.4625V30.5196H90.4595V27.5226Z" fill="black"/>
<path d="M96.4535 27.5226H93.4565V30.5196H96.4535V27.5226Z" fill="black"/>
<path d="M3.54644 30.5196H0.549438V33.5166H3.54644V30.5196Z" fill="black"/>
<path d="M6.54344 30.5196H3.54644V33.5166H6.54344V30.5196Z" fill="black"/>
<path d="M18.5315 30.5196H15.5345V33.5166H18.5315V30.5196Z" fill="black"/>
<path d="M21.5285 30.5196H18.5315V33.5166H21.5285V30.5196Z" fill="black"/>
<path d="M24.5255 30.5196H21.5285V33.5166H24.5255V30.5196Z" fill="black"/>
<path d="M30.5195 30.5196H27.5225V33.5166H30.5195V30.5196Z" fill="black"/>
<path d="M36.5135 30.5196H33.5165V33.5166H36.5135V30.5196Z" fill="black"/>
<path d="M39.5105 30.5196H36.5135V33.5166H39.5105V30.5196Z" fill="black"/>
<path d="M48.5015 30.5196H45.5045V33.5166H48.5015V30.5196Z" fill="black"/>
<path d="M57.4925 30.5196H54.4955V33.5166H57.4925V30.5196Z" fill="black"/>
<path d="M63.4865 30.5196H60.4895V33.5166H63.4865V30.5196Z" fill="black"/>
<path d="M66.4835 30.5196H63.4865V33.5166H66.4835V30.5196Z" fill="black"/>
<path d="M72.4775 30.5196H69.4805V33.5166H72.4775V30.5196Z" fill="black"/>
<path d="M75.4745 30.5196H72.4775V33.5166H75.4745V30.5196Z" fill="black"/>
<path d="M84.4655 30.5196H81.4685V33.5166H84.4655V30.5196Z" fill="black"/>
<path d="M87.4625 30.5196H84.4655V33.5166H87.4625V30.5196Z" fill="black"/>
<path d="M99.4505 30.5196H96.4535V33.5166H99.4505V30.5196Z" fill="black"/>
<path d="M3.54644 33.5166H0.549438V36.5136H3.54644V33.5166Z" fill="black"/>
<path d="M6.54344 33.5166H3.54644V36.5136H6.54344V33.5166Z" fill="black"/>
<path d="M9.54045 33.5166H6.54344V36.5136H9.54045V33.5166Z" fill="black"/>
<path d="M12.5374 33.5166H9.54045V36.5136H12.5374V33.5166Z" fill="black"/>
<path d="M15.5345 33.5166H12.5374V36.5136H15.5345V33.5166Z" fill="black"/>
<path d="M18.5315 33.5166H15.5345V36.5136H18.5315V33.5166Z" fill="black"/>
<path d="M24.5255 33.5166H21.5285V36.5136H24.5255V33.5166Z" fill="black"/>
<path d="M33.5165 33.5166H30.5195V36.5136H33.5165V33.5166Z" fill="black"/>
<path d="M42.5075 33.5166H39.5105V36.5136H42.5075V33.5166Z" fill="black"/>
<path d="M48.5015 33.5166H45.5045V36.5136H48.5015V33.5166Z" fill="black"/>
<path d="M51.4985 33.5166H48.5015V36.5136H51.4985V33.5166Z" fill="black"/>
<path d="M54.4955 33.5166H51.4985V36.5136H54.4955V33.5166Z" fill="black"/>
<path d="M57.4925 33.5166H54.4955V36.5136H57.4925V33.5166Z" fill="black"/>
<path d="M60.4895 33.5166H57.4925V36.5136H60.4895V33.5166Z" fill="black"/>
<path d="M72.4775 33.5166H69.4805V36.5136H72.4775V33.5166Z" fill="black"/>
<path d="M75.4745 33.5166H72.4775V36.5136H75.4745V33.5166Z" fill="black"/>
<path d="M81.4685 33.5166H78.4715V36.5136H81.4685V33.5166Z" fill="black"/>
<path d="M90.4595 33.5166H87.4625V36.5136H90.4595V33.5166Z" fill="black"/>
<path d="M93.4565 33.5166H90.4595V36.5136H93.4565V33.5166Z" fill="black"/>
<path d="M96.4535 33.5166H93.4565V36.5136H96.4535V33.5166Z" fill="black"/>
<path d="M99.4505 33.5166H96.4535V36.5136H99.4505V33.5166Z" fill="black"/>
<path d="M3.54644 36.5136H0.549438V39.5106H3.54644V36.5136Z" fill="black"/>
<path d="M18.5315 36.5136H15.5345V39.5106H18.5315V36.5136Z" fill="black"/>
<path d="M21.5285 36.5136H18.5315V39.5106H21.5285V36.5136Z" fill="black"/>
<path d="M27.5225 36.5136H24.5255V39.5106H27.5225V36.5136Z" fill="black"/>
<path d="M30.5195 36.5136H27.5225V39.5106H30.5195V36.5136Z" fill="black"/>
<path d="M33.5165 36.5136H30.5195V39.5106H33.5165V36.5136Z" fill="black"/>
<path d="M39.5105 36.5136H36.5135V39.5106H39.5105V36.5136Z" fill="black"/>
<path d="M57.4925 36.5136H54.4955V39.5106H57.4925V36.5136Z" fill="black"/>
<path d="M66.4835 36.5136H63.4865V39.5106H66.4835V36.5136Z" fill="black"/>
<path d="M69.4805 36.5136H66.4835V39.5106H69.4805V36.5136Z" fill="black"/>
<path d="M75.4745 36.5136H72.4775V39.5106H75.4745V36.5136Z" fill="black"/>
<path d="M81.4685 36.5136H78.4715V39.5106H81.4685V36.5136Z" fill="black"/>
<path d="M87.4625 36.5136H84.4655V39.5106H87.4625V36.5136Z" fill="black"/>
<path d="M9.54045 39.5106H6.54344V42.5076H9.54045V39.5106Z" fill="black"/>
<path d="M15.5345 39.5106H12.5374V42.5076H15.5345V39.5106Z" fill="black"/>
<path d="M27.5225 39.5106H24.5255V42.5076H27.5225V39.5106Z" fill="black"/>
<path d="M30.5195 39.5106H27.5225V42.5076H30.5195V39.5106Z" fill="black"/>
<path d="M33.5165 39.5106H30.5195V42.5076H33.5165V39.5106Z" fill="black"/>
<path d="M45.5045 39.5106H42.5075V42.5076H45.5045V39.5106Z" fill="black"/>
<path d="M48.5015 39.5106H45.5045V42.5076H48.5015V39.5106Z" fill="black"/>
<path d="M54.4955 39.5106H51.4985V42.5076H54.4955V39.5106Z" fill="black"/>
<path d="M60.4895 39.5106H57.4925L57.4925 42.5076H60.4895V39.5106Z" fill="black"/>
<path d="M63.4865 39.5106H60.4895V42.5076H63.4865V39.5106Z" fill="black"/>
<path d="M66.4835 39.5106H63.4865V42.5076H66.4835V39.5106Z" fill="black"/>
<path d="M72.4775 39.5106H69.4805V42.5076H72.4775V39.5106Z" fill="black"/>
<path d="M75.4745 39.5106H72.4775V42.5076H75.4745V39.5106Z" fill="black"/>
<path d="M90.4595 39.5106H87.4625V42.5076H90.4595V39.5106Z" fill="black"/>
<path d="M99.4505 39.5106H96.4535V42.5076H99.4505V39.5106Z" fill="black"/>
<path d="M6.54344 42.5076H3.54644V45.5046H6.54344V42.5076Z" fill="black"/>
<path d="M9.54045 42.5076H6.54344V45.5046H9.54045V42.5076Z" fill="black"/>
<path d="M18.5315 42.5076H15.5345V45.5046H18.5315V42.5076Z" fill="black"/>
<path d="M21.5285 42.5076H18.5315V45.5046H21.5285V42.5076Z" fill="black"/>
<path d="M27.5225 42.5076H24.5255V45.5046H27.5225V42.5076Z" fill="black"/>
<path d="M39.5105 42.5076H36.5135V45.5046H39.5105V42.5076Z" fill="black"/>
<path d="M42.5075 42.5076H39.5105V45.5046H42.5075V42.5076Z" fill="black"/>
<path d="M45.5045 42.5076H42.5075V45.5046H45.5045V42.5076Z" fill="black"/>
<path d="M48.5015 42.5076H45.5045V45.5046H48.5015V42.5076Z" fill="black"/>
<path d="M51.4985 42.5076H48.5015V45.5046H51.4985V42.5076Z" fill="black"/>
<path d="M60.4895 42.5076H57.4925V45.5046H60.4895V42.5076Z" fill="black"/>
<path d="M66.4835 42.5076H63.4865V45.5046H66.4835V42.5076Z" fill="black"/>
<path d="M69.4805 42.5076H66.4835V45.5046H69.4805V42.5076Z" fill="black"/>
<path d="M78.4715 42.5076H75.4745V45.5046H78.4715V42.5076Z" fill="black"/>
<path d="M81.4685 42.5076H78.4715V45.5046H81.4685V42.5076Z" fill="black"/>
<path d="M84.4655 42.5076H81.4685V45.5046H84.4655V42.5076Z" fill="black"/>
<path d="M87.4625 42.5076H84.4655V45.5046H87.4625V42.5076Z" fill="black"/>
<path d="M90.4595 42.5076H87.4625V45.5046H90.4595V42.5076Z" fill="black"/>
<path d="M93.4565 42.5076H90.4595V45.5046H93.4565V42.5076Z" fill="black"/>
<path d="M96.4535 42.5076H93.4565V45.5046H96.4535V42.5076Z" fill="black"/>
<path d="M18.5315 45.5046H15.5345V48.5016H18.5315V45.5046Z" fill="black"/>
<path d="M24.5255 45.5046H21.5285V48.5016H24.5255V45.5046Z" fill="black"/>
<path d="M27.5225 45.5046H24.5255V48.5016H27.5225V45.5046Z" fill="black"/>
<path d="M36.5135 45.5046H33.5165V48.5016H36.5135V45.5046Z" fill="black"/>
<path d="M48.5015 45.5046H45.5045V48.5016H48.5015V45.5046Z" fill="black"/>
<path d="M54.4955 45.5046H51.4985V48.5016H54.4955V45.5046Z" fill="black"/>
<path d="M57.4925 45.5046H54.4955V48.5016H57.4925L57.4925 45.5046Z" fill="black"/>
<path d="M63.4865 45.5046H60.4895V48.5016H63.4865V45.5046Z" fill="black"/>
<path d="M66.4835 45.5046H63.4865V48.5016H66.4835V45.5046Z" fill="black"/>
<path d="M69.4805 45.5046H66.4835V48.5016H69.4805V45.5046Z" fill="black"/>
<path d="M72.4775 45.5046H69.4805V48.5016H72.4775V45.5046Z" fill="black"/>
<path d="M78.4715 45.5046H75.4745V48.5016H78.4715V45.5046Z" fill="black"/>
<path d="M93.4565 45.5046H90.4595V48.5016H93.4565V45.5046Z" fill="black"/>
<path d="M6.54344 48.5016H3.54644V51.4986H6.54344V48.5016Z" fill="black"/>
<path d="M9.54045 48.5016H6.54344V51.4986H9.54045V48.5016Z" fill="black"/>
<path d="M15.5345 48.5016H12.5374V51.4986H15.5345V48.5016Z" fill="black"/>
<path d="M18.5315 48.5016H15.5345V51.4986H18.5315V48.5016Z" fill="black"/>
<path d="M21.5285 48.5016H18.5315V51.4986H21.5285V48.5016Z" fill="black"/>
<path d="M24.5255 48.5016H21.5285V51.4986H24.5255V48.5016Z" fill="black"/>
<path d="M27.5225 48.5016H24.5255V51.4986H27.5225V48.5016Z" fill="black"/>
<path d="M30.5195 48.5016H27.5225V51.4986H30.5195V48.5016Z" fill="black"/>
<path d="M33.5165 48.5016H30.5195V51.4986H33.5165V48.5016Z" fill="black"/>
<path d="M36.5135 48.5016H33.5165V51.4986H36.5135V48.5016Z" fill="black"/>
<path d="M39.5105 48.5016H36.5135V51.4986H39.5105V48.5016Z" fill="black"/>
<path d="M57.4925 48.5016H54.4955V51.4986H57.4925V48.5016Z" fill="black"/>
<path d="M63.4865 48.5016H60.4895V51.4986H63.4865V48.5016Z" fill="black"/>
<path d="M66.4835 48.5016H63.4865V51.4986H66.4835V48.5016Z" fill="black"/>
<path d="M78.4715 48.5016H75.4745V51.4986H78.4715V48.5016Z" fill="black"/>
<path d="M84.4655 48.5016H81.4685V51.4986H84.4655V48.5016Z" fill="black"/>
<path d="M87.4625 48.5016H84.4655V51.4986H87.4625V48.5016Z" fill="black"/>
<path d="M90.4595 48.5016H87.4625V51.4986H90.4595V48.5016Z" fill="black"/>
<path d="M93.4565 48.5016H90.4595V51.4986H93.4565V48.5016Z" fill="black"/>
<path d="M6.54344 51.4986H3.54644V54.4956H6.54344V51.4986Z" fill="black"/>
<path d="M18.5315 51.4986H15.5345V54.4956H18.5315V51.4986Z" fill="black"/>
<path d="M24.5255 51.4986H21.5285V54.4956H24.5255V51.4986Z" fill="black"/>
<path d="M27.5225 51.4986H24.5255V54.4956H27.5225V51.4986Z" fill="black"/>
<path d="M30.5195 51.4986H27.5225V54.4956H30.5195V51.4986Z" fill="black"/>
<path d="M36.5135 51.4986H33.5165V54.4956H36.5135V51.4986Z" fill="black"/>
<path d="M42.5075 51.4986H39.5105V54.4956H42.5075V51.4986Z" fill="black"/>
<path d="M45.5045 51.4986H42.5075V54.4956H45.5045V51.4986Z" fill="black"/>
<path d="M60.4895 51.4986H57.4925L57.4925 54.4956H60.4895V51.4986Z" fill="black"/>
<path d="M75.4745 51.4986H72.4775V54.4956H75.4745V51.4986Z" fill="black"/>
<path d="M81.4685 51.4986H78.4715V54.4956H81.4685V51.4986Z" fill="black"/>
<path d="M84.4655 51.4986H81.4685V54.4956H84.4655V51.4986Z" fill="black"/>
<path d="M87.4625 51.4986H84.4655V54.4956H87.4625V51.4986Z" fill="black"/>
<path d="M90.4595 51.4986H87.4625V54.4956H90.4595V51.4986Z" fill="black"/>
<path d="M93.4565 51.4986H90.4595V54.4956H93.4565V51.4986Z" fill="black"/>
<path d="M96.4535 51.4986H93.4565V54.4956H96.4535V51.4986Z" fill="black"/>
<path d="M99.4505 51.4986H96.4535V54.4956H99.4505V51.4986Z" fill="black"/>
<path d="M3.54644 54.4956H0.549438V57.4926H3.54644V54.4956Z" fill="black"/>
<path d="M9.54045 54.4956H6.54344V57.4926H9.54045V54.4956Z" fill="black"/>
<path d="M12.5374 54.4956H9.54045V57.4926H12.5374V54.4956Z" fill="black"/>
<path d="M15.5345 54.4956H12.5374V57.4926H15.5345V54.4956Z" fill="black"/>
<path d="M18.5315 54.4956H15.5345V57.4926H18.5315V54.4956Z" fill="black"/>
<path d="M21.5285 54.4956H18.5315V57.4926H21.5285V54.4956Z" fill="black"/>
<path d="M24.5255 54.4956H21.5285V57.4926H24.5255V54.4956Z" fill="black"/>
<path d="M27.5225 54.4956H24.5255V57.4926H27.5225V54.4956Z" fill="black"/>
<path d="M33.5165 54.4956H30.5195V57.4926H33.5165V54.4956Z" fill="black"/>
<path d="M48.5015 54.4956H45.5045V57.4926H48.5015V54.4956Z" fill="black"/>
<path d="M51.4985 54.4956H48.5015V57.4926H51.4985V54.4956Z" fill="black"/>
<path d="M57.4925 54.4956H54.4955V57.4926H57.4925L57.4925 54.4956Z" fill="black"/>
<path d="M60.4895 54.4956H57.4925L57.4925 57.4926H60.4895V54.4956Z" fill="black"/>
<path d="M69.4805 54.4956H66.4835V57.4926H69.4805V54.4956Z" fill="black"/>
<path d="M72.4775 54.4956H69.4805V57.4926H72.4775V54.4956Z" fill="black"/>
<path d="M75.4745 54.4956H72.4775V57.4926H75.4745V54.4956Z" fill="black"/>
<path d="M81.4685 54.4956H78.4715V57.4926H81.4685V54.4956Z" fill="black"/>
<path d="M84.4655 54.4956H81.4685V57.4926H84.4655V54.4956Z" fill="black"/>
<path d="M87.4625 54.4956H84.4655V57.4926H87.4625V54.4956Z" fill="black"/>
<path d="M96.4535 54.4956H93.4565V57.4926H96.4535V54.4956Z" fill="black"/>
<path d="M99.4505 54.4956H96.4535V57.4926H99.4505V54.4956Z" fill="black"/>
<path d="M3.54644 57.4926H0.549438V60.4896H3.54644V57.4926Z" fill="black"/>
<path d="M12.5374 57.4926H9.54045V60.4896H12.5374V57.4926Z" fill="black"/>
<path d="M24.5255 57.4926H21.5285V60.4896H24.5255V57.4926Z" fill="black"/>
<path d="M30.5195 57.4926H27.5225V60.4896H30.5195V57.4926Z" fill="black"/>
<path d="M36.5135 57.4926L33.5165 57.4926V60.4896H36.5135V57.4926Z" fill="black"/>
<path d="M45.5045 57.4926L42.5075 57.4926V60.4896H45.5045V57.4926Z" fill="black"/>
<path d="M69.4805 57.4926H66.4835V60.4896H69.4805V57.4926Z" fill="black"/>
<path d="M75.4745 57.4926H72.4775V60.4896H75.4745V57.4926Z" fill="black"/>
<path d="M78.4715 57.4926H75.4745V60.4896H78.4715V57.4926Z" fill="black"/>
<path d="M81.4685 57.4926H78.4715V60.4896H81.4685V57.4926Z" fill="black"/>
<path d="M90.4595 57.4926L87.4625 57.4926V60.4896H90.4595V57.4926Z" fill="black"/>
<path d="M99.4505 57.4926H96.4535V60.4896H99.4505V57.4926Z" fill="black"/>
<path d="M3.54644 60.4896H0.549438V63.4866H3.54644V60.4896Z" fill="black"/>
<path d="M6.54344 60.4896H3.54644V63.4866H6.54344V60.4896Z" fill="black"/>
<path d="M9.54045 60.4896H6.54344V63.4866H9.54045V60.4896Z" fill="black"/>
<path d="M21.5285 60.4896H18.5315V63.4866H21.5285V60.4896Z" fill="black"/>
<path d="M39.5105 60.4896H36.5135V63.4866H39.5105V60.4896Z" fill="black"/>
<path d="M42.5075 60.4896H39.5105V63.4866H42.5075V60.4896Z" fill="black"/>
<path d="M45.5045 60.4896H42.5075V63.4866H45.5045V60.4896Z" fill="black"/>
<path d="M51.4985 60.4896H48.5015V63.4866H51.4985V60.4896Z" fill="black"/>
<path d="M54.4955 60.4896H51.4985V63.4866H54.4955V60.4896Z" fill="black"/>
<path d="M57.4925 60.4896H54.4955V63.4866H57.4925V60.4896Z" fill="black"/>
<path d="M60.4895 60.4896H57.4925V63.4866H60.4895V60.4896Z" fill="black"/>
<path d="M66.4835 60.4896H63.4865V63.4866H66.4835V60.4896Z" fill="black"/>
<path d="M69.4805 60.4896H66.4835V63.4866H69.4805V60.4896Z" fill="black"/>
<path d="M72.4775 60.4896H69.4805V63.4866H72.4775V60.4896Z" fill="black"/>
<path d="M84.4655 60.4896H81.4685V63.4866H84.4655V60.4896Z" fill="black"/>
<path d="M93.4565 60.4896H90.4595V63.4866H93.4565V60.4896Z" fill="black"/>
<path d="M96.4535 60.4896H93.4565V63.4866H96.4535V60.4896Z" fill="black"/>
<path d="M3.54644 63.4866H0.549438V66.4836H3.54644V63.4866Z" fill="black"/>
<path d="M12.5374 63.4866H9.54045V66.4836H12.5374V63.4866Z" fill="black"/>
<path d="M15.5345 63.4866H12.5374V66.4836H15.5345V63.4866Z" fill="black"/>
<path d="M18.5315 63.4866H15.5345V66.4836H18.5315V63.4866Z" fill="black"/>
<path d="M27.5225 63.4866H24.5255V66.4836H27.5225V63.4866Z" fill="black"/>
<path d="M33.5165 63.4866H30.5195V66.4836H33.5165V63.4866Z" fill="black"/>
<path d="M36.5135 63.4866H33.5165V66.4836H36.5135V63.4866Z" fill="black"/>
<path d="M39.5105 63.4866H36.5135V66.4836H39.5105V63.4866Z" fill="black"/>
<path d="M42.5075 63.4866H39.5105V66.4836H42.5075V63.4866Z" fill="black"/>
<path d="M48.5015 63.4866H45.5045V66.4836H48.5015V63.4866Z" fill="black"/>
<path d="M51.4985 63.4866H48.5015V66.4836H51.4985V63.4866Z" fill="black"/>
<path d="M57.4925 63.4866H54.4955V66.4836H57.4925V63.4866Z" fill="black"/>
<path d="M66.4835 63.4866H63.4865V66.4836H66.4835V63.4866Z" fill="black"/>
<path d="M78.4715 63.4866H75.4745V66.4836H78.4715V63.4866Z" fill="black"/>
<path d="M81.4685 63.4866H78.4715V66.4836H81.4685V63.4866Z" fill="black"/>
<path d="M93.4565 63.4866H90.4595V66.4836H93.4565V63.4866Z" fill="black"/>
<path d="M99.4505 63.4866H96.4535V66.4836H99.4505V63.4866Z" fill="black"/>
<path d="M15.5345 66.4836H12.5374V69.4806H15.5345V66.4836Z" fill="black"/>
<path d="M18.5315 66.4836H15.5345V69.4806H18.5315V66.4836Z" fill="black"/>
<path d="M21.5285 66.4836H18.5315V69.4806H21.5285V66.4836Z" fill="black"/>
<path d="M24.5255 66.4836H21.5285V69.4806H24.5255V66.4836Z" fill="black"/>
<path d="M33.5165 66.4836H30.5195V69.4806H33.5165V66.4836Z" fill="black"/>
<path d="M36.5135 66.4836H33.5165V69.4806H36.5135V66.4836Z" fill="black"/>
<path d="M39.5105 66.4836H36.5135V69.4806H39.5105V66.4836Z" fill="black"/>
<path d="M45.5045 66.4836H42.5075V69.4806H45.5045V66.4836Z" fill="black"/>
<path d="M48.5015 66.4836H45.5045V69.4806H48.5015V66.4836Z" fill="black"/>
<path d="M51.4985 66.4836H48.5015V69.4806H51.4985V66.4836Z" fill="black"/>
<path d="M60.4895 66.4836H57.4925L57.4925 69.4806H60.4895V66.4836Z" fill="black"/>
<path d="M63.4865 66.4836H60.4895V69.4806H63.4865V66.4836Z" fill="black"/>
<path d="M66.4835 66.4836H63.4865V69.4806H66.4835V66.4836Z" fill="black"/>
<path d="M72.4775 66.4836H69.4805V69.4806H72.4775V66.4836Z" fill="black"/>
<path d="M75.4745 66.4836H72.4775V69.4806H75.4745V66.4836Z" fill="black"/>
<path d="M87.4625 66.4836H84.4655V69.4806H87.4625V66.4836Z" fill="black"/>
<path d="M90.4595 66.4836H87.4625V69.4806H90.4595V66.4836Z" fill="black"/>
<path d="M93.4565 66.4836H90.4595V69.4806H93.4565V66.4836Z" fill="black"/>
<path d="M96.4535 66.4836H93.4565V69.4806H96.4535V66.4836Z" fill="black"/>
<path d="M3.54644 69.4806H0.549438V72.4776H3.54644V69.4806Z" fill="black"/>
<path d="M6.54344 69.4806H3.54644V72.4776H6.54344V69.4806Z" fill="black"/>
<path d="M12.5374 69.4806H9.54045V72.4776H12.5374V69.4806Z" fill="black"/>
<path d="M15.5345 69.4806H12.5374V72.4776H15.5345V69.4806Z" fill="black"/>
<path d="M18.5315 69.4806H15.5345V72.4776H18.5315V69.4806Z" fill="black"/>
<path d="M27.5225 69.4806H24.5255V72.4776H27.5225V69.4806Z" fill="black"/>
<path d="M30.5195 69.4806H27.5225V72.4776H30.5195V69.4806Z" fill="black"/>
<path d="M33.5165 69.4806H30.5195V72.4776H33.5165V69.4806Z" fill="black"/>
<path d="M36.5135 69.4806H33.5165V72.4776H36.5135V69.4806Z" fill="black"/>
<path d="M42.5075 69.4806H39.5105V72.4776H42.5075V69.4806Z" fill="black"/>
<path d="M51.4985 69.4806H48.5015V72.4776H51.4985V69.4806Z" fill="black"/>
<path d="M54.4955 69.4806H51.4985V72.4776H54.4955V69.4806Z" fill="black"/>
<path d="M63.4865 69.4806H60.4895V72.4776H63.4865V69.4806Z" fill="black"/>
<path d="M72.4775 69.4806H69.4805V72.4776H72.4775V69.4806Z" fill="black"/>
<path d="M75.4745 69.4806H72.4775V72.4776H75.4745V69.4806Z" fill="black"/>
<path d="M78.4715 69.4806H75.4745V72.4776H78.4715V69.4806Z" fill="black"/>
<path d="M81.4685 69.4806H78.4715V72.4776H81.4685V69.4806Z" fill="black"/>
<path d="M87.4625 69.4806H84.4655V72.4776H87.4625V69.4806Z" fill="black"/>
<path d="M93.4565 69.4806H90.4595V72.4776H93.4565V69.4806Z" fill="black"/>
<path d="M96.4535 69.4806H93.4565V72.4776H96.4535V69.4806Z" fill="black"/>
<path d="M6.54344 72.4776H3.54644V75.4746H6.54344V72.4776Z" fill="black"/>
<path d="M12.5374 72.4776H9.54045V75.4746H12.5374V72.4776Z" fill="black"/>
<path d="M15.5345 72.4776H12.5374V75.4746H15.5345V72.4776Z" fill="black"/>
<path d="M21.5285 72.4776H18.5315V75.4746H21.5285V72.4776Z" fill="black"/>
<path d="M24.5255 72.4776H21.5285V75.4746H24.5255V72.4776Z" fill="black"/>
<path d="M33.5165 72.4776H30.5195V75.4746H33.5165V72.4776Z" fill="black"/>
<path d="M36.5135 72.4776H33.5165V75.4746H36.5135V72.4776Z" fill="black"/>
<path d="M45.5045 72.4776H42.5075V75.4746H45.5045V72.4776Z" fill="black"/>
<path d="M48.5015 72.4776H45.5045V75.4746H48.5015V72.4776Z" fill="black"/>
<path d="M51.4985 72.4776H48.5015V75.4746H51.4985V72.4776Z" fill="black"/>
<path d="M54.4955 72.4776H51.4985V75.4746H54.4955V72.4776Z" fill="black"/>
<path d="M57.4925 72.4776H54.4955V75.4746H57.4925V72.4776Z" fill="black"/>
<path d="M60.4895 72.4776H57.4925V75.4746H60.4895V72.4776Z" fill="black"/>
<path d="M72.4775 72.4776H69.4805V75.4746H72.4775V72.4776Z" fill="black"/>
<path d="M75.4745 72.4776H72.4775V75.4746H75.4745V72.4776Z" fill="black"/>
<path d="M78.4715 72.4776H75.4745V75.4746H78.4715V72.4776Z" fill="black"/>
<path d="M81.4685 72.4776H78.4715V75.4746H81.4685V72.4776Z" fill="black"/>
<path d="M84.4655 72.4776H81.4685V75.4746H84.4655V72.4776Z" fill="black"/>
<path d="M87.4625 72.4776H84.4655V75.4746H87.4625V72.4776Z" fill="black"/>
<path d="M90.4595 72.4776H87.4625V75.4746H90.4595V72.4776Z" fill="black"/>
<path d="M33.5165 75.4746H30.5195V78.4716H33.5165V75.4746Z" fill="black"/>
<path d="M36.5135 75.4746H33.5165V78.4716H36.5135V75.4746Z" fill="black"/>
<path d="M39.5105 75.4746H36.5135V78.4716H39.5105V75.4746Z" fill="black"/>
<path d="M42.5075 75.4746H39.5105V78.4716H42.5075V75.4746Z" fill="black"/>
<path d="M48.5015 75.4746H45.5045V78.4716H48.5015V75.4746Z" fill="black"/>
<path d="M51.4985 75.4746H48.5015V78.4716H51.4985V75.4746Z" fill="black"/>
<path d="M54.4955 75.4746H51.4985V78.4716H54.4955V75.4746Z" fill="black"/>
<path d="M57.4925 75.4746H54.4955V78.4716H57.4925V75.4746Z" fill="black"/>
<path d="M66.4835 75.4746H63.4865V78.4716H66.4835V75.4746Z" fill="black"/>
<path d="M69.4805 75.4746H66.4835V78.4716H69.4805V75.4746Z" fill="black"/>
<path d="M75.4745 75.4746H72.4775V78.4716H75.4745V75.4746Z" fill="black"/>
<path d="M87.4625 75.4746H84.4655V78.4716H87.4625V75.4746Z" fill="black"/>
<path d="M3.54644 78.4716H0.549438V81.4686H3.54644V78.4716Z" fill="black"/>
<path d="M6.54344 78.4716H3.54644V81.4686H6.54344V78.4716Z" fill="black"/>
<path d="M9.54045 78.4716H6.54344V81.4686H9.54045V78.4716Z" fill="black"/>
<path d="M12.5374 78.4716H9.54045V81.4686H12.5374V78.4716Z" fill="black"/>
<path d="M15.5345 78.4716H12.5374V81.4686H15.5345V78.4716Z" fill="black"/>
<path d="M18.5315 78.4716H15.5345V81.4686H18.5315V78.4716Z" fill="black"/>
<path d="M21.5285 78.4716H18.5315V81.4686H21.5285V78.4716Z" fill="black"/>
<path d="M27.5225 78.4716H24.5255V81.4686H27.5225V78.4716Z" fill="black"/>
<path d="M30.5195 78.4716H27.5225V81.4686H30.5195V78.4716Z" fill="black"/>
<path d="M33.5165 78.4716H30.5195V81.4686H33.5165V78.4716Z" fill="black"/>
<path d="M45.5045 78.4716H42.5075V81.4686H45.5045V78.4716Z" fill="black"/>
<path d="M48.5015 78.4716H45.5045V81.4686H48.5015V78.4716Z" fill="black"/>
<path d="M51.4985 78.4716H48.5015V81.4686H51.4985V78.4716Z" fill="black"/>
<path d="M54.4955 78.4716H51.4985V81.4686H54.4955V78.4716Z" fill="black"/>
<path d="M60.4895 78.4716H57.4925L57.4925 81.4686H60.4895V78.4716Z" fill="black"/>
<path d="M66.4835 78.4716H63.4865V81.4686H66.4835V78.4716Z" fill="black"/>
<path d="M69.4805 78.4716H66.4835V81.4686H69.4805V78.4716Z" fill="black"/>
<path d="M75.4745 78.4716H72.4775V81.4686H75.4745V78.4716Z" fill="black"/>
<path d="M81.4685 78.4716H78.4715V81.4686H81.4685V78.4716Z" fill="black"/>
<path d="M87.4625 78.4716H84.4655V81.4686H87.4625V78.4716Z" fill="black"/>
<path d="M93.4565 78.4716H90.4595V81.4686H93.4565V78.4716Z" fill="black"/>
<path d="M3.54644 81.4686H0.549438V84.4656H3.54644V81.4686Z" fill="black"/>
<path d="M21.5285 81.4686H18.5315V84.4656H21.5285V81.4686Z" fill="black"/>
<path d="M30.5195 81.4686H27.5225V84.4656H30.5195V81.4686Z" fill="black"/>
<path d="M33.5165 81.4686H30.5195V84.4656H33.5165V81.4686Z" fill="black"/>
<path d="M36.5135 81.4686H33.5165V84.4656H36.5135V81.4686Z" fill="black"/>
<path d="M42.5075 81.4686H39.5105V84.4656H42.5075V81.4686Z" fill="black"/>
<path d="M45.5045 81.4686H42.5075V84.4656H45.5045V81.4686Z" fill="black"/>
<path d="M48.5015 81.4686H45.5045V84.4656H48.5015V81.4686Z" fill="black"/>
<path d="M57.4925 81.4686H54.4955V84.4656H57.4925L57.4925 81.4686Z" fill="black"/>
<path d="M69.4805 81.4686H66.4835V84.4656H69.4805V81.4686Z" fill="black"/>
<path d="M75.4745 81.4686H72.4775V84.4656H75.4745V81.4686Z" fill="black"/>
<path d="M87.4625 81.4686H84.4655V84.4656H87.4625V81.4686Z" fill="black"/>
<path d="M90.4595 81.4686H87.4625V84.4656H90.4595V81.4686Z" fill="black"/>
<path d="M93.4565 81.4686H90.4595V84.4656H93.4565V81.4686Z" fill="black"/>
<path d="M96.4535 81.4686H93.4565V84.4656H96.4535V81.4686Z" fill="black"/>
<path d="M3.54644 84.4656H0.549438V87.4626H3.54644V84.4656Z" fill="black"/>
<path d="M9.54045 84.4656H6.54344V87.4626H9.54045V84.4656Z" fill="black"/>
<path d="M12.5374 84.4656H9.54045V87.4626H12.5374V84.4656Z" fill="black"/>
<path d="M15.5345 84.4656H12.5374V87.4626H15.5345V84.4656Z" fill="black"/>
<path d="M21.5285 84.4656H18.5315V87.4626H21.5285V84.4656Z" fill="black"/>
<path d="M33.5165 84.4656H30.5195V87.4626H33.5165V84.4656Z" fill="black"/>
<path d="M39.5105 84.4656H36.5135V87.4626H39.5105V84.4656Z" fill="black"/>
<path d="M45.5045 84.4656H42.5075V87.4626H45.5045V84.4656Z" fill="black"/>
<path d="M48.5015 84.4656H45.5045V87.4626H48.5015V84.4656Z" fill="black"/>
<path d="M51.4985 84.4656H48.5015V87.4626H51.4985V84.4656Z" fill="black"/>
<path d="M54.4955 84.4656H51.4985V87.4626H54.4955V84.4656Z" fill="black"/>
<path d="M57.4925 84.4656H54.4955V87.4626H57.4925V84.4656Z" fill="black"/>
<path d="M60.4895 84.4656H57.4925V87.4626H60.4895V84.4656Z" fill="black"/>
<path d="M69.4805 84.4656H66.4835V87.4626H69.4805V84.4656Z" fill="black"/>
<path d="M75.4745 84.4656H72.4775V87.4626H75.4745V84.4656Z" fill="black"/>
<path d="M78.4715 84.4656H75.4745V87.4626H78.4715V84.4656Z" fill="black"/>
<path d="M81.4685 84.4656H78.4715V87.4626H81.4685V84.4656Z" fill="black"/>
<path d="M84.4655 84.4656H81.4685V87.4626H84.4655V84.4656Z" fill="black"/>
<path d="M87.4625 84.4656H84.4655V87.4626H87.4625V84.4656Z" fill="black"/>
<path d="M96.4535 84.4656H93.4565V87.4626H96.4535V84.4656Z" fill="black"/>
<path d="M99.4505 84.4656H96.4535V87.4626H99.4505V84.4656Z" fill="black"/>
<path d="M3.54644 87.4626H0.549438V90.4596H3.54644V87.4626Z" fill="black"/>
<path d="M9.54045 87.4626H6.54344V90.4596H9.54045V87.4626Z" fill="black"/>
<path d="M12.5374 87.4626H9.54045V90.4596H12.5374V87.4626Z" fill="black"/>
<path d="M15.5345 87.4626H12.5374V90.4596H15.5345V87.4626Z" fill="black"/>
<path d="M21.5285 87.4626H18.5315V90.4596H21.5285V87.4626Z" fill="black"/>
<path d="M27.5225 87.4626H24.5255V90.4596H27.5225V87.4626Z" fill="black"/>
<path d="M30.5195 87.4626H27.5225V90.4596H30.5195V87.4626Z" fill="black"/>
<path d="M33.5165 87.4626H30.5195V90.4596H33.5165V87.4626Z" fill="black"/>
<path d="M36.5135 87.4626H33.5165V90.4596H36.5135V87.4626Z" fill="black"/>
<path d="M39.5105 87.4626H36.5135V90.4596H39.5105V87.4626Z" fill="black"/>
<path d="M48.5015 87.4626H45.5045V90.4596H48.5015V87.4626Z" fill="black"/>
<path d="M51.4985 87.4626H48.5015V90.4596H51.4985V87.4626Z" fill="black"/>
<path d="M54.4955 87.4626H51.4985V90.4596H54.4955V87.4626Z" fill="black"/>
<path d="M63.4865 87.4626H60.4895V90.4596H63.4865V87.4626Z" fill="black"/>
<path d="M66.4835 87.4626H63.4865V90.4596H66.4835V87.4626Z" fill="black"/>
<path d="M72.4775 87.4626H69.4805V90.4596H72.4775V87.4626Z" fill="black"/>
<path d="M75.4745 87.4626H72.4775V90.4596H75.4745V87.4626Z" fill="black"/>
<path d="M78.4715 87.4626H75.4745V90.4596H78.4715V87.4626Z" fill="black"/>
<path d="M84.4655 87.4626H81.4685V90.4596H84.4655V87.4626Z" fill="black"/>
<path d="M90.4595 87.4626H87.4625V90.4596H90.4595V87.4626Z" fill="black"/>
<path d="M93.4565 87.4626H90.4595V90.4596H93.4565V87.4626Z" fill="black"/>
<path d="M3.54644 90.4596H0.549438V93.4566H3.54644V90.4596Z" fill="black"/>
<path d="M9.54045 90.4596H6.54344V93.4566H9.54045V90.4596Z" fill="black"/>
<path d="M12.5374 90.4596H9.54045V93.4566H12.5374V90.4596Z" fill="black"/>
<path d="M15.5345 90.4596H12.5374V93.4566H15.5345V90.4596Z" fill="black"/>
<path d="M21.5285 90.4596H18.5315V93.4566H21.5285V90.4596Z" fill="black"/>
<path d="M30.5195 90.4596H27.5225V93.4566H30.5195V90.4596Z" fill="black"/>
<path d="M42.5075 90.4596H39.5105V93.4566H42.5075V90.4596Z" fill="black"/>
<path d="M48.5015 90.4596H45.5045V93.4566H48.5015V90.4596Z" fill="black"/>
<path d="M51.4985 90.4596H48.5015V93.4566H51.4985V90.4596Z" fill="black"/>
<path d="M57.4925 90.4596H54.4955V93.4566H57.4925V90.4596Z" fill="black"/>
<path d="M63.4865 90.4596H60.4895V93.4566H63.4865V90.4596Z" fill="black"/>
<path d="M69.4805 90.4596H66.4835V93.4566H69.4805V90.4596Z" fill="black"/>
<path d="M75.4745 90.4596H72.4775V93.4566H75.4745V90.4596Z" fill="black"/>
<path d="M84.4655 90.4596H81.4685V93.4566H84.4655V90.4596Z" fill="black"/>
<path d="M87.4625 90.4596H84.4655V93.4566H87.4625V90.4596Z" fill="black"/>
<path d="M90.4595 90.4596H87.4625V93.4566H90.4595V90.4596Z" fill="black"/>
<path d="M3.54644 93.4566H0.549438V96.4537H3.54644V93.4566Z" fill="black"/>
<path d="M21.5285 93.4566H18.5315V96.4537H21.5285V93.4566Z" fill="black"/>
<path d="M27.5225 93.4566H24.5255V96.4537H27.5225V93.4566Z" fill="black"/>
<path d="M33.5165 93.4566H30.5195V96.4537H33.5165V93.4566Z" fill="black"/>
<path d="M36.5135 93.4566H33.5165V96.4537H36.5135V93.4566Z" fill="black"/>
<path d="M39.5105 93.4566H36.5135V96.4537H39.5105V93.4566Z" fill="black"/>
<path d="M42.5075 93.4566H39.5105V96.4537H42.5075V93.4566Z" fill="black"/>
<path d="M54.4955 93.4566H51.4985V96.4537H54.4955V93.4566Z" fill="black"/>
<path d="M57.4925 93.4566H54.4955V96.4537H57.4925V93.4566Z" fill="black"/>
<path d="M60.4895 93.4566H57.4925V96.4537H60.4895V93.4566Z" fill="black"/>
<path d="M69.4805 93.4566H66.4835V96.4537H69.4805V93.4566Z" fill="black"/>
<path d="M90.4595 93.4566H87.4625V96.4537H90.4595V93.4566Z" fill="black"/>
<path d="M3.54644 96.4537H0.549438V99.4507H3.54644V96.4537Z" fill="black"/>
<path d="M6.54344 96.4537H3.54644V99.4507H6.54344V96.4537Z" fill="black"/>
<path d="M9.54045 96.4537H6.54344V99.4507H9.54045V96.4537Z" fill="black"/>
<path d="M12.5374 96.4537H9.54045V99.4507H12.5374V96.4537Z" fill="black"/>
<path d="M15.5345 96.4537H12.5374V99.4507H15.5345V96.4537Z" fill="black"/>
<path d="M18.5315 96.4537H15.5345V99.4507H18.5315V96.4537Z" fill="black"/>
<path d="M21.5285 96.4537H18.5315V99.4507H21.5285V96.4537Z" fill="black"/>
<path d="M27.5225 96.4537H24.5255V99.4507H27.5225V96.4537Z" fill="black"/>
<path d="M30.5195 96.4537H27.5225V99.4507H30.5195V96.4537Z" fill="black"/>
<path d="M33.5165 96.4537H30.5195V99.4507H33.5165V96.4537Z" fill="black"/>
<path d="M39.5105 96.4537H36.5135V99.4507H39.5105V96.4537Z" fill="black"/>
<path d="M54.4955 96.4537H51.4985V99.4507H54.4955V96.4537Z" fill="black"/>
<path d="M60.4895 96.4537H57.4925L57.4925 99.4507H60.4895V96.4537Z" fill="black"/>
<path d="M66.4835 96.4537H63.4865V99.4507H66.4835V96.4537Z" fill="black"/>
<path d="M69.4805 96.4537H66.4835V99.4507H69.4805V96.4537Z" fill="black"/>
<path d="M75.4745 96.4537H72.4775V99.4507H75.4745V96.4537Z" fill="black"/>
<path d="M90.4595 96.4537H87.4625V99.4507H90.4595V96.4537Z" fill="black"/>
<path d="M96.4535 96.4537H93.4565V99.4507H96.4535V96.4537Z" fill="black"/>
</svg>
