<svg width="20" height="20" viewBox="0 0 20 20" fill="none" xmlns="http://www.w3.org/2000/svg">
<g clip-path="url(#clip0_1535_7975)">
<path d="M16.8147 4.80649H5.72518L14.9727 1.12659C15.1859 1.04191 15.2896 0.800462 15.2051 0.587236C15.1204 0.374011 14.879 0.270313 14.6658 0.354836L3.48907 4.80649H3.17384C1.70933 4.80649 0 5.63623 0 7.98032V16.5432C0 18.8873 1.70933 19.7171 3.17384 19.7171H16.8147C18.2792 19.7171 19.9886 18.8873 19.9886 16.5432V7.98447C19.9927 5.64037 18.2917 4.80649 16.8147 4.80649ZM19.163 16.5432C19.163 18.6591 17.5035 18.8873 16.8189 18.8873H3.17384C2.4685 18.8873 0.829738 18.6591 0.829738 16.5432V7.98447C0.829738 5.86863 2.48921 5.64037 3.17384 5.64037H16.8147C17.5201 5.64037 19.1588 5.86863 19.1588 7.98447L19.163 16.5432Z" fill="#121212"/>
<path d="M4.1073 10.1709H15.8813C16.1103 10.1709 16.2963 9.98501 16.2963 9.75598V7.36218C16.2963 7.13316 16.1103 6.94724 15.8813 6.94724H4.1073C3.87827 6.94724 3.69235 7.13316 3.69235 7.36218V9.75598C3.69235 9.98501 3.87827 10.1709 4.1073 10.1709ZM15.4665 9.34103H12.5334V7.77697H15.4665V9.34103ZM4.52209 7.77697H11.7036V9.34103H4.52209V7.77697Z" fill="#121212"/>
<path d="M14.7985 11.5773C13.0984 11.5773 11.7202 12.9554 11.7202 14.6555C11.7202 16.3558 13.0984 17.734 14.7985 17.734C16.4988 17.734 17.8769 16.3558 17.8769 14.6555C17.8769 12.9554 16.4986 11.5773 14.7985 11.5773ZM14.7985 16.9042C13.5569 16.9042 12.55 15.8973 12.55 14.6555C12.55 13.4139 13.5569 12.407 14.7985 12.407C16.0403 12.407 17.0472 13.4139 17.0472 14.6555C17.0447 15.8965 16.0393 16.9018 14.7985 16.9042Z" fill="#121212"/>
<path d="M8.82017 14.4523C7.94273 14.4523 7.23126 15.1639 7.23126 16.0412C7.23126 16.9188 7.94273 17.6302 8.82017 17.6302C9.69762 17.6302 10.4092 16.9186 10.4092 16.0412C10.4092 15.1634 9.69762 14.4523 8.82017 14.4523ZM8.82017 16.7964C8.40078 16.7964 8.061 16.4566 8.061 16.0372C8.061 15.6176 8.40078 15.2779 8.82017 15.2779C9.23972 15.2779 9.57935 15.6176 9.57935 16.0372C9.57935 16.4561 9.23972 16.7964 8.82017 16.7964Z" fill="#121212"/>
<path d="M4.7046 14.4523C3.82716 14.4523 3.11569 15.1639 3.11569 16.0412C3.11569 16.9188 3.82716 17.6302 4.7046 17.6302C5.58205 17.6302 6.29352 16.9186 6.29352 16.0412C6.29367 15.1634 5.58205 14.4523 4.7046 14.4523ZM4.7046 16.7964C4.28521 16.7964 3.94543 16.4566 3.94543 16.0372C3.94543 15.6176 4.28521 15.2779 4.7046 15.2779C5.124 15.2779 5.46378 15.6176 5.46378 16.0372C5.46378 16.4566 5.124 16.7964 4.7046 16.7964Z" fill="#121212"/>
</g>
<defs>
<clipPath id="clip0_1535_7975">
<rect width="20" height="20" fill="white"/>
</clipPath>
</defs>
</svg>
