<svg width="20" height="20" viewBox="0 0 20 20" fill="none" xmlns="http://www.w3.org/2000/svg">
<g clip-path="url(#clip0_5472_6347)">
<path d="M6.25 17.9688C6.85406 17.9688 7.34375 17.4791 7.34375 16.875C7.34375 16.2709 6.85406 15.7812 6.25 15.7812C5.64594 15.7812 5.15625 16.2709 5.15625 16.875C5.15625 17.4791 5.64594 17.9688 6.25 17.9688Z" fill="#121212"/>
<path d="M14.375 17.9688C14.9791 17.9688 15.4688 17.4791 15.4688 16.875C15.4688 16.2709 14.9791 15.7812 14.375 15.7812C13.7709 15.7812 13.2812 16.2709 13.2812 16.875C13.2812 17.4791 13.7709 17.9688 14.375 17.9688Z" fill="#121212"/>
<path d="M3.30357 5.625H17.3214L15.259 12.8434C15.1844 13.1046 15.0267 13.3344 14.8099 13.4979C14.593 13.6615 14.3288 13.75 14.0571 13.75H6.56788C6.29624 13.75 6.03199 13.6615 5.81513 13.4979C5.59827 13.3344 5.4406 13.1046 5.36597 12.8434L2.54023 2.9533C2.50292 2.82271 2.42408 2.70782 2.31565 2.62603C2.20722 2.54424 2.07509 2.5 1.93928 2.5H0.625" stroke="#121212" stroke-width="1.5" stroke-linecap="round" stroke-linejoin="round"/>
</g>
<defs>
<clipPath id="clip0_5472_6347">
<rect width="20" height="20" fill="white"/>
</clipPath>
</defs>
</svg>
