<svg width="20" height="20" viewBox="0 0 20 20" fill="none" xmlns="http://www.w3.org/2000/svg">
<path d="M17.8346 10.8178L15.218 9.9336C14.8636 9.81381 14.5133 9.68458 14.1673 9.54591C14.2111 9.47806 14.227 9.39585 14.2116 9.31655C14.1961 9.23724 14.1505 9.16702 14.0843 9.12062C14.0182 9.07423 13.9366 9.05528 13.8568 9.06775C13.777 9.08022 13.7051 9.12315 13.6562 9.18751L13.5724 9.29934C13.3465 9.20122 13.1232 9.09833 12.901 8.99243L12.9378 8.94708C12.9901 8.88275 13.0147 8.8003 13.0062 8.71786C12.9976 8.63541 12.9567 8.55974 12.8924 8.50747C12.8281 8.4552 12.7456 8.43063 12.6632 8.43916C12.5807 8.44769 12.505 8.48861 12.4528 8.55294L12.3266 8.70829C12.1052 8.59415 11.886 8.47588 11.6689 8.35349L11.7256 8.28462C11.7519 8.25297 11.7718 8.21643 11.784 8.17709C11.7962 8.13775 11.8005 8.09639 11.7966 8.05539C11.7928 8.01439 11.7808 7.97455 11.7615 7.93816C11.7422 7.90178 11.7159 7.86957 11.6842 7.84339C11.6524 7.81721 11.6157 7.79757 11.5763 7.7856C11.5369 7.77363 11.4955 7.76956 11.4545 7.77364C11.4135 7.77772 11.3738 7.78986 11.3375 7.80936C11.3012 7.82886 11.2692 7.85534 11.2432 7.88727L11.1214 8.03505C10.9198 7.91356 10.7203 7.78856 10.5227 7.66005L10.5844 7.59106C10.6121 7.56053 10.6335 7.52483 10.6474 7.486C10.6612 7.44717 10.6672 7.40599 10.6651 7.36483C10.6629 7.32367 10.6526 7.28334 10.6348 7.24616C10.617 7.20898 10.5921 7.1757 10.5613 7.14821C10.5306 7.12073 10.4948 7.0996 10.4559 7.08603C10.4169 7.07246 10.3757 7.06672 10.3346 7.06915C10.2934 7.07158 10.2532 7.08213 10.2161 7.10018C10.1791 7.11823 10.1459 7.14344 10.1187 7.17434L9.99875 7.30837C9.65599 7.07063 9.31971 6.82253 8.98992 6.56407C8.5213 6.19418 7.92761 6.02022 7.33348 6.07869C6.73934 6.13716 6.19095 6.42352 5.80343 6.87766L5.73039 6.9629C5.59681 7.11874 5.43338 7.24626 5.24974 7.33795C5.0661 7.42963 4.86597 7.48363 4.66113 7.49675C4.4563 7.50988 4.25091 7.48186 4.05707 7.41436C3.86324 7.34686 3.68487 7.24124 3.5325 7.10372C3.14656 6.75501 2.64482 6.56213 2.12468 6.56251H2.0114C1.84117 6.5625 1.67267 6.59661 1.51583 6.66281C1.359 6.72901 1.21703 6.82596 1.09829 6.94794C0.979546 7.06992 0.886451 7.21446 0.824497 7.37301C0.762544 7.53157 0.732988 7.70093 0.737575 7.8711L0.742184 14.2777C0.73712 14.2927 0.733203 14.3081 0.730465 14.3236L0.645348 14.8341C0.609906 15.0468 0.621213 15.2646 0.67848 15.4724C0.735748 15.6803 0.837602 15.8732 0.97696 16.0376C1.11632 16.2021 1.28983 16.3343 1.48544 16.4249C1.68105 16.5156 1.89406 16.5625 2.10965 16.5625H17.8125C18.2268 16.562 18.6239 16.3973 18.9168 16.1043C19.2098 15.8114 19.3745 15.4143 19.375 15V12.9642C19.3752 12.4902 19.2267 12.0281 18.9503 11.643C18.674 11.258 18.2838 10.9693 17.8346 10.8178ZM6.20492 7.36977L6.27797 7.2845C6.56085 6.95307 6.96111 6.7441 7.39476 6.70143C7.8284 6.65875 8.26172 6.7857 8.60379 7.05563C8.92254 7.3061 9.24747 7.54699 9.57859 7.77829L9.45461 7.91684C9.42691 7.94737 9.40553 7.98308 9.3917 8.02191C9.37786 8.06073 9.37185 8.10191 9.37399 8.14308C9.37614 8.18424 9.38641 8.22457 9.40421 8.26175C9.42201 8.29892 9.44699 8.33221 9.47771 8.35969C9.50842 8.38718 9.54428 8.40831 9.5832 8.42188C9.62212 8.43545 9.66334 8.44118 9.70448 8.43876C9.74563 8.43633 9.78589 8.42578 9.82294 8.40773C9.86 8.38968 9.89312 8.36447 9.92039 8.33356L10.1006 8.13212C10.3048 8.2661 10.5111 8.39645 10.7196 8.52317L10.6962 8.55153C10.6698 8.58318 10.65 8.61972 10.6378 8.65906C10.6256 8.6984 10.6213 8.73976 10.6252 8.78076C10.629 8.82176 10.6409 8.8616 10.6602 8.89799C10.6795 8.93437 10.7058 8.96658 10.7376 8.99276C10.7694 9.01894 10.8061 9.03858 10.8455 9.05055C10.8849 9.06253 10.9263 9.06659 10.9673 9.06251C11.0082 9.05843 11.048 9.04629 11.0843 9.02679C11.1206 9.00729 11.1526 8.98081 11.1786 8.94888L11.2648 8.84427C11.4829 8.96833 11.7032 9.08845 11.9256 9.20462C11.8819 9.27168 11.8655 9.35298 11.88 9.43172C11.8945 9.51047 11.9386 9.58066 12.0033 9.62782C12.068 9.67498 12.1483 9.69551 12.2277 9.68518C12.3071 9.67484 12.3795 9.63443 12.43 9.57227L12.4952 9.49204C12.7237 9.60313 12.9544 9.71013 13.1872 9.81302C13.1399 9.87946 13.1205 9.96176 13.133 10.0423C13.1456 10.1229 13.1891 10.1954 13.2544 10.2443C13.3197 10.2932 13.4015 10.3147 13.4823 10.3041C13.5632 10.2935 13.6367 10.2517 13.6872 10.1877L13.7794 10.0648C14.1865 10.2307 14.5993 10.3844 15.0177 10.5259L15.1314 10.5644L14.4691 10.7852C14.2086 10.8716 13.9266 10.8678 13.6686 10.7743C11.7502 10.077 9.94533 9.09998 8.3125 7.87501C8.2584 7.83444 8.19261 7.81251 8.125 7.81251C8.05738 7.81251 7.99159 7.83444 7.9375 7.87501L7.22011 8.41306C7.12311 8.48581 7.00468 8.52426 6.88344 8.52236C6.7622 8.52047 6.64503 8.47834 6.55035 8.40259L5.75515 7.76645C5.92275 7.65574 6.07413 7.52223 6.20492 7.36977ZM1.51371 7.41977C1.57459 7.34697 1.65073 7.28843 1.73673 7.2483C1.82273 7.20816 1.9165 7.18741 2.0114 7.18751H2.12468C2.49011 7.18728 2.8426 7.3228 3.11375 7.56778C3.3804 7.80871 3.70296 7.9793 4.0522 8.06408C4.40143 8.14885 4.76631 8.14515 5.11375 8.05329C5.115 8.05434 5.11613 8.05552 5.11738 8.05653L6.15992 8.89063C6.36281 9.05295 6.61389 9.14323 6.87368 9.14729C7.13348 9.15135 7.38725 9.06895 7.59511 8.91306L8.12605 8.51462C9.75842 9.7115 11.5527 10.6701 13.4551 11.3616C13.8456 11.5031 14.2725 11.5089 14.6667 11.378L16.0363 10.9215C16.0587 10.9139 16.0802 10.9039 16.1003 10.8915L16.5659 11.0488L15.5036 11.934C15.3069 12.0977 15.0592 12.1873 14.8034 12.1875H13.3171C12.8614 12.188 12.4245 12.3693 12.1023 12.6915C11.7801 13.0137 11.5988 13.4506 11.5983 13.9063V14.0625H5.21484L4.11718 11.2095C3.97896 10.8544 3.73709 10.5492 3.42303 10.3335C3.10896 10.1178 2.73725 10.0016 2.35625 10H1.36406L1.36254 7.8661C1.36254 7.86298 1.36254 7.85985 1.36254 7.85673C1.35752 7.69745 1.41134 7.5419 1.51371 7.41977ZM1.36695 14.0625L1.36453 10.625H2.35625C2.61106 10.6261 2.85965 10.7038 3.0697 10.848C3.27975 10.9923 3.44152 11.1964 3.53398 11.4339L4.545 14.0625H1.36695ZM18.75 15C18.7497 15.2486 18.6508 15.4868 18.4751 15.6626C18.2993 15.8384 18.061 15.9372 17.8125 15.9375H2.10965C1.98484 15.9375 1.86154 15.9103 1.7483 15.8578C1.63507 15.8054 1.53463 15.7288 1.45396 15.6336C1.37329 15.5384 1.31433 15.4267 1.28117 15.3064C1.24802 15.1861 1.24148 15.06 1.26199 14.9369L1.30355 14.6875H18.75V15ZM18.75 14.0625H12.2233V13.9063C12.2236 13.6163 12.339 13.3383 12.544 13.1332C12.7491 12.9282 13.0271 12.8128 13.3171 12.8125H14.8034C15.2054 12.8122 15.5947 12.6713 15.9037 12.4141L17.2605 11.2834L17.6346 11.4098C17.9598 11.5195 18.2424 11.7286 18.4425 12.0074C18.6426 12.2863 18.7502 12.6209 18.75 12.9642V14.0625Z" fill="#121212"/>
</svg>
