<svg width="8" height="14" viewBox="0 0 8 14" fill="none" xmlns="http://www.w3.org/2000/svg">
<path d="M7.71668 6.84263C7.643 7.86112 7.26595 8.66291 6.58551 9.248C5.90941 9.83309 5.0166 10.1256 3.9071 10.1256C2.69358 10.1256 1.73793 9.71824 1.04016 8.90345C0.34672 8.08432 0 6.96182 0 5.53593V4.95735C0 4.04721 0.160358 3.24542 0.481074 2.55198C0.80179 1.85854 1.25903 1.32762 1.85278 0.959232C2.45088 0.586508 3.14432 0.400146 3.9331 0.400146C5.02527 0.400146 5.90507 0.692691 6.57251 1.27778C7.23994 1.86287 7.62567 2.68416 7.72968 3.74166H5.77939C5.73171 3.13056 5.56052 2.6885 5.26581 2.41546C4.97543 2.13808 4.53119 1.99939 3.9331 1.99939C3.283 1.99939 2.79543 2.23343 2.47038 2.7015C2.14966 3.16524 1.98497 3.88685 1.9763 4.86633V5.58144C1.9763 6.60426 2.13016 7.35188 2.43787 7.82428C2.74992 8.29669 3.23966 8.53289 3.9071 8.53289C4.50952 8.53289 4.95809 8.39637 5.25281 8.12333C5.55185 7.84595 5.72304 7.41906 5.76638 6.84263H7.71668Z" fill="#121212"/>
<rect y="12.0999" width="8" height="1.5" fill="#121212"/>
</svg>
