<svg width="14" height="14" viewBox="0 0 14 14" fill="none" xmlns="http://www.w3.org/2000/svg">
<g clip-path="url(#clip0_1477_2319)">
<path d="M5.6875 0.875H8.3125C8.42853 0.875 8.53981 0.828906 8.62186 0.746859C8.70391 0.664812 8.75 0.553532 8.75 0.4375C8.75 0.321468 8.70391 0.210188 8.62186 0.128141C8.53981 0.0460936 8.42853 0 8.3125 0L5.6875 0C5.57147 0 5.46019 0.0460936 5.37814 0.128141C5.29609 0.210188 5.25 0.321468 5.25 0.4375C5.25 0.553532 5.29609 0.664812 5.37814 0.746859C5.46019 0.828906 5.57147 0.875 5.6875 0.875Z" fill="white"/>
<path d="M7 1.75C5.96165 1.75 4.94662 2.05791 4.08326 2.63478C3.2199 3.21166 2.54699 4.0316 2.14963 4.99091C1.75227 5.95022 1.64831 7.00582 1.85088 8.02422C2.05345 9.04262 2.55347 9.97808 3.28769 10.7123C4.02192 11.4465 4.95738 11.9466 5.97578 12.1491C6.99418 12.3517 8.04978 12.2477 9.00909 11.8504C9.9684 11.453 10.7883 10.7801 11.3652 9.91674C11.9421 9.05339 12.25 8.03835 12.25 7C12.2484 5.6081 11.6948 4.27365 10.7106 3.28943C9.72635 2.3052 8.39191 1.75157 7 1.75ZM9.47488 5.14383L7.30938 7.30935C7.26876 7.34998 7.22053 7.38221 7.16745 7.4042C7.11437 7.42619 7.05748 7.43751 7.00002 7.43751C6.94257 7.43751 6.88567 7.4262 6.83259 7.40421C6.77951 7.38223 6.73128 7.35 6.69065 7.30938C6.65002 7.26875 6.61779 7.22053 6.5958 7.16745C6.57381 7.11437 6.56249 7.05747 6.56249 7.00002C6.56249 6.94256 6.5738 6.88567 6.59579 6.83259C6.61777 6.77951 6.65 6.73128 6.69062 6.69065L8.85615 4.52512C8.89677 4.4845 8.945 4.45227 8.99808 4.43028C9.05116 4.40829 9.10805 4.39698 9.1655 4.39698C9.22296 4.39697 9.27985 4.40829 9.33293 4.43027C9.38601 4.45226 9.43424 4.48448 9.47487 4.52511C9.51549 4.56573 9.54772 4.61396 9.56971 4.66704C9.5917 4.72012 9.60301 4.77701 9.60301 4.83447C9.60302 4.89192 9.5917 4.94881 9.56972 5.00189C9.54773 5.05497 9.51551 5.1032 9.47488 5.14383H9.47488Z" fill="white"/>
</g>
<defs>
<clipPath id="clip0_1477_2319">
<rect width="14" height="14" fill="white"/>
</clipPath>
</defs>
</svg>
