<svg width="20" height="20" viewBox="0 0 20 20" fill="none" xmlns="http://www.w3.org/2000/svg">
<g clip-path="url(#clip0_1710_11901)">
<path d="M8.125 1.25H11.875C12.0408 1.25 12.1997 1.18415 12.3169 1.06694C12.4342 0.949732 12.5 0.79076 12.5 0.625C12.5 0.45924 12.4342 0.300269 12.3169 0.183058C12.1997 0.065848 12.0408 0 11.875 0L8.125 0C7.95924 0 7.80027 0.065848 7.68306 0.183058C7.56585 0.300269 7.5 0.45924 7.5 0.625C7.5 0.79076 7.56585 0.949732 7.68306 1.06694C7.80027 1.18415 7.95924 1.25 8.125 1.25Z" fill="#D1D9E0"/>
<path d="M10 2.5C8.51664 2.5 7.0666 2.93987 5.83323 3.76398C4.59986 4.58809 3.63856 5.75943 3.07091 7.12987C2.50325 8.50032 2.35472 10.0083 2.64411 11.4632C2.9335 12.918 3.64781 14.2544 4.6967 15.3033C5.7456 16.3522 7.08197 17.0665 8.53683 17.3559C9.99168 17.6453 11.4997 17.4968 12.8701 16.9291C14.2406 16.3614 15.4119 15.4001 16.236 14.1668C17.0601 12.9334 17.5 11.4834 17.5 10C17.4978 8.01157 16.7069 6.10522 15.3008 4.69918C13.8948 3.29315 11.9884 2.50225 10 2.5ZM13.5355 7.34833L10.442 10.4419C10.3839 10.5 10.315 10.546 10.2392 10.5774C10.1634 10.6088 10.0821 10.625 10 10.625C9.91795 10.625 9.83668 10.6089 9.76085 10.5774C9.68501 10.546 9.61611 10.5 9.55807 10.442C9.50003 10.3839 9.45399 10.315 9.42258 10.2392C9.39116 10.1634 9.37499 10.0821 9.37499 10C9.37499 9.91795 9.39115 9.83667 9.42255 9.76084C9.45396 9.68501 9.5 9.61611 9.55803 9.55807L12.6516 6.46446C12.7097 6.40642 12.7786 6.36039 12.8544 6.32897C12.9302 6.29756 13.0115 6.2814 13.0936 6.28139C13.1757 6.28139 13.2569 6.29756 13.3328 6.32896C13.4086 6.36037 13.4775 6.40641 13.5355 6.46444C13.5936 6.52248 13.6396 6.59138 13.671 6.6672C13.7024 6.74303 13.7186 6.8243 13.7186 6.90638C13.7186 6.98846 13.7024 7.06973 13.671 7.14556C13.6396 7.22139 13.5936 7.29029 13.5355 7.34833H13.5355Z" fill="#D1D9E0"/>
</g>
<defs>
<clipPath id="clip0_1710_11901">
<rect width="20" height="20" fill="white"/>
</clipPath>
</defs>
</svg>
