<svg width="20" height="20" viewBox="0 0 20 20" fill="none" xmlns="http://www.w3.org/2000/svg">
<g clip-path="url(#clip0_1534_12227)">
<path d="M1.15967 18.2893C3.64167 19.8417 8.697 20.118 11.6867 19.9523H11.6937C11.7013 19.9523 11.7093 19.95 11.717 19.9493C13.828 19.8303 17.0287 19.399 18.8033 18.2883C18.9227 18.2136 18.9822 18.0719 18.952 17.9343C18.7624 17.0546 18.0161 16.4049 17.1187 16.3383C16.1877 13.1383 16.9213 7.95765 16.625 5.29565C16.2173 1.63332 14.3667 -1.33514e-05 10.6267 -1.33514e-05C7.29533 -1.33514e-05 6.32934 1.55099 6.06 2.26665C5.50406 2.16714 4.93096 2.27711 4.45134 2.57532C3.59267 3.12265 3.091 4.26599 2.95967 5.97532C2.67834 9.64665 3.23967 13.7867 2.70667 16.3497C1.86501 16.4726 1.18828 17.1054 1.00934 17.937C0.980222 18.0744 1.04034 18.2153 1.15967 18.2893ZM6.112 16.3C6.226 16.9967 6.52667 18.2963 7.258 19.207C6.82067 19.1667 6.39134 19.118 5.97767 19.0587C5.92 17.792 5.58134 17.0527 5.28267 16.6433C5.56713 16.5493 5.84431 16.4345 6.112 16.3ZM8.33067 19.2877C7.16667 18.5733 6.81367 16.5463 6.73334 15.9397C7.02395 15.7457 7.29431 15.523 7.54034 15.275C7.85467 14.9563 7.84034 14.5937 7.81167 14.1397C9.366 15.6893 10.552 15.6913 12.1083 14.1397C12.08 14.5987 12.0667 14.9397 12.3867 15.2643C12.6314 15.5099 12.9004 15.7299 13.1897 15.921C13.1137 16.506 12.765 18.568 11.5877 19.2903C10.5028 19.3482 9.4155 19.3474 8.33067 19.288V19.2877ZM6.34667 7.67132C6.81896 6.94144 7.18959 6.15061 7.44834 5.32065C8.25767 6.09799 10.256 7.60365 13.5727 7.68465C13.4697 8.45132 13.31 8.61799 13.5233 9.63999C13.7177 10.5903 13.4303 11.4567 12.5317 12.631C11.743 13.6643 11.0217 14.3127 10.3863 14.5603C10.1118 14.6693 9.80591 14.6693 9.53134 14.5603C8.898 14.3137 8.177 13.665 7.388 12.6317C6.48967 11.4577 6.202 10.5913 6.396 9.64232C6.613 8.59999 6.45067 8.44899 6.34667 7.67132ZM14.6467 16.63C14.3467 17.0373 13.9993 17.7813 13.9417 19.0653C13.5267 19.124 13.0967 19.1717 12.659 19.2113C13.399 18.2917 13.6987 16.975 13.8103 16.2823C14.0806 16.4179 14.3602 16.5341 14.647 16.63H14.6467ZM18.225 17.8553C17.0839 18.404 15.8661 18.7766 14.6133 18.9603C14.704 17.5717 15.18 16.9983 15.362 16.827C15.9002 16.9434 16.4494 17.0014 17 17C17.5476 16.9993 18.0372 17.3411 18.2253 17.8553H18.225ZM4.80367 3.14299C5.2152 2.89049 5.71656 2.83057 6.176 2.97899C6.27061 3.01457 6.37626 3.00529 6.46323 2.95377C6.55019 2.90225 6.60908 2.81406 6.62334 2.71399C6.62634 2.69332 6.958 0.666653 10.6267 0.666653C18.9843 0.666653 14.6863 9.72232 16.4167 16.3083C15.0886 16.2495 13.8265 15.7132 12.8623 14.798C12.8052 14.7433 12.7706 14.6692 12.7653 14.5903C12.7535 14.1187 12.8113 13.6478 12.9367 13.193C13.8317 12.054 14.4653 10.919 14.176 9.50532C13.982 8.57665 14.1387 8.56799 14.246 7.68065C14.3793 7.67632 14.5127 7.67499 14.6487 7.66599C14.7678 7.65807 14.8736 7.58722 14.9263 7.48012C14.9789 7.37303 14.9705 7.24596 14.9041 7.14679C14.8377 7.04762 14.7234 6.9914 14.6043 6.99932C9.85134 7.31499 7.57834 4.48865 7.55634 4.46065C7.47804 4.36008 7.34924 4.31297 7.22453 4.33927C7.09981 4.36557 7.00102 4.46069 6.97 4.58432C6.69167 5.67599 5.99534 7.38865 5.09334 8.06532C4.97855 8.15141 4.93174 8.30128 4.97711 8.4374C5.02248 8.57351 5.14986 8.66532 5.29334 8.66532C5.3655 8.66559 5.43576 8.64217 5.49334 8.59865C5.59593 8.52036 5.69346 8.43563 5.78534 8.34499C5.86517 8.72947 5.85088 9.12755 5.74367 9.50532C5.455 10.9173 6.08967 12.0547 6.983 13.191C7.11021 13.6528 7.16763 14.1311 7.15334 14.61C7.14899 14.6839 7.11768 14.7536 7.06534 14.806C6.542 15.3393 5.39134 16.2077 3.39367 16.3197C4.15634 12.2313 2.53567 4.60765 4.80367 3.14299ZM2.97934 17C3.51301 16.9986 4.04521 16.9439 4.568 16.8367C4.75834 17.0197 5.21634 17.5967 5.306 18.9537C4.06846 18.77 2.86592 18.3998 1.73934 17.8557C1.92345 17.3318 2.4242 16.9862 2.97934 17Z" fill="#121212"/>
</g>
<defs>
<clipPath id="clip0_1534_12227">
<rect width="20" height="20" fill="white"/>
</clipPath>
</defs>
</svg>
